<svg width="30" height="74" viewBox="0 0 30 74" fill="none" xmlns="http://www.w3.org/2000/svg">
<path d="M12.103 5.80228C20.0515 15.9277 27.6524 38.1176 29.0244 55.3546C29.7196 63.8793 28.7775 69.596 26.6874 71.9787C26.596 72.0793 26.4999 72.1799 26.4039 72.2714L26.3307 72.34C26.1248 72.5049 25.9095 72.6576 25.6859 72.7973L25.4526 72.9208L25.3703 72.9574L25.2834 72.994C24.9912 73.1116 24.6828 73.184 24.3687 73.2089H23.9114H23.7605H23.6187H23.5181C21.9952 72.9483 20.2207 71.7455 18.2633 69.5503C17.9203 69.1615 17.5682 68.7362 17.2114 68.2834C9.32698 58.1901 1.80838 36.2974 0.308324 19.1382C0.280883 18.8455 0.276312 18.7677 0.267165 18.6808C0.258018 18.594 0.267165 18.5116 0.267165 18.4293C0.267165 18.347 0.267165 18.2235 0.267165 18.1458C-0.620066 6.79013 1.51112 0.561218 5.40304 0.812752L5.70946 0.844766C7.52051 1.11459 9.69285 2.72441 12.103 5.80228ZM21.9129 38.5109L21.483 33.2287L5.2384 12.5068L5.31615 13.4535L5.80092 19.4583L15.7114 32.0945L7.02201 34.5687L7.04945 34.8659L7.45648 39.86L23.2757 60.0331L23.701 60.5773L23.1339 53.6258L13.2143 40.9577L21.5424 38.6161L21.9129 38.5109Z" fill="#29AC6A"/>
</svg>
