<svg width="61" height="61" viewBox="0 0 61 61" fill="none" xmlns="http://www.w3.org/2000/svg">
<path d="M30.5 61C47.3447 61 61 47.3447 61 30.5C61 13.6553 47.3447 0 30.5 0C13.6553 0 0 13.6553 0 30.5C0 47.3447 13.6553 61 30.5 61Z" fill="#00AFEF"/>
<path d="M30.0912 45.9594C33.2191 45.9594 36.2767 45.0319 38.8774 43.2942C41.4782 41.5564 43.5052 39.0865 44.7022 36.1967C45.8991 33.307 46.2123 30.1271 45.6021 27.0593C44.9919 23.9915 43.4857 21.1736 41.2739 18.9619C39.0622 16.7501 36.2443 15.244 33.1765 14.6337C30.1087 14.0235 26.9289 14.3366 24.0391 15.5336C21.1493 16.7306 18.6794 18.7577 16.9416 21.3584C15.2039 23.9592 14.2764 27.0168 14.2764 30.1446C14.2764 34.339 15.9426 38.3616 18.9084 41.3274C21.8743 44.2933 25.8968 45.9594 30.0912 45.9594Z" fill="white"/>
<path d="M30.0823 41.6148C32.3491 41.6148 34.565 40.9426 36.4498 39.6833C38.3346 38.4239 39.8036 36.6339 40.6711 34.5396C41.5386 32.4453 41.7655 30.1409 41.3233 27.9176C40.8811 25.6944 39.7895 23.6522 38.1866 22.0493C36.5837 20.4464 34.5416 19.3548 32.3183 18.9126C30.095 18.4704 27.7906 18.6974 25.6963 19.5648C23.602 20.4323 21.812 21.9013 20.5527 23.7861C19.2933 25.6709 18.6211 27.8868 18.6211 30.1536C18.6211 33.1933 19.8286 36.1085 21.978 38.2579C24.1274 40.4073 27.0426 41.6148 30.0823 41.6148Z" fill="#00AFEF"/>
<path d="M30.0796 37.2704C31.4871 37.2704 32.863 36.8531 34.0334 36.0711C35.2037 35.2891 36.1159 34.1777 36.6545 32.8773C37.1931 31.5769 37.3341 30.1459 37.0595 28.7654C36.7849 27.3849 36.1071 26.1168 35.1118 25.1215C34.1165 24.1263 32.8484 23.4485 31.4679 23.1739C30.0875 22.8993 28.6565 23.0402 27.3561 23.5788C26.0557 24.1175 24.9442 25.0297 24.1623 26.2C23.3803 27.3703 22.9629 28.7462 22.9629 30.1538C22.9629 32.0412 23.7127 33.8514 25.0473 35.186C26.382 36.5207 28.1921 37.2704 30.0796 37.2704Z" fill="white"/>
<path d="M30.0817 32.9281C30.63 32.9281 31.1659 32.7655 31.6218 32.4609C32.0777 32.1563 32.433 31.7233 32.6428 31.2167C32.8526 30.7102 32.9075 30.1528 32.8005 29.6151C32.6936 29.0774 32.4295 28.5834 32.0419 28.1957C31.6542 27.8081 31.1602 27.544 30.6225 27.4371C30.0848 27.3301 29.5274 27.385 29.0208 27.5948C28.5143 27.8046 28.0814 28.16 27.7768 28.6158C27.4722 29.0717 27.3096 29.6076 27.3096 30.1559C27.3096 30.8911 27.6016 31.5962 28.1215 32.1161C28.6414 32.636 29.3465 32.9281 30.0817 32.9281Z" fill="#D3D3E4"/>
<path d="M44.7338 11.752L41.2658 15.2199C41.192 15.2935 41.1347 15.3819 41.0977 15.4792C41.0607 15.5766 41.0448 15.6808 41.0512 15.7847L41.2522 18.9839L45.337 14.8991L45.1495 11.9101C45.1466 11.8633 45.1303 11.8182 45.1025 11.7804C45.0747 11.7425 45.0366 11.7136 44.9927 11.6969C44.9488 11.6802 44.901 11.6765 44.8551 11.6863C44.8092 11.696 44.767 11.7189 44.7338 11.752Z" fill="white"/>
<path d="M48.4858 15.5025L45.0178 18.9704C44.9442 19.0439 44.8557 19.1009 44.7583 19.1375C44.6609 19.1741 44.5568 19.1896 44.453 19.1828L41.2539 18.9817L45.3387 14.897L48.3277 15.0845C48.375 15.087 48.4206 15.1031 48.4589 15.131C48.4972 15.159 48.5265 15.1974 48.5433 15.2418C48.56 15.2861 48.5635 15.3344 48.5533 15.3807C48.5431 15.427 48.5197 15.4693 48.4858 15.5025Z" fill="white"/>
<path d="M30.0802 30.6621C29.9778 30.6622 29.8777 30.6319 29.7926 30.575C29.7074 30.5182 29.6411 30.4374 29.6019 30.3428C29.5627 30.2483 29.5525 30.1441 29.5725 30.0437C29.5924 29.9433 29.6418 29.8511 29.7142 29.7788L46.9862 12.509C47.0833 12.4119 47.215 12.3574 47.3522 12.3574C47.4895 12.3574 47.6212 12.4119 47.7182 12.509C47.8153 12.606 47.8698 12.7377 47.8698 12.875C47.8698 13.0123 47.8153 13.1439 47.7182 13.241L30.4462 30.5131C30.398 30.5608 30.3409 30.5985 30.2781 30.6241C30.2153 30.6497 30.148 30.6626 30.0802 30.6621Z" fill="#BFBFBF"/>
</svg>
