<svg width="41" height="41" viewBox="0 0 41 41" fill="none" xmlns="http://www.w3.org/2000/svg">
<path d="M20.5712 40.5252C31.6308 40.5252 40.5964 31.5596 40.5964 20.5C40.5964 9.44031 31.6308 0.474701 20.5712 0.474701C9.51154 0.474701 0.545929 9.44031 0.545929 20.5C0.545929 31.5596 9.51154 40.5252 20.5712 40.5252Z" fill="#00AFEF"/>
<path d="M20.3029 30.6501C22.3566 30.6501 24.3641 30.0411 26.0717 28.9001C27.7792 27.7592 29.1101 26.1376 29.896 24.2402C30.6819 22.3429 30.8875 20.2551 30.4869 18.2409C30.0862 16.2267 29.0973 14.3766 27.6451 12.9244C26.193 11.4723 24.3428 10.4833 22.3286 10.0827C20.3144 9.68204 18.2267 9.88764 16.3293 10.6735C14.432 11.4594 12.8103 12.7903 11.6694 14.4979C10.5284 16.2054 9.91946 18.213 9.91946 20.2666C9.91946 23.0205 11.0134 25.6616 12.9607 27.6089C14.908 29.5561 17.5491 30.6501 20.3029 30.6501V30.6501Z" fill="white"/>
<path d="M20.297 27.7976C21.7853 27.7976 23.2402 27.3563 24.4776 26.5294C25.7151 25.7026 26.6796 24.5273 27.2492 23.1523C27.8187 21.7772 27.9678 20.2642 27.6774 18.8045C27.3871 17.3448 26.6704 16.004 25.618 14.9516C24.5656 13.8992 23.2247 13.1825 21.765 12.8921C20.3053 12.6018 18.7923 12.7508 17.4172 13.3204C16.0422 13.8899 14.867 14.8544 14.0401 16.0919C13.2132 17.3294 12.7719 18.7843 12.7719 20.2726C12.7719 22.2683 13.5647 24.1824 14.9759 25.5936C16.3872 27.0048 18.3012 27.7976 20.297 27.7976Z" fill="#00AFEF"/>
<path d="M20.2955 24.9451C21.2197 24.9451 22.1231 24.6711 22.8915 24.1577C23.6598 23.6443 24.2587 22.9145 24.6124 22.0607C24.966 21.2069 25.0586 20.2674 24.8783 19.361C24.698 18.4546 24.253 17.622 23.5995 16.9686C22.946 16.3151 22.1135 15.8701 21.2071 15.6898C20.3007 15.5095 19.3612 15.602 18.5074 15.9557C17.6536 16.3093 16.9238 16.9083 16.4104 17.6767C15.897 18.4451 15.623 19.3484 15.623 20.2726C15.623 21.5118 16.1152 22.7003 16.9915 23.5766C17.8678 24.4528 19.0563 24.9451 20.2955 24.9451V24.9451Z" fill="white"/>
<path d="M20.297 22.0941C20.657 22.0941 21.0089 21.9874 21.3082 21.7874C21.6075 21.5874 21.8408 21.3031 21.9785 20.9705C22.1163 20.638 22.1523 20.272 22.0821 19.9189C22.0119 19.5659 21.8385 19.2416 21.584 18.9871C21.3294 18.7325 21.0051 18.5591 20.6521 18.4889C20.299 18.4187 19.9331 18.4547 19.6005 18.5925C19.2679 18.7303 18.9837 18.9636 18.7837 19.2629C18.5837 19.5622 18.4769 19.9141 18.4769 20.274C18.4769 20.7567 18.6687 21.2197 19.01 21.561C19.3513 21.9023 19.8143 22.0941 20.297 22.0941V22.0941Z" fill="#D3D3E4"/>
<path d="M29.9165 8.19066L27.6396 10.4676C27.5911 10.5158 27.5535 10.5739 27.5292 10.6378C27.5049 10.7018 27.4945 10.7701 27.4986 10.8384L27.6307 12.9389L30.3126 10.2569L30.1894 8.29446C30.1876 8.26369 30.1769 8.23411 30.1586 8.20927C30.1404 8.18443 30.1153 8.16541 30.0865 8.15445C30.0577 8.14349 30.0263 8.14105 29.9962 8.14748C29.966 8.1539 29.9384 8.16891 29.9165 8.19066V8.19066Z" fill="white"/>
<path d="M32.3804 10.6531L30.1034 12.93C30.0551 12.9783 29.997 13.0156 29.9331 13.0397C29.8691 13.0637 29.8008 13.0739 29.7326 13.0694L27.6322 12.9374L30.3141 10.2555L32.2766 10.3786C32.3076 10.3802 32.3376 10.3909 32.3627 10.4092C32.3878 10.4275 32.4071 10.4528 32.4181 10.4819C32.4291 10.511 32.4314 10.5427 32.4247 10.5731C32.418 10.6035 32.4026 10.6313 32.3804 10.6531V10.6531Z" fill="white"/>
<path d="M20.2955 20.6063C20.2283 20.6064 20.1626 20.5865 20.1067 20.5492C20.0508 20.5118 20.0072 20.4588 19.9815 20.3967C19.9558 20.3346 19.949 20.2663 19.9622 20.2003C19.9753 20.1344 20.0077 20.0739 20.0552 20.0264L31.3955 8.6876C31.4592 8.62387 31.5456 8.5881 31.6358 8.5881C31.7259 8.5881 31.8123 8.62387 31.8761 8.6876C31.9398 8.75134 31.9756 8.8378 31.9756 8.92793C31.9756 9.01806 31.9398 9.10449 31.8761 9.16822L20.5358 20.5085C20.5042 20.5398 20.4667 20.5646 20.4254 20.5814C20.3842 20.5982 20.3401 20.6066 20.2955 20.6063V20.6063Z" fill="#BFBFBF"/>
</svg>
