<svg width="60" height="61" viewBox="0 0 60 61" fill="none" xmlns="http://www.w3.org/2000/svg">
<path d="M30 61C46.5685 61 60 47.3447 60 30.5C60 13.6553 46.5685 0 30 0C13.4315 0 0 13.6553 0 30.5C0 47.3447 13.4315 61 30 61Z" fill="#3E4095"/>
<path d="M47.5826 21.3915H12.6013C12.1237 21.3592 11.6524 21.5147 11.2889 21.8247C10.9254 22.1347 10.6988 22.5743 10.6578 23.0489V39.6176C10.6988 40.0922 10.9254 40.5318 11.2889 40.8418C11.6524 41.1518 12.1237 41.3073 12.6013 41.2749H47.5826C48.0602 41.3073 48.5315 41.1518 48.895 40.8418C49.2585 40.5318 49.4851 40.0922 49.5261 39.6176V23.0489C49.4851 22.5743 49.2585 22.1347 48.895 21.8247C48.5315 21.5147 48.0602 21.3592 47.5826 21.3915ZM13.5731 38.783V35.4747C14.528 35.4069 15.4713 35.716 16.1988 36.3352C16.9263 36.9544 17.3794 37.8338 17.46 38.783H13.5731ZM13.5731 27.1852V23.877H17.46C17.3807 24.8271 16.9282 25.7078 16.2005 26.3281C15.4729 26.9484 14.5288 27.2583 13.5731 27.1904V27.1852ZM30.0926 36.3041C29.0988 36.3315 28.1194 36.0632 27.2797 35.5337C26.4399 35.0042 25.778 34.2375 25.3785 33.3317C24.9791 32.4258 24.8602 31.422 25.0372 30.4485C25.2143 29.4751 25.6791 28.5763 26.3722 27.8672C27.0654 27.1581 27.9553 26.6708 28.9283 26.4676C29.9013 26.2645 30.9131 26.3548 31.8342 26.727C32.7553 27.0991 33.544 27.7362 34.0992 28.5567C34.6545 29.3773 34.9512 30.344 34.9513 31.3332C34.9694 32.6335 34.4677 33.8877 33.5565 34.8199C32.6454 35.7521 31.3994 36.286 30.0926 36.3041ZM46.6109 38.783H42.7239C42.8032 37.8329 43.2557 36.9521 43.9834 36.3318C44.7111 35.7116 45.6551 35.4017 46.6109 35.4696V38.783ZM46.6109 27.1852C45.6551 27.2531 44.7111 26.9432 43.9834 26.3229C43.2557 25.7026 42.8032 24.8219 42.7239 23.8718H46.6109V27.1852Z" fill="white"/>
</svg>
