<svg width="367" height="216" viewBox="0 0 367 216" fill="none" xmlns="http://www.w3.org/2000/svg">
<g clip-path="url(#clip0_62_3740)">
<path d="M348.91 154.01V205.112C348.91 207.86 347.818 210.496 345.875 212.44C343.931 214.383 341.296 215.475 338.547 215.475H10.3625C7.61419 215.475 4.97845 214.383 3.0351 212.44C1.09176 210.496 0 207.86 0 205.112L0 154.01C0.0014169 151.263 1.0938 148.629 3.03699 146.687C4.98018 144.744 7.61511 143.653 10.3625 143.653H338.547C339.908 143.653 341.255 143.92 342.512 144.44C343.77 144.96 344.912 145.723 345.874 146.685C346.837 147.647 347.6 148.789 348.121 150.046C348.642 151.303 348.91 152.65 348.91 154.01V154.01Z" fill="#BDE6F9"/>
<path d="M33.5673 143.653H13.676V215.48H33.5673V143.653Z" fill="#99D4E4"/>
<path d="M61.1916 143.653H41.3003V215.48H61.1916V143.653Z" fill="#99D4E4"/>
<path d="M88.8161 143.653H68.9248V215.48H88.8161V143.653Z" fill="#99D4E4"/>
<path d="M116.44 143.653H96.5491V215.48H116.44V143.653Z" fill="#99D4E4"/>
<path d="M144.07 143.653H124.179V215.48H144.07V143.653Z" fill="#99D4E4"/>
<path d="M171.695 143.653H151.803V215.48H171.695V143.653Z" fill="#99D4E4"/>
<path d="M199.319 143.653H179.428V215.48H199.319V143.653Z" fill="#99D4E4"/>
<path d="M226.943 143.653H207.052V215.48H226.943V143.653Z" fill="#99D4E4"/>
<path d="M254.568 143.653H234.677V215.48H254.568V143.653Z" fill="#99D4E4"/>
<path d="M282.192 143.653H262.301V215.48H282.192V143.653Z" fill="#99D4E4"/>
<path d="M309.817 143.653H289.925V215.48H309.817V143.653Z" fill="#99D4E4"/>
<path d="M337.446 143.653H317.555V215.48H337.446V143.653Z" fill="#99D4E4"/>
<path opacity="0.44" d="M348.91 198.346V205.112C348.91 207.86 347.818 210.496 345.875 212.44C343.931 214.383 341.296 215.475 338.547 215.475H10.3625C7.61419 215.475 4.97845 214.383 3.0351 212.44C1.09176 210.496 0 207.86 0 205.112L0 198.346H348.91Z" fill="#5A7F85"/>
<path d="M367 82.1892V133.291C367.001 134.651 366.733 135.998 366.213 137.255C365.693 138.512 364.93 139.654 363.968 140.616C363.006 141.578 361.864 142.341 360.607 142.861C359.35 143.381 358.003 143.649 356.643 143.648H28.4529C25.706 143.648 23.0716 142.557 21.1292 140.614C19.1869 138.672 18.0957 136.038 18.0957 133.291V82.1892C18.0957 79.4418 19.1867 76.8068 21.1289 74.8637C23.0711 72.9205 25.7055 71.8281 28.4529 71.8267H356.643C358.004 71.8267 359.351 72.0947 360.608 72.6156C361.865 73.1364 363.007 73.8998 363.968 74.8621C364.93 75.8244 365.693 76.9668 366.213 78.224C366.733 79.4812 367.001 80.8286 367 82.1892V82.1892Z" fill="#BDE6F9"/>
<path d="M51.6628 71.8267H31.7715V143.653H51.6628V71.8267Z" fill="#99D4E4"/>
<path d="M79.2873 71.8267H59.396V143.653H79.2873V71.8267Z" fill="#99D4E4"/>
<path d="M106.912 71.8267H87.0203V143.653H106.912V71.8267Z" fill="#99D4E4"/>
<path d="M134.536 71.8267H114.645V143.653H134.536V71.8267Z" fill="#99D4E4"/>
<path d="M162.16 71.8267H142.269V143.653H162.16V71.8267Z" fill="#99D4E4"/>
<path d="M189.785 71.8267H169.894V143.653H189.785V71.8267Z" fill="#99D4E4"/>
<path d="M217.414 71.8267H197.523V143.653H217.414V71.8267Z" fill="#99D4E4"/>
<path d="M245.039 71.8267H225.148V143.653H245.039V71.8267Z" fill="#99D4E4"/>
<path d="M272.663 71.8267H252.772V143.653H272.663V71.8267Z" fill="#99D4E4"/>
<path d="M300.288 71.8267H280.396V143.653H300.288V71.8267Z" fill="#99D4E4"/>
<path d="M327.912 71.8267H308.021V143.653H327.912V71.8267Z" fill="#99D4E4"/>
<path d="M355.537 71.8267H335.645V143.653H355.537V71.8267Z" fill="#99D4E4"/>
<path opacity="0.44" d="M367 126.52V133.291C367.001 134.651 366.733 135.998 366.213 137.255C365.693 138.512 364.93 139.654 363.968 140.616C363.006 141.578 361.864 142.341 360.607 142.861C359.35 143.381 358.003 143.649 356.643 143.648H28.4529C25.706 143.648 23.0716 142.557 21.1292 140.614C19.1869 138.672 18.0957 136.038 18.0957 133.291V126.52H367Z" fill="#5A7F85"/>
<path d="M348.91 10.3625V61.4588C348.91 64.2071 347.818 66.8429 345.875 68.7862C343.931 70.7296 341.296 71.8213 338.547 71.8213H10.3625C7.61419 71.8213 4.97845 70.7296 3.0351 68.7862C1.09176 66.8429 0 64.2071 0 61.4588L0 10.3625C0 7.61419 1.09176 4.97845 3.0351 3.0351C4.97845 1.09176 7.61419 0 10.3625 0L338.547 0C341.296 0 343.931 1.09176 345.875 3.0351C347.818 4.97845 348.91 7.61419 348.91 10.3625Z" fill="#BDE6F9"/>
<path d="M33.5673 0H13.676V71.8267H33.5673V0Z" fill="#99D4E4"/>
<path d="M61.1916 0H41.3003V71.8267H61.1916V0Z" fill="#99D4E4"/>
<path d="M88.8161 0H68.9248V71.8267H88.8161V0Z" fill="#99D4E4"/>
<path d="M116.44 0H96.5491V71.8267H116.44V0Z" fill="#99D4E4"/>
<path d="M144.07 0H124.179V71.8267H144.07V0Z" fill="#99D4E4"/>
<path d="M171.695 0H151.803V71.8267H171.695V0Z" fill="#99D4E4"/>
<path d="M199.319 0H179.428V71.8267H199.319V0Z" fill="#99D4E4"/>
<path d="M226.943 0H207.052V71.8267H226.943V0Z" fill="#99D4E4"/>
<path d="M254.568 0H234.677V71.8267H254.568V0Z" fill="#99D4E4"/>
<path d="M282.192 0H262.301V71.8267H282.192V0Z" fill="#99D4E4"/>
<path d="M309.817 0H289.925V71.8267H309.817V0Z" fill="#99D4E4"/>
<path d="M337.446 0H317.555V71.8267H337.446V0Z" fill="#99D4E4"/>
<path opacity="0.44" d="M348.91 54.6984V61.4588C348.91 64.2071 347.818 66.8429 345.875 68.7862C343.931 70.7296 341.296 71.8213 338.547 71.8213H10.3625C7.61419 71.8213 4.97845 70.7296 3.0351 68.7862C1.09176 66.8429 0 64.2071 0 61.4588L0 54.6984H348.91Z" fill="#5A7F85"/>
</g>
<defs>
<clipPath id="clip0_62_3740">
<rect width="367" height="215.475" fill="white"/>
</clipPath>
</defs>
</svg>
