<svg width="30" height="32" viewBox="0 0 30 32" fill="none" xmlns="http://www.w3.org/2000/svg">
<path d="M15 31.5C23.2843 31.5 30 24.5604 30 16C30 7.43959 23.2843 0.5 15 0.5C6.71573 0.5 0 7.43959 0 16C0 24.5604 6.71573 31.5 15 31.5Z" fill="#91D8F7"/>
<path d="M15.3423 23.9913C16.9136 24.0022 18.4527 23.541 19.7645 22.6664C21.0762 21.7917 22.1014 20.543 22.7102 19.0786C23.3189 17.6142 23.4837 15.9999 23.1836 14.4407C22.8836 12.8815 22.1323 11.4474 21.0249 10.3204C19.9175 9.19344 18.504 8.42426 16.9635 8.11045C15.4231 7.79664 13.8252 7.95232 12.3725 8.55777C10.9197 9.16322 9.67752 10.1912 8.80346 11.5112C7.9294 12.8313 7.46284 14.384 7.46293 15.9725C7.45603 18.092 8.28225 20.1275 9.75987 21.6313C11.2375 23.1351 13.2455 23.984 15.3423 23.9913Z" fill="white"/>
<path d="M15.3423 21.7869C16.4815 21.7946 17.5973 21.4602 18.5483 20.8261C19.4993 20.1919 20.2425 19.2866 20.6839 18.2248C21.1252 17.1631 21.2446 15.9928 21.0271 14.8624C20.8096 13.7319 20.2649 12.6923 19.4621 11.8751C18.6593 11.058 17.6346 10.5003 16.5178 10.2727C15.401 10.045 14.2425 10.1578 13.1892 10.5966C12.1359 11.0354 11.2352 11.7805 10.6014 12.7375C9.96756 13.6944 9.6291 14.82 9.62894 15.9717C9.6238 17.5087 10.2228 18.9848 11.2943 20.0753C12.3657 21.1659 13.8218 21.7815 15.3423 21.7869Z" fill="#91D8F7"/>
<path d="M15.3423 19.5833C16.0496 19.5881 16.7424 19.3804 17.3329 18.9867C17.9234 18.5929 18.3848 18.0308 18.6588 17.3716C18.9328 16.7123 19.007 15.9857 18.8719 15.2838C18.7368 14.5819 18.3986 13.9364 17.9001 13.4291C17.4016 12.9217 16.7653 12.5755 16.0719 12.4342C15.3785 12.2929 14.6592 12.363 14.0052 12.6355C13.3512 12.908 12.792 13.3707 12.3985 13.9649C12.005 14.5591 11.795 15.2581 11.7949 15.9731C11.7934 16.4456 11.8839 16.9138 12.0613 17.3509C12.2387 17.7881 12.4996 18.1856 12.829 18.5209C13.1584 18.8561 13.5499 19.1224 13.9811 19.3047C14.4123 19.487 14.8749 19.5817 15.3423 19.5833Z" fill="white"/>
<path d="M15.342 17.3803C15.6175 17.3821 15.8874 17.3012 16.1175 17.1478C16.3475 16.9944 16.5273 16.7754 16.634 16.5186C16.7408 16.2618 16.7697 15.9787 16.717 15.7053C16.6644 15.4318 16.5326 15.1803 16.3384 14.9827C16.1442 14.785 15.8963 14.6501 15.6262 14.5951C15.356 14.5401 15.0758 14.5674 14.821 14.6735C14.5663 14.7797 14.3484 14.96 14.1951 15.1914C14.0418 15.4229 13.96 15.6952 13.96 15.9738C13.9594 16.1579 13.9946 16.3403 14.0637 16.5106C14.1329 16.6809 14.2345 16.8358 14.3628 16.9664C14.4911 17.097 14.6437 17.2007 14.8117 17.2718C14.9797 17.3428 15.1599 17.3796 15.342 17.3803Z" fill="#D3D3E4"/>
<path d="M22.6503 6.63459L20.917 8.3942C20.8802 8.43161 20.8516 8.47647 20.8333 8.52584C20.8149 8.57521 20.807 8.62795 20.8103 8.6806L20.9103 10.3041L22.947 8.23178L22.8536 6.71548C22.8517 6.69261 22.8434 6.67074 22.8298 6.65234C22.8163 6.63395 22.7979 6.61976 22.7767 6.61135C22.7556 6.60295 22.7326 6.60066 22.7102 6.60477C22.6879 6.60888 22.6671 6.6192 22.6503 6.63459Z" fill="white"/>
<path d="M24.5174 8.53839L22.7888 10.298C22.7522 10.3354 22.7081 10.3645 22.6594 10.3832C22.6108 10.4019 22.5587 10.4099 22.5068 10.4065L20.9121 10.3047L22.9488 8.23242L24.4388 8.32746C24.4622 8.32911 24.4847 8.33751 24.5035 8.35169C24.5223 8.36586 24.5368 8.38521 24.545 8.40742C24.5533 8.42963 24.5551 8.45378 24.5502 8.477C24.5453 8.50021 24.534 8.52151 24.5174 8.53839Z" fill="white"/>
<path d="M15.3424 16.2344C15.3085 16.2344 15.275 16.2277 15.2438 16.2145C15.2125 16.2013 15.1842 16.1819 15.1604 16.1576C15.1121 16.1081 15.085 16.0414 15.085 15.9719C15.085 15.9024 15.1121 15.8357 15.1604 15.7862L23.771 7.02537C23.7949 7.00093 23.8233 6.98154 23.8546 6.96829C23.8859 6.95505 23.9195 6.94824 23.9534 6.94824C23.9873 6.94824 24.0209 6.95505 24.0522 6.96829C24.0835 6.98154 24.1119 7.00093 24.1357 7.02537C24.184 7.0747 24.2111 7.14129 24.2111 7.21069C24.2111 7.28008 24.184 7.34668 24.1357 7.39601L15.5251 16.1569C15.5012 16.1814 15.4728 16.201 15.4415 16.2143C15.4101 16.2276 15.3764 16.2344 15.3424 16.2344Z" fill="#BFBFBF"/>
</svg>
