<svg width="160" height="46" viewBox="0 0 160 46" fill="none" xmlns="http://www.w3.org/2000/svg">
<path d="M153.947 45.2659H5.91548C2.65593 45.2659 0 42.728 0 39.6134V5.67551C0 2.56089 2.65593 0.0230446 5.91548 0.0230446H153.947C157.207 0.0230446 159.863 2.56089 159.863 5.67551V39.6134C159.863 42.728 157.183 45.2659 153.947 45.2659Z" fill="#0A1045"/>
<path d="M56.1371 11.6049C56.1371 12.5508 55.8473 13.3121 55.2679 13.8658C54.5918 14.5349 53.7226 14.881 52.6602 14.881C51.6461 14.881 50.7528 14.5349 50.0526 13.8658C49.3282 13.1737 48.9661 12.3431 48.9661 11.328C48.9661 10.3129 49.3282 9.4823 50.0526 8.81323C50.7769 8.14416 51.6461 7.7981 52.6602 7.7981C53.1673 7.7981 53.6502 7.89038 54.1089 8.07495C54.5677 8.25952 54.954 8.51331 55.2196 8.8363L54.5918 9.43615C54.1089 8.90551 53.4811 8.62866 52.6361 8.62866C51.8876 8.62866 51.2357 8.88245 50.7045 9.39001C50.1492 9.89758 49.8836 10.5436 49.8836 11.3511C49.8836 12.1586 50.1492 12.8046 50.7045 13.3121C51.2598 13.8197 51.9117 14.0735 52.6361 14.0735C53.4329 14.0735 54.0848 13.8197 54.616 13.3121C54.954 12.9891 55.1713 12.5277 55.2196 11.9279H52.6361V11.1204H56.0646C56.1371 11.2588 56.1371 11.4203 56.1371 11.6049Z" fill="white" stroke="white" stroke-width="0.199309" stroke-miterlimit="10"/>
<path d="M61.5931 8.76721H58.3577V10.9128H61.2792V11.7203H58.3577V13.866H61.5931V14.6965H57.4402V7.91357H61.5931C61.5931 7.93665 61.5931 8.76721 61.5931 8.76721Z" fill="white" stroke="white" stroke-width="0.199309" stroke-miterlimit="10"/>
<path d="M65.4565 14.7195H64.539V8.76709H62.5591V7.93652H67.4363V8.76709H65.4565V14.7195Z" fill="white" stroke="white" stroke-width="0.199309" stroke-miterlimit="10"/>
<path d="M70.9619 14.7195V7.93652H71.8794V14.7195H70.9619Z" fill="white" stroke="white" stroke-width="0.199309" stroke-miterlimit="10"/>
<path d="M75.935 14.7195H75.0175V8.76709H73.0376V7.93652H77.9149V8.76709H75.935V14.7195Z" fill="white" stroke="white" stroke-width="0.199309" stroke-miterlimit="10"/>
<path d="M87.1624 13.8427C86.4622 14.5348 85.593 14.8809 84.5548 14.8809C83.5166 14.8809 82.6474 14.5348 81.9472 13.8427C81.247 13.1505 80.9089 12.3199 80.9089 11.3279C80.9089 10.3358 81.247 9.48218 81.9472 8.81311C82.6474 8.12097 83.5166 7.7749 84.5548 7.7749C85.593 7.7749 86.4622 8.12097 87.1624 8.81311C87.8626 9.50525 88.2248 10.3358 88.2248 11.3279C88.2007 12.3199 87.8626 13.1505 87.1624 13.8427ZM82.6232 13.2659C83.1544 13.7734 83.7822 14.0272 84.5548 14.0272C85.3033 14.0272 85.9552 13.7734 86.4864 13.2659C87.0176 12.7583 87.2832 12.1123 87.2832 11.3048C87.2832 10.4973 87.0176 9.85132 86.4864 9.34375C85.9552 8.83618 85.3274 8.5824 84.5548 8.5824C83.7822 8.5824 83.1544 8.83618 82.6232 9.34375C82.092 9.85132 81.8264 10.4973 81.8264 11.3048C81.8264 12.1123 82.092 12.7583 82.6232 13.2659Z" fill="white" stroke="white" stroke-width="0.199309" stroke-miterlimit="10"/>
<path d="M89.4807 14.7195V7.93652H90.5914L94.0441 13.2199H94.0924L94.0441 11.9048V7.93652H94.9616V14.7195H94.0199L90.3982 9.18238H90.3499L90.3982 10.4974V14.7195H89.4807Z" fill="white" stroke="white" stroke-width="0.199309" stroke-miterlimit="10"/>
<path d="M80.6678 24.6171C77.8912 24.6171 75.6215 26.6473 75.6215 29.439C75.6215 32.2075 77.8912 34.2609 80.6678 34.2609C83.4445 34.2609 85.7382 32.2075 85.7382 29.439C85.7382 26.6473 83.4686 24.6171 80.6678 24.6171ZM80.6678 32.3459C79.1467 32.3459 77.8187 31.1462 77.8187 29.439C77.8187 27.7086 79.1225 26.532 80.6678 26.532C82.2131 26.532 83.5169 27.7086 83.5169 29.439C83.5169 31.1462 82.1889 32.3459 80.6678 32.3459ZM69.6578 24.6171C66.8811 24.6171 64.6115 26.6473 64.6115 29.439C64.6115 32.2075 66.8811 34.2609 69.6578 34.2609C72.4344 34.2609 74.704 32.2075 74.704 29.439C74.704 26.6473 72.4344 24.6171 69.6578 24.6171ZM69.6578 32.3459C68.1366 32.3459 66.8087 31.1462 66.8087 29.439C66.8087 27.7086 68.1366 26.532 69.6578 26.532C71.1789 26.532 72.5069 27.7086 72.5069 29.439C72.4827 31.1462 71.1789 32.3459 69.6578 32.3459ZM56.523 26.0936V28.147H61.6417C61.4968 29.3005 61.0864 30.1311 60.4827 30.7079C59.7342 31.4231 58.5753 32.2075 56.523 32.2075C53.3842 32.2075 50.9214 29.785 50.9214 26.7858C50.9214 23.7865 53.3842 21.364 56.523 21.364C58.2131 21.364 59.4687 22.01 60.3862 22.8175L61.8831 21.3871C60.6035 20.2104 58.9133 19.3337 56.523 19.3337C52.2011 19.3337 48.5793 22.6791 48.5793 26.8088C48.5793 30.9386 52.2011 34.2839 56.523 34.2839C58.865 34.2839 60.6035 33.5456 61.9797 32.1844C63.3801 30.8463 63.8389 28.9314 63.8389 27.4087C63.8389 26.9242 63.7906 26.4858 63.7181 26.1398C63.7181 26.0936 56.523 26.0936 56.523 26.0936ZM110.173 27.6855C109.762 26.6012 108.483 24.6171 105.851 24.6171C103.267 24.6171 101.094 26.5781 101.094 29.439C101.094 32.1383 103.219 34.2609 106.092 34.2609C108.41 34.2609 109.738 32.9227 110.293 32.1383L108.579 31.0539C108 31.8614 107.227 32.3921 106.092 32.3921C104.982 32.3921 104.161 31.9076 103.654 30.9386L110.39 28.2854C110.414 28.2162 110.173 27.6855 110.173 27.6855ZM103.316 29.2775C103.267 27.4318 104.813 26.4628 105.947 26.4628C106.817 26.4628 107.565 26.878 107.831 27.4779C107.807 27.501 103.316 29.2775 103.316 29.2775ZM97.8348 33.9609H100.056V19.8182H97.8348V33.9609ZM94.213 25.6783H94.1406C93.6336 25.1246 92.6919 24.6171 91.4847 24.6171C88.9736 24.6171 86.6557 26.7396 86.6557 29.439C86.6557 32.1383 88.9736 34.2378 91.4847 34.2378C92.6919 34.2378 93.6336 33.7302 94.1406 33.1534H94.213V33.8456C94.213 35.6913 93.1748 36.6833 91.533 36.6833C90.1809 36.6833 89.3358 35.7605 88.9978 34.9761L87.0662 35.7374C87.6215 37.0063 89.0943 38.5752 91.533 38.5752C94.1406 38.5752 96.3136 37.1217 96.3136 33.5687V24.917H94.213V25.6783ZM91.6778 32.3459C90.1567 32.3459 88.877 31.1232 88.877 29.439C88.877 27.7317 90.1567 26.5089 91.6778 26.5089C93.1748 26.5089 94.3579 27.7548 94.3579 29.439C94.3579 31.1232 93.1748 32.3459 91.6778 32.3459ZM120.555 19.7952H115.267V33.9379H117.465V28.5853H120.555C123.018 28.5853 125.408 26.878 125.408 24.2018C125.408 21.5024 122.994 19.7952 120.555 19.7952ZM120.603 26.6243H117.465V21.7793H120.603C122.245 21.7793 123.187 23.0943 123.187 24.2018C123.187 25.2861 122.245 26.6243 120.603 26.6243ZM134.269 24.594C132.676 24.594 131.01 25.2631 130.334 26.7627L132.289 27.5471C132.7 26.7627 133.497 26.5089 134.318 26.5089C135.452 26.5089 136.635 27.178 136.635 28.3315V28.47C136.225 28.2392 135.38 27.9163 134.318 27.9163C132.217 27.9163 130.044 29.0237 130.044 31.1001C130.044 32.9919 131.782 34.2147 133.714 34.2147C135.211 34.2147 136.032 33.5687 136.539 32.8304H136.611V33.9148H138.736V28.493C138.76 26.0013 136.805 24.594 134.269 24.594ZM134.004 32.3459C133.279 32.3459 132.265 31.9999 132.265 31.1462C132.265 30.0619 133.521 29.6235 134.607 29.6235C135.573 29.6235 136.032 29.8312 136.635 30.108C136.442 31.4231 135.283 32.3459 134.004 32.3459ZM146.535 24.8939L144 31.0309H143.927L141.295 24.8939H138.905L142.841 33.4534L140.595 38.2291H142.913L148.998 24.8939H146.535ZM126.615 33.9609H128.837V19.8182H126.615V33.9609Z" fill="white"/>
<path d="M12.3378 8.53636C11.9998 8.88243 11.7825 9.43614 11.7825 10.1283V35.1606C11.7825 35.8528 11.9756 36.4065 12.3378 36.7526L12.4344 36.8218L27.1144 22.7944V22.4714L12.4344 8.44408L12.3378 8.53636Z" fill="url(#paint0_linear_619_42)"/>
<path d="M31.992 27.478L27.1147 22.7946V22.4716L32.0161 17.7881L32.1369 17.8573L37.9316 21.0181C39.5735 21.9178 39.5735 23.3944 37.9316 24.2942L32.1369 27.4319C32.1127 27.4088 31.992 27.478 31.992 27.478Z" fill="url(#paint1_linear_619_42)"/>
<path d="M32.1123 27.4088L27.1143 22.6331L12.3618 36.7296C12.9171 37.2834 13.8105 37.3526 14.8246 36.7989L32.1123 27.4088Z" fill="url(#paint2_linear_619_42)"/>
<path d="M32.1123 17.8573L14.8004 8.46728C13.7863 7.91357 12.893 7.98278 12.3376 8.53649L27.0901 22.6331L32.1123 17.8573Z" fill="url(#paint3_linear_619_42)"/>
<defs>
<linearGradient id="paint0_linear_619_42" x1="25.7981" y1="35.4113" x2="2.31846" y2="10.549" gradientUnits="userSpaceOnUse">
<stop stop-color="#00A0FF"/>
<stop offset="0.0066" stop-color="#00A1FF"/>
<stop offset="0.2601" stop-color="#00BEFF"/>
<stop offset="0.5122" stop-color="#00D2FF"/>
<stop offset="0.7604" stop-color="#00DFFF"/>
<stop offset="1" stop-color="#00E3FF"/>
</linearGradient>
<linearGradient id="paint1_linear_619_42" x1="40.0519" y1="22.6346" x2="4.1466" y2="22.6346" gradientUnits="userSpaceOnUse">
<stop stop-color="#FFE000"/>
<stop offset="0.4087" stop-color="#FFBD00"/>
<stop offset="0.7754" stop-color="#FFA500"/>
<stop offset="1" stop-color="#FF9C00"/>
</linearGradient>
<linearGradient id="paint2_linear_619_42" x1="19.5021" y1="29.4788" x2="-12.3382" y2="-4.23654" gradientUnits="userSpaceOnUse">
<stop stop-color="#FF3A44"/>
<stop offset="1" stop-color="#C31162"/>
</linearGradient>
<linearGradient id="paint3_linear_619_42" x1="-1.25524" y1="35.6267" x2="12.9629" y2="20.5714" gradientUnits="userSpaceOnUse">
<stop stop-color="#32A071"/>
<stop offset="0.0685" stop-color="#2DA771"/>
<stop offset="0.4762" stop-color="#15CF74"/>
<stop offset="0.8009" stop-color="#06E775"/>
<stop offset="1" stop-color="#00F076"/>
</linearGradient>
</defs>
</svg>
