<svg width="50" height="50" viewBox="0 0 50 50" fill="none" xmlns="http://www.w3.org/2000/svg">
<g clip-path="url(#clip0_1320_3655)">
<path d="M23.6428 6.49055L10.8612 16.7948C9.22225 18.1037 10.1511 20.7198 12.2823 20.7198H37.7898C39.8653 20.7198 40.7941 18.1005 39.21 16.7948L26.4284 6.49055C26.0341 6.17372 25.543 6.00098 25.0368 6.00098C24.5306 6.00098 24.0395 6.17372 23.6452 6.49055H23.6428Z" fill="#181F45"/>
<path d="M15.5045 36.7484C14.7674 36.7448 14.0615 36.451 13.5403 35.9308C13.0191 35.4106 12.7247 34.706 12.7212 33.9703V26.2814C12.7212 25.544 13.0147 24.8368 13.5371 24.3154C14.0595 23.7939 14.768 23.501 15.5068 23.501C16.2457 23.501 16.9542 23.7939 17.4766 24.3154C17.999 24.8368 18.2925 25.544 18.2925 26.2814V34.0227C18.2901 35.4951 17.0337 36.7484 15.5045 36.7484Z" fill="#455192"/>
<path d="M25.0057 36.7484C24.2687 36.7448 23.5628 36.451 23.0416 35.9308C22.5204 35.4106 22.226 34.706 22.2225 33.9703V26.2814C22.2225 25.544 22.516 24.8368 23.0384 24.3154C23.5608 23.7939 24.2693 23.501 25.0081 23.501C25.7469 23.501 26.4555 23.7939 26.9779 24.3154C27.5003 24.8368 27.7938 25.544 27.7938 26.2814V34.0227C27.7938 35.4951 26.5373 36.7484 25.0105 36.7484H25.0057Z" fill="#455192"/>
<path d="M34.5126 36.7484C33.7756 36.7448 33.0697 36.451 32.5485 35.9308C32.0273 35.4106 31.7329 34.706 31.7294 33.9703V26.2814C31.7294 25.544 32.0229 24.8368 32.5453 24.3154C33.0677 23.7939 33.7762 23.501 34.515 23.501C35.2538 23.501 35.9624 23.7939 36.4848 24.3154C37.0072 24.8368 37.3007 25.544 37.3007 26.2814V34.0227C37.2983 35.4951 36.0419 36.7484 34.5126 36.7484Z" fill="#455192"/>
<path d="M6.00001 41.7649C6.00252 41.1728 6.23923 40.6056 6.65862 40.1869C7.07801 39.7681 7.64614 39.5316 8.23935 39.5289H42.7607C43.3474 39.54 43.9063 39.7803 44.3173 40.1984C44.7283 40.6164 44.9586 41.1788 44.9586 41.7645C44.9586 42.3502 44.7283 42.9125 44.3173 43.3306C43.9063 43.7486 43.3474 43.989 42.7607 44H8.23935C7.94439 44.0032 7.65176 43.9476 7.37863 43.8364C7.10549 43.7252 6.85736 43.5607 6.64878 43.3525C6.4402 43.1443 6.27537 42.8966 6.16396 42.624C6.05256 42.3514 5.99681 42.0593 6.00001 41.7649Z" fill="#181F45"/>
</g>
<defs>
<clipPath id="clip0_1320_3655">
<rect width="39" height="38" fill="white" transform="translate(6 6)"/>
</clipPath>
</defs>
</svg>
