<svg width="161" height="46" viewBox="0 0 161 46" fill="none" xmlns="http://www.w3.org/2000/svg">
<path d="M159.665 40.4079C159.665 42.8298 157.641 44.8046 155.117 44.8046H6.45098C3.94591 44.8046 1.90332 42.8484 1.90332 40.4079V5.42128C1.90332 2.99941 3.94591 1.02466 6.45098 1.02466H155.117C157.622 1.02466 159.665 2.99941 159.665 5.42128V40.4079Z" fill="white"/>
<path d="M159.665 40.4079C159.665 42.8298 157.641 44.8046 155.117 44.8046H6.45098C3.94591 44.8046 1.90332 42.8484 1.90332 40.4079V5.42128C1.90332 2.99941 3.94591 1.02466 6.45098 1.02466H155.117C157.622 1.02466 159.665 2.99941 159.665 5.42128V40.4079Z" fill="#0A1045"/>
<path d="M36.5504 22.6723C36.5119 18.9836 39.6721 17.1765 39.8263 17.102C38.0342 14.587 35.2594 14.233 34.2766 14.2144C31.945 13.9722 29.6904 15.5557 28.4957 15.5557C27.2817 15.5557 25.4511 14.233 23.4855 14.2703C20.9419 14.3076 18.5718 15.7234 17.2807 17.9404C14.6022 22.4301 16.6062 29.0437 19.1691 32.6765C20.4602 34.4649 21.9632 36.4397 23.9287 36.3652C25.8557 36.2907 26.5687 35.1729 28.9003 35.1729C31.1934 35.1729 31.8872 36.3652 33.8912 36.3093C35.9531 36.272 37.2634 34.5208 38.4967 32.7324C39.9805 30.7017 40.5778 28.6897 40.5971 28.5779C40.5585 28.5593 36.589 27.0876 36.5504 22.6723Z" fill="white"/>
<path d="M32.7541 11.8113C33.7947 10.5631 34.5077 8.84919 34.2957 7.13525C32.7927 7.19114 30.9235 8.14126 29.8444 9.37082C28.8809 10.4513 28.033 12.2212 28.2643 13.8792C29.96 13.991 31.675 13.0409 32.7541 11.8113Z" fill="white"/>
<path d="M155.137 0H75.5139L106.712 45.8105H155.156C158.239 45.8105 160.763 43.3887 160.763 40.4079V5.42126C160.725 2.4405 158.22 0 155.137 0Z" fill="url(#paint0_linear_619_68)"/>
<path d="M64.4526 36.0861H61.7548L60.2903 31.6149H55.1453L53.7386 36.0861H51.1179L56.1859 20.8469H59.3268L64.4526 36.0861ZM59.8278 29.7333L58.4982 25.7465C58.3633 25.3367 58.0936 24.3866 57.7082 22.8776H57.6696C57.5155 23.5296 57.265 24.4797 56.9181 25.7465L55.6078 29.7333H59.8278Z" fill="white"/>
<path d="M77.4789 30.4599C77.4789 32.3229 76.9586 33.8133 75.8988 34.8938C74.9546 35.8626 73.7791 36.3469 72.3917 36.3469C70.8887 36.3469 69.8096 35.8253 69.1544 34.782V40.5573H66.63V28.7274C66.63 27.5537 66.5915 26.3428 66.5337 25.1132H68.7497L68.8846 26.8644H68.9231C69.771 25.5603 71.0428 24.8896 72.7578 24.8896C74.1067 24.8896 75.2243 25.3927 76.1108 26.4359C77.0164 27.4419 77.4789 28.7833 77.4789 30.4599ZM74.8968 30.5531C74.8968 29.4912 74.6463 28.597 74.1452 27.9077C73.6057 27.1811 72.8734 26.8271 71.9485 26.8271C71.3319 26.8271 70.7538 27.0321 70.2528 27.4233C69.7517 27.8331 69.4049 28.3548 69.2507 28.9882C69.1736 29.2863 69.1351 29.5285 69.1351 29.7334V31.5591C69.1351 32.3602 69.3856 33.0308 69.8866 33.5897C70.3876 34.1486 71.0621 34.4094 71.8714 34.4094C72.8156 34.4094 73.5671 34.0555 74.0874 33.3476C74.627 32.6396 74.8968 31.7081 74.8968 30.5531Z" fill="white"/>
<path d="M90.5439 30.4599C90.5439 32.3229 90.0236 33.8133 88.9637 34.8938C88.0195 35.8626 86.8441 36.3469 85.4566 36.3469C83.9536 36.3469 82.8745 35.8253 82.2193 34.782V40.5573H79.695V28.7274C79.695 27.5537 79.6564 26.3428 79.5986 25.1132H81.8147L81.9495 26.8644H81.9881C82.836 25.5603 84.1078 24.8896 85.8228 24.8896C87.1716 24.8896 88.2893 25.3927 89.1757 26.4359C90.1007 27.4419 90.5439 28.7833 90.5439 30.4599ZM87.981 30.5531C87.981 29.4912 87.7305 28.597 87.2295 27.9077C86.6899 27.1811 85.9577 26.8271 85.0327 26.8271C84.4161 26.8271 83.838 27.0321 83.337 27.4233C82.836 27.8331 82.5084 28.3548 82.3349 28.9882C82.2579 29.2863 82.2193 29.5285 82.2193 29.7334V31.5591C82.2193 32.3602 82.4698 33.0308 82.9708 33.5897C83.4719 34.13 84.1463 34.4094 84.9556 34.4094C85.8998 34.4094 86.6514 34.0555 87.1716 33.3476C87.7112 32.6396 87.981 31.7081 87.981 30.5531Z" fill="white"/>
<path d="M105.17 31.8199C105.17 33.1239 104.707 34.1672 103.763 34.9869C102.742 35.8811 101.296 36.3283 99.4658 36.3283C97.7701 36.3283 96.4019 36.0116 95.3806 35.3781L95.9587 33.3475C97.0571 33.9809 98.2903 34.2976 99.6007 34.2976C100.545 34.2976 101.296 34.0927 101.817 33.6828C102.337 33.273 102.607 32.7141 102.607 32.0248C102.607 31.41 102.395 30.8884 101.952 30.4599C101.508 30.0314 100.795 29.6402 99.7741 29.2862C97.0185 28.2988 95.6311 26.8271 95.6311 24.9269C95.6311 23.6787 96.1129 22.654 97.0956 21.8529C98.0784 21.0519 99.3695 20.6606 100.969 20.6606C102.395 20.6606 103.609 20.9028 104.553 21.3872L103.917 23.3806C103.031 22.9148 102.009 22.6727 100.892 22.6727C100.005 22.6727 99.2924 22.8776 98.8106 23.3061C98.3867 23.6787 98.1747 24.1444 98.1747 24.6847C98.1747 25.2808 98.4252 25.7838 98.907 26.175C99.3309 26.529 100.082 26.9202 101.2 27.3487C102.549 27.8704 103.551 28.4851 104.187 29.1931C104.861 29.8824 105.17 30.758 105.17 31.8199Z" fill="white"/>
<path d="M113.552 26.9388H110.758V32.2669C110.758 33.6269 111.239 34.2975 112.222 34.2975C112.665 34.2975 113.051 34.2603 113.34 34.1858L113.417 36.0487C112.916 36.235 112.261 36.3282 111.451 36.3282C110.449 36.3282 109.679 36.0301 109.12 35.4526C108.561 34.8564 108.272 33.8691 108.272 32.4905V26.9388H106.615V25.1131H108.272V23.1011L110.758 22.3745V25.1131H113.552C113.552 25.0945 113.552 26.9388 113.552 26.9388Z" fill="white"/>
<path d="M126.096 30.5158C126.096 32.2111 125.595 33.5897 124.593 34.6703C123.553 35.788 122.165 36.3469 120.431 36.3469C118.755 36.3469 117.425 35.8067 116.442 34.7448C115.46 33.6829 114.958 32.3229 114.958 30.7021C114.958 29.0068 115.479 27.6096 116.5 26.5104C117.521 25.4299 118.909 24.8896 120.624 24.8896C122.3 24.8896 123.63 25.4299 124.651 26.4918C125.595 27.5164 126.096 28.8578 126.096 30.5158ZM123.476 30.5717C123.476 29.5657 123.244 28.7087 122.801 27.9822C122.281 27.1066 121.51 26.6781 120.527 26.6781C119.506 26.6781 118.735 27.1066 118.215 27.9822C117.772 28.7087 117.541 29.5843 117.541 30.6276C117.541 31.6336 117.772 32.5092 118.215 33.2171C118.755 34.0927 119.525 34.5212 120.508 34.5212C121.472 34.5212 122.223 34.0741 122.782 33.1985C123.225 32.4347 123.476 31.5777 123.476 30.5717Z" fill="white"/>
<path d="M134.305 27.2557C134.055 27.2184 133.785 27.1812 133.515 27.1812C132.629 27.1812 131.935 27.4979 131.453 28.1499C131.029 28.7275 130.817 29.454 130.817 30.3296V36.1048H128.293V28.5784C128.293 27.3116 128.274 26.1565 128.216 25.1133H130.413L130.509 27.2184H130.586C130.856 26.4919 131.28 25.9144 131.858 25.4672C132.417 25.076 133.034 24.8711 133.689 24.8711C133.92 24.8711 134.132 24.8897 134.325 24.9084L134.305 27.2557Z" fill="white"/>
<path d="M145.598 30.0685C145.598 30.497 145.559 30.8696 145.501 31.1677H137.928C137.948 32.2482 138.333 33.0865 139.027 33.6641C139.663 34.1671 140.491 34.4279 141.512 34.4279C142.63 34.4279 143.651 34.2602 144.576 33.9063L144.981 35.6016C143.902 36.0487 142.63 36.2722 141.166 36.2722C139.412 36.2722 138.025 35.7692 137.003 34.7632C136.001 33.7572 135.5 32.4159 135.5 30.7206C135.5 29.0625 135.963 27.6839 136.907 26.5848C137.89 25.4111 139.219 24.8149 140.877 24.8149C142.514 24.8149 143.748 25.4111 144.596 26.5848C145.27 27.5535 145.598 28.7086 145.598 30.0685ZM143.189 29.4351C143.208 28.7086 143.035 28.0938 142.707 27.5535C142.264 26.8642 141.589 26.5289 140.703 26.5289C139.874 26.5289 139.2 26.8642 138.699 27.5163C138.275 28.0379 138.025 28.6713 137.948 29.4165L143.189 29.4351Z" fill="white"/>
<path d="M58.614 15.3883H57.2843L56.5521 13.19H54.0278L53.334 15.3883H52.043L54.5288 7.89917H56.0703L58.614 15.3883ZM56.3594 12.2772L55.7042 10.321C55.6271 10.1161 55.5115 9.65036 55.3188 8.90517H55.2996C55.2225 9.22188 55.1069 9.68763 54.9334 10.321L54.2975 12.2772H56.3594Z" fill="white"/>
<path d="M64.8572 9.9856L62.7375 15.3882H61.5236L59.481 9.9856H60.8106L61.7741 12.8359C61.9282 13.3203 62.0631 13.7674 62.1787 14.1959H62.2173C62.3136 13.8047 62.4485 13.3576 62.6219 12.8359L63.5661 9.9856C63.5469 9.9856 64.8572 9.9856 64.8572 9.9856Z" fill="white"/>
<path d="M69.3665 15.3883L69.2701 14.7735H69.2316C68.8462 15.2765 68.3067 15.5187 67.5937 15.5187C66.5916 15.5187 65.8787 14.848 65.8787 13.9352C65.8787 12.5938 67.0734 11.9045 69.1352 11.9045V11.8114C69.1352 11.1034 68.7499 10.7495 67.9791 10.7495C67.4202 10.7495 66.9385 10.8799 66.5146 11.1593L66.2641 10.3769C66.7843 10.0602 67.4202 9.91113 68.191 9.91113C69.6555 9.91113 70.3878 10.6563 70.3878 12.1467V14.1401C70.3878 14.6803 70.4071 15.1088 70.4649 15.4255L69.3665 15.3883ZM69.1931 12.7056C67.8056 12.7056 67.1312 13.0223 67.1312 13.7861C67.1312 14.345 67.4973 14.6245 67.9791 14.6245C68.615 14.6245 69.1931 14.1587 69.1931 13.5253C69.1931 13.5439 69.1931 12.7056 69.1931 12.7056Z" fill="white"/>
<path d="M73.1627 9.09123C72.758 9.09123 72.4304 8.77452 72.4304 8.36467C72.4304 7.95481 72.758 7.65674 73.1819 7.65674C73.6059 7.65674 73.9527 7.95481 73.9335 8.36467C73.9527 8.81178 73.6251 9.09123 73.1627 9.09123ZM73.7986 15.3881H72.5653V9.98546H73.7986V15.3881Z" fill="white"/>
<path d="M77.2479 15.3882H76.0146V7.50781H77.2479V15.3882Z" fill="white"/>
<path d="M82.5276 15.3883L82.4313 14.7735H82.3927C82.0073 15.2765 81.4678 15.5187 80.7548 15.5187C79.7528 15.5187 79.0398 14.848 79.0398 13.9352C79.0398 12.5938 80.2345 11.9045 82.2964 11.9045V11.8114C82.2964 11.1034 81.911 10.7495 81.1402 10.7495C80.5814 10.7495 80.0996 10.8799 79.6757 11.1593L79.4252 10.3769C79.9455 10.0602 80.5814 9.91113 81.3522 9.91113C82.8167 9.91113 83.5489 10.6563 83.5489 12.1467V14.1401C83.5489 14.6803 83.5682 15.1088 83.626 15.4255H82.5276V15.3883ZM82.3542 12.7056C80.9668 12.7056 80.2923 13.0223 80.2923 13.7861C80.2923 14.345 80.6585 14.6245 81.1402 14.6245C81.7761 14.6245 82.3542 14.1587 82.3542 13.5253V12.7056Z" fill="white"/>
<path d="M88.5977 15.5188C87.8077 15.5188 87.2103 15.2021 86.8442 14.5687H86.8249L86.7478 15.407H85.688C85.7265 14.9785 85.7265 14.4755 85.7265 13.9539V7.52661H86.9791V10.7868H86.9983C87.3645 10.1907 87.9618 9.89259 88.7711 9.89259C90.12 9.89259 91.0642 11.0104 91.0642 12.6312C91.0642 14.2892 90.0237 15.5188 88.5977 15.5188ZM88.3472 10.8241C87.6342 10.8241 86.9791 11.4202 86.9791 12.2586V13.2087C86.9791 13.9539 87.5572 14.5687 88.3279 14.5687C89.2529 14.5687 89.8117 13.8421 89.8117 12.6684C89.8117 11.5693 89.2336 10.8241 88.3472 10.8241Z" fill="white"/>
<path d="M94.1473 15.3882H92.9141V7.50781H94.1473V15.3882Z" fill="white"/>
<path d="M100.911 12.9849H97.192C97.2113 14.0096 97.9243 14.5871 98.9456 14.5871C99.5044 14.5871 100.005 14.494 100.449 14.3263L100.641 15.1646C100.121 15.3882 99.4851 15.5 98.7722 15.5C97.0186 15.5 95.9973 14.4381 95.9973 12.78C95.9973 11.122 97.0572 9.87378 98.6373 9.87378C100.063 9.87378 100.969 10.8984 100.969 12.4447C100.95 12.6496 100.95 12.8359 100.911 12.9849ZM99.7742 12.128C99.7742 11.2896 99.331 10.7121 98.5409 10.7121C97.8279 10.7121 97.2691 11.3083 97.192 12.128H99.7742Z" fill="white"/>
<path d="M108.446 15.5185C106.808 15.5185 105.748 14.3448 105.748 12.7427C105.748 11.066 106.827 9.89233 108.542 9.89233C110.141 9.89233 111.24 11.0101 111.24 12.6682C111.22 14.3448 110.103 15.5185 108.446 15.5185ZM108.484 10.7493C107.578 10.7493 107.02 11.569 107.02 12.6868C107.02 13.8046 107.598 14.6057 108.484 14.6057C109.371 14.6057 109.949 13.7301 109.949 12.6682C109.929 11.5876 109.351 10.7493 108.484 10.7493Z" fill="white"/>
<path d="M117.888 15.3882H116.654V12.277C116.654 11.3269 116.269 10.8425 115.537 10.8425C114.805 10.8425 114.284 11.4573 114.284 12.1652V15.3882H113.051V11.5318C113.051 11.0475 113.032 10.5444 113.012 9.98556H114.111L114.169 10.8239H114.207C114.535 10.2464 115.228 9.87378 115.98 9.87378C117.155 9.87378 117.926 10.7494 117.926 12.1466L117.888 15.3882Z" fill="white"/>
<path d="M126.02 10.8985H124.652V13.5253C124.652 14.196 124.883 14.5313 125.384 14.5313C125.596 14.5313 125.788 14.5127 125.943 14.4754L125.981 15.3883C125.731 15.4814 125.422 15.5187 125.018 15.5187C124.035 15.5187 123.457 14.997 123.457 13.6371V10.9171H122.647V9.98563H123.457V8.99825L124.671 8.64429V9.98563H126.039V10.8985H126.02Z" fill="white"/>
<path d="M132.591 15.3882H131.338V12.3143C131.338 11.3455 130.953 10.8612 130.22 10.8612C129.585 10.8612 128.987 11.2897 128.987 12.1466V15.3882H127.735V7.50781H128.987V10.7494H129.006C129.392 10.1532 129.97 9.87379 130.683 9.87379C131.858 9.87379 132.591 10.768 132.591 12.1839V15.3882Z" fill="white"/>
<path d="M138.95 12.9849H135.211C135.231 14.0096 135.944 14.5871 136.965 14.5871C137.524 14.5871 138.025 14.494 138.468 14.3263L138.661 15.1646C138.14 15.3882 137.504 15.5 136.791 15.5C135.038 15.5 134.017 14.4381 134.017 12.78C134.017 11.122 135.076 9.87378 136.657 9.87378C138.083 9.87378 138.988 10.8984 138.988 12.4447C138.988 12.6496 138.969 12.8359 138.95 12.9849ZM137.813 12.128C137.813 11.2896 137.37 10.7121 136.579 10.7121C135.866 10.7121 135.308 11.3083 135.231 12.128H137.813Z" fill="white"/>
<defs>
<linearGradient id="paint0_linear_619_68" x1="118.114" y1="45.938" x2="118.114" y2="4.64544" gradientUnits="userSpaceOnUse">
<stop stop-color="#1A1A1A" stop-opacity="0.1"/>
<stop offset="0.1235" stop-color="#212121" stop-opacity="0.1506"/>
<stop offset="0.3085" stop-color="#353535" stop-opacity="0.2265"/>
<stop offset="0.5321" stop-color="#575757" stop-opacity="0.3181"/>
<stop offset="0.7834" stop-color="#858585" stop-opacity="0.4212"/>
<stop offset="1" stop-color="#B3B3B3" stop-opacity="0.51"/>
</linearGradient>
</defs>
</svg>
