<svg width="80" height="198" viewBox="0 0 80 198" fill="none" xmlns="http://www.w3.org/2000/svg">
<path d="M33.3278 14.204C54.9322 41.7254 75.5919 102.039 79.3211 148.89C81.2106 172.061 78.6499 187.599 72.9691 194.075C72.7205 194.349 72.4594 194.622 72.1984 194.871L71.9995 195.057C71.4399 195.505 70.8547 195.921 70.2468 196.3L69.6128 196.636L69.3891 196.736L69.1529 196.835C68.3585 197.154 67.5203 197.351 66.6667 197.419H65.4237H65.0135H64.6281H64.3546C60.2152 196.711 55.3922 193.441 50.0718 187.475C49.1395 186.418 48.1824 185.262 47.2128 184.031C25.7824 156.597 5.3464 97.0915 1.26915 50.4518C1.19456 49.6562 1.18214 49.4449 1.15728 49.2087C1.13242 48.9725 1.15728 48.7488 1.15728 48.525C1.15728 48.3013 1.15728 47.9656 1.15728 47.7543C-1.25427 16.889 4.53841 -0.0415022 15.1169 0.642183L15.9497 0.729197C20.8723 1.46261 26.7768 5.83819 33.3278 14.204ZM59.9915 103.108L58.823 88.7505L14.6694 32.4273L14.8807 35.0005L16.1983 51.3219L43.1355 85.6678L19.5173 92.3927L19.5919 93.2007L20.6982 106.775L63.6958 161.607L64.8519 163.086L63.3105 144.191L36.3484 109.758L58.9846 103.394L59.9915 103.108Z" fill="#29AC6A"/>
</svg>
