<svg width="174" height="160" viewBox="0 0 174 160" fill="none" xmlns="http://www.w3.org/2000/svg">
<g opacity="0.3">
<g clip-path="url(#clip0_909_90)">
<path d="M0.590134 131.04L81.4301 131.04L82.1401 129.6L0.380142 129.6C0.440142 130.08 0.510134 130.56 0.590134 131.04Z" fill="url(#paint0_linear_909_90)"/>
<path d="M34.9901 145.44L74.2701 145.44C74.5401 144.96 74.8101 144.44 75.0701 144L5.01006 144C5.27006 144.487 5.54008 144.967 5.82008 145.44L34.9901 145.44Z" fill="url(#paint1_linear_909_90)"/>
<path d="M34.9902 159.84L61.6602 159.84C62.3702 159.39 63.0502 158.91 63.6602 158.4L18.2502 158.4C19.0402 158.91 19.8301 159.4 20.6501 159.84L34.9902 159.84Z" fill="url(#paint2_linear_909_90)"/>
<path d="M34.9902 138.24L77.9902 138.24L78.6802 136.84L1.96018 136.84C2.11018 137.32 2.28017 137.84 2.45017 138.28L34.9902 138.24Z" fill="url(#paint3_linear_909_90)"/>
<path d="M34.9901 152.64L69.5001 152.64C69.8701 152.17 70.2401 151.64 70.5901 151.2L9.98008 151.2C10.4101 151.69 10.8501 152.2 11.3101 152.64L34.9901 152.64Z" fill="url(#paint4_linear_909_90)"/>
<path d="M34.99 87.8401L160.34 87.8401C160.82 87.3734 161.29 86.8934 161.75 86.4001L22.75 86.4001C21.85 86.8601 20.96 87.3301 20.08 87.8401L34.99 87.8401Z" fill="url(#paint5_linear_909_90)"/>
<path d="M34.9901 102.24L119.99 102.24C122.76 101.73 125.55 101.24 128.36 100.8L6.46011 100.8C6.17011 101.27 5.8901 101.74 5.6201 102.24L34.9901 102.24Z" fill="url(#paint6_linear_909_90)"/>
<path d="M34.99 116.64L90.2 116.64C90.63 116.14 91.07 115.64 91.51 115.2L0.860008 115.2C0.770008 115.68 0.680014 116.2 0.600014 116.64L34.99 116.64Z" fill="url(#paint7_linear_909_90)"/>
<path d="M34.9901 95.04L149.86 95.04C150.807 94.5934 151.727 94.1134 152.62 93.6L12.2201 93.6C11.7401 94.06 11.2201 94.54 10.7901 95.04L34.9901 95.04Z" fill="url(#paint8_linear_909_90)"/>
<path d="M34.9902 109.44L98.6502 109.44C99.4802 108.93 100.32 108.44 101.18 108L2.95017 108C2.77017 108.48 2.59018 109 2.43018 109.44L34.9902 109.44Z" fill="url(#paint9_linear_909_90)"/>
<path d="M34.9901 123.84L85.2001 123.84C85.4901 123.35 85.7701 122.84 86.0601 122.4L0.0600587 122.4C0.0600587 122.88 0.0600586 123.36 0.0600586 123.84L34.9901 123.84Z" fill="url(#paint10_linear_909_90)"/>
<path d="M106.99 59.04L173.58 59.04C173.63 58.56 173.67 58.04 173.71 57.6L65.2802 57.6C65.1002 58.09 64.9002 58.6 64.7102 59.04L106.99 59.04Z" fill="url(#paint11_linear_909_90)"/>
<path d="M107.49 73.4402L170.02 73.4402C170.21 72.9602 170.4 72.4402 170.58 72.0002L54.7801 72.0002C54.1201 72.5002 53.4401 73.0002 52.7801 73.4402L107.49 73.4402Z" fill="url(#paint12_linear_909_90)"/>
<path d="M107.49 80.6401L166.26 80.6401C166.56 80.1701 166.86 79.6401 167.15 79.2001L40.7601 79.2001C39.4701 79.6901 38.1702 80.2001 36.8602 80.6401L107.49 80.6401Z" fill="url(#paint13_linear_909_90)"/>
<path d="M106.99 15.8401L160.57 15.8401C160.15 15.3501 159.71 14.8401 159.27 14.4001L84.0601 14.4001C83.6401 14.8701 83.2401 15.3501 82.8501 15.8401L106.99 15.8401Z" fill="url(#paint14_linear_909_90)"/>
<path d="M106.99 30.24L169.34 30.24C169.14 29.76 168.94 29.24 168.73 28.8L75.1701 28.8C74.9601 29.28 74.7501 29.8 74.5501 30.24L106.99 30.24Z" fill="url(#paint15_linear_909_90)"/>
<path d="M106.99 8.64013L152.74 8.64014C152.05 8.14014 151.36 7.64013 150.65 7.20013L92.1602 7.20013C91.4702 7.67013 90.8102 8.15013 90.1602 8.64013L106.99 8.64013Z" fill="url(#paint16_linear_909_90)"/>
<path d="M106.99 23.04L165.74 23.04C165.45 22.55 165.16 22.04 164.85 21.6L78.8602 21.6C78.5702 22.07 78.3002 22.6 78.0302 23.04L106.99 23.04Z" fill="url(#paint17_linear_909_90)"/>
<path d="M106.99 37.4402L171.79 37.4402C171.66 36.9602 171.52 36.4402 171.38 36.0002L72.3 36.0002C72.12 36.4802 71.95 37.0002 71.78 37.4402L106.99 37.4402Z" fill="url(#paint18_linear_909_90)"/>
<path d="M107.49 44.6401L173.27 44.6401C173.2 44.1601 173.12 43.6401 173.04 43.2001L69.86 43.2001C69.7 43.6801 69.55 44.2001 69.4 44.6401L107.49 44.6401Z" fill="url(#paint19_linear_909_90)"/>
<path d="M107.49 51.8401L173.86 51.8401C173.86 51.3601 173.86 50.8401 173.81 50.4001L67.6201 50.4001L67.1701 51.8401L107.49 51.8401Z" fill="url(#paint20_linear_909_90)"/>
<path d="M106.99 64.84L61.6202 64.84C61.2902 65.34 60.9502 65.84 60.6202 66.28L172.34 66.28C172.46 65.8 172.57 65.32 172.67 64.84L106.99 64.84Z" fill="url(#paint21_linear_909_90)"/>
<path d="M103.86 1.44018L138.79 1.44019C137.15 0.890185 135.49 0.440183 133.79 0.000182668L108.96 0.000180498C107.237 0.393987 105.535 0.874602 103.86 1.44018Z" fill="url(#paint22_linear_909_90)"/>
</g>
</g>
<defs>
<linearGradient id="paint0_linear_909_90" x1="82.1401" y1="130.32" x2="0.380142" y2="130.32" gradientUnits="userSpaceOnUse">
<stop stop-color="#FDFAF9" stop-opacity="0"/>
<stop offset="1" stop-color="#2CB470"/>
</linearGradient>
<linearGradient id="paint1_linear_909_90" x1="75.0701" y1="144.72" x2="5.01006" y2="144.72" gradientUnits="userSpaceOnUse">
<stop stop-color="#FDFAF9" stop-opacity="0"/>
<stop offset="1" stop-color="#2CB470"/>
</linearGradient>
<linearGradient id="paint2_linear_909_90" x1="63.7102" y1="159.12" x2="18.3002" y2="159.12" gradientUnits="userSpaceOnUse">
<stop stop-color="#FDFAF9" stop-opacity="0"/>
<stop offset="1" stop-color="#2CB470"/>
</linearGradient>
<linearGradient id="paint3_linear_909_90" x1="78.6802" y1="137.52" x2="1.96018" y2="137.52" gradientUnits="userSpaceOnUse">
<stop stop-color="#FDFAF9" stop-opacity="0"/>
<stop offset="1" stop-color="#2CB470"/>
</linearGradient>
<linearGradient id="paint4_linear_909_90" x1="70.5901" y1="151.92" x2="9.98008" y2="151.92" gradientUnits="userSpaceOnUse">
<stop stop-color="#FDFAF9" stop-opacity="0"/>
<stop offset="1" stop-color="#2CB470"/>
</linearGradient>
<linearGradient id="paint5_linear_909_90" x1="161.75" y1="87.1201" x2="20.1" y2="87.1201" gradientUnits="userSpaceOnUse">
<stop stop-color="#FDFAF9" stop-opacity="0"/>
<stop offset="1" stop-color="#2CB470"/>
</linearGradient>
<linearGradient id="paint6_linear_909_90" x1="128.36" y1="101.52" x2="5.6201" y2="101.52" gradientUnits="userSpaceOnUse">
<stop stop-color="#FDFAF9" stop-opacity="0"/>
<stop offset="1" stop-color="#2CB470"/>
</linearGradient>
<linearGradient id="paint7_linear_909_90" x1="91.51" y1="115.92" x2="0.610016" y2="115.92" gradientUnits="userSpaceOnUse">
<stop stop-color="#FDFAF9" stop-opacity="0"/>
<stop offset="1" stop-color="#2CB470"/>
</linearGradient>
<linearGradient id="paint8_linear_909_90" x1="152.65" y1="94.32" x2="10.8201" y2="94.32" gradientUnits="userSpaceOnUse">
<stop stop-color="#FDFAF9" stop-opacity="0"/>
<stop offset="1" stop-color="#2CB470"/>
</linearGradient>
<linearGradient id="paint9_linear_909_90" x1="101.18" y1="108.72" x2="2.43018" y2="108.72" gradientUnits="userSpaceOnUse">
<stop stop-color="#FDFAF9" stop-opacity="0"/>
<stop offset="1" stop-color="#2CB470"/>
</linearGradient>
<linearGradient id="paint10_linear_909_90" x1="86.0601" y1="123.12" x2="5.80089e-05" y2="123.12" gradientUnits="userSpaceOnUse">
<stop stop-color="#FDFAF9" stop-opacity="0"/>
<stop offset="1" stop-color="#2CB470"/>
</linearGradient>
<linearGradient id="paint11_linear_909_90" x1="173.71" y1="58.32" x2="64.7102" y2="58.32" gradientUnits="userSpaceOnUse">
<stop stop-color="#FDFAF9" stop-opacity="0"/>
<stop offset="1" stop-color="#2CB470"/>
</linearGradient>
<linearGradient id="paint12_linear_909_90" x1="170.58" y1="72.7202" x2="52.7501" y2="72.7202" gradientUnits="userSpaceOnUse">
<stop stop-color="#FDFAF9" stop-opacity="0"/>
<stop offset="1" stop-color="#2CB470"/>
</linearGradient>
<linearGradient id="paint13_linear_909_90" x1="167.15" y1="79.9201" x2="36.8602" y2="79.9201" gradientUnits="userSpaceOnUse">
<stop stop-color="#FDFAF9" stop-opacity="0"/>
<stop offset="1" stop-color="#2CB470"/>
</linearGradient>
<linearGradient id="paint14_linear_909_90" x1="160.57" y1="15.1201" x2="82.8501" y2="15.1201" gradientUnits="userSpaceOnUse">
<stop stop-color="#FDFAF9" stop-opacity="0"/>
<stop offset="1" stop-color="#2CB470"/>
</linearGradient>
<linearGradient id="paint15_linear_909_90" x1="169.34" y1="29.52" x2="74.5501" y2="29.52" gradientUnits="userSpaceOnUse">
<stop stop-color="#FDFAF9" stop-opacity="0"/>
<stop offset="1" stop-color="#2CB470"/>
</linearGradient>
<linearGradient id="paint16_linear_909_90" x1="152.74" y1="7.92013" x2="90.1702" y2="7.92013" gradientUnits="userSpaceOnUse">
<stop stop-color="#FDFAF9" stop-opacity="0"/>
<stop offset="1" stop-color="#2CB470"/>
</linearGradient>
<linearGradient id="paint17_linear_909_90" x1="165.74" y1="22.32" x2="78.0402" y2="22.32" gradientUnits="userSpaceOnUse">
<stop stop-color="#FDFAF9" stop-opacity="0"/>
<stop offset="1" stop-color="#2CB470"/>
</linearGradient>
<linearGradient id="paint18_linear_909_90" x1="171.79" y1="36.7202" x2="71.78" y2="36.7202" gradientUnits="userSpaceOnUse">
<stop stop-color="#FDFAF9" stop-opacity="0"/>
<stop offset="1" stop-color="#2CB470"/>
</linearGradient>
<linearGradient id="paint19_linear_909_90" x1="173.27" y1="43.9201" x2="69.41" y2="43.9201" gradientUnits="userSpaceOnUse">
<stop stop-color="#FDFAF9" stop-opacity="0"/>
<stop offset="1" stop-color="#2CB470"/>
</linearGradient>
<linearGradient id="paint20_linear_909_90" x1="173.86" y1="51.1201" x2="67.1701" y2="51.1201" gradientUnits="userSpaceOnUse">
<stop stop-color="#FDFAF9" stop-opacity="0"/>
<stop offset="1" stop-color="#2CB470"/>
</linearGradient>
<linearGradient id="paint21_linear_909_90" x1="172.67" y1="65.52" x2="60.5902" y2="65.52" gradientUnits="userSpaceOnUse">
<stop stop-color="#FDFAF9" stop-opacity="0"/>
<stop offset="1" stop-color="#2CB470"/>
</linearGradient>
<linearGradient id="paint22_linear_909_90" x1="138.79" y1="0.720184" x2="103.88" y2="0.720181" gradientUnits="userSpaceOnUse">
<stop stop-color="#FDFAF9" stop-opacity="0"/>
<stop offset="1" stop-color="#2CB470"/>
</linearGradient>
<clipPath id="clip0_909_90">
<rect width="173.86" height="159.84" fill="white" transform="translate(173.86 159.84) rotate(-180)"/>
</clipPath>
</defs>
</svg>
