<svg width="61" height="61" viewBox="0 0 61 61" fill="none" xmlns="http://www.w3.org/2000/svg">
<path d="M30.5 61C47.3447 61 61 47.3447 61 30.5C61 13.6553 47.3447 0 30.5 0C13.6553 0 0 13.6553 0 30.5C0 47.3447 13.6553 61 30.5 61Z" fill="#00AFEF"/>
<path d="M30.0914 45.9594C33.2193 45.9594 36.2769 45.0319 38.8777 43.2942C41.4784 41.5564 43.5054 39.0865 44.7024 36.1967C45.8994 33.307 46.2126 30.1271 45.6024 27.0593C44.9921 23.9915 43.4859 21.1736 41.2742 18.9619C39.0625 16.7501 36.2445 15.244 33.1767 14.6337C30.109 14.0235 26.9291 14.3366 24.0394 15.5336C21.1496 16.7306 18.6796 18.7577 16.9419 21.3584C15.2041 23.9592 14.2766 27.0168 14.2766 30.1446C14.2766 34.339 15.9428 38.3616 18.9087 41.3274C21.8745 44.2933 25.8971 45.9594 30.0914 45.9594Z" fill="white"/>
<path d="M30.0823 41.6149C32.3491 41.6149 34.565 40.9428 36.4498 39.6834C38.3346 38.424 39.8036 36.634 40.6711 34.5397C41.5386 32.4455 41.7655 30.141 41.3233 27.9178C40.8811 25.6945 39.7895 23.6523 38.1866 22.0494C36.5837 20.4465 34.5416 19.355 32.3183 18.9127C30.095 18.4705 27.7906 18.6975 25.6963 19.565C23.602 20.4324 21.812 21.9015 20.5527 23.7863C19.2933 25.671 18.6211 27.8869 18.6211 30.1537C18.6211 33.1934 19.8286 36.1087 21.978 38.258C24.1274 40.4074 27.0426 41.6149 30.0823 41.6149Z" fill="#00AFEF"/>
<path d="M30.08 37.2703C31.4876 37.2703 32.8635 36.853 34.0339 36.071C35.2042 35.289 36.1163 34.1775 36.655 32.8771C37.1936 31.5767 37.3346 30.1458 37.06 28.7653C36.7854 27.3848 36.1076 26.1167 35.1123 25.1214C34.117 24.1261 32.8489 23.4483 31.4684 23.1737C30.0879 22.8991 28.657 23.0401 27.3566 23.5787C26.0562 24.1174 24.9447 25.0296 24.1627 26.1999C23.3808 27.3702 22.9634 28.7461 22.9634 30.1537C22.9634 32.0411 23.7132 33.8513 25.0478 35.1859C26.3824 36.5205 28.1926 37.2703 30.08 37.2703Z" fill="white"/>
<path d="M30.0824 32.9281C30.6307 32.9281 31.1666 32.7655 31.6225 32.4609C32.0784 32.1563 32.4337 31.7233 32.6435 31.2167C32.8533 30.7102 32.9082 30.1528 32.8013 29.6151C32.6943 29.0774 32.4303 28.5834 32.0426 28.1957C31.6549 27.8081 31.161 27.544 30.6232 27.4371C30.0855 27.3301 29.5281 27.385 29.0216 27.5948C28.515 27.8046 28.0821 28.16 27.7775 28.6158C27.4729 29.0717 27.3103 29.6076 27.3103 30.1559C27.3103 30.8911 27.6024 31.5962 28.1222 32.1161C28.6421 32.636 29.3472 32.9281 30.0824 32.9281Z" fill="#D3D3E4"/>
<path d="M44.7338 11.752L41.2658 15.2199C41.192 15.2935 41.1347 15.3819 41.0977 15.4792C41.0607 15.5766 41.0448 15.6808 41.0512 15.7847L41.2522 18.9839L45.337 14.8991L45.1495 11.9101C45.1466 11.8633 45.1303 11.8182 45.1025 11.7804C45.0747 11.7425 45.0366 11.7136 44.9927 11.6969C44.9488 11.6802 44.901 11.6765 44.8551 11.6863C44.8092 11.696 44.767 11.7189 44.7338 11.752Z" fill="white"/>
<path d="M48.4863 15.5025L45.0183 18.9704C44.9447 19.0439 44.8562 19.1009 44.7588 19.1375C44.6614 19.1741 44.5573 19.1896 44.4535 19.1828L41.2544 18.9817L45.3391 14.897L48.3281 15.0845C48.3755 15.087 48.4211 15.1031 48.4594 15.131C48.4976 15.159 48.527 15.1974 48.5437 15.2418C48.5605 15.2861 48.564 15.3344 48.5538 15.3807C48.5436 15.427 48.5201 15.4693 48.4863 15.5025Z" fill="white"/>
<path d="M30.0802 30.662C29.9778 30.6621 29.8777 30.6318 29.7926 30.5749C29.7074 30.5181 29.6411 30.4373 29.6019 30.3427C29.5627 30.2481 29.5525 30.144 29.5725 30.0436C29.5924 29.9432 29.6418 29.851 29.7142 29.7787L46.9862 12.5088C47.0833 12.4118 47.215 12.3573 47.3522 12.3573C47.4895 12.3573 47.6212 12.4118 47.7182 12.5088C47.8153 12.6059 47.8698 12.7376 47.8698 12.8749C47.8698 13.0122 47.8153 13.1438 47.7182 13.2409L30.4462 30.5129C30.398 30.5607 30.3409 30.5984 30.2781 30.6239C30.2153 30.6495 30.148 30.6625 30.0802 30.662Z" fill="#BFBFBF"/>
</svg>
