<svg width="30" height="32" viewBox="0 0 30 32" fill="none" xmlns="http://www.w3.org/2000/svg">
<path d="M15 31.5C23.2843 31.5 30 24.5604 30 16C30 7.43959 23.2843 0.5 15 0.5C6.71573 0.5 0 7.43959 0 16C0 24.5604 6.71573 31.5 15 31.5Z" fill="#2CB470"/>
<path d="M23.7915 11.371H6.30084C6.06203 11.3546 5.82638 11.4336 5.64464 11.5912C5.46289 11.7487 5.34958 11.9721 5.3291 12.2133V20.6334C5.34958 20.8746 5.46289 21.098 5.64464 21.2556C5.82638 21.4131 6.06203 21.4922 6.30084 21.4757H23.7915C24.0303 21.4922 24.2659 21.4131 24.4477 21.2556C24.6294 21.098 24.7428 20.8746 24.7632 20.6334V12.2133C24.7428 11.9721 24.6294 11.7487 24.4477 11.5912C24.2659 11.4336 24.0303 11.3546 23.7915 11.371ZM6.78671 20.2093V18.5281C7.26417 18.4936 7.73584 18.6507 8.0996 18.9653C8.46335 19.28 8.6899 19.7269 8.73019 20.2093H6.78671ZM6.78671 14.3154V12.6341H8.73019C8.69055 13.117 8.46428 13.5646 8.10045 13.8798C7.73662 14.195 7.26458 14.3525 6.78671 14.318V14.3154ZM15.0465 18.9495C14.5496 18.9635 14.0599 18.8271 13.64 18.5581C13.2201 18.289 12.8892 17.8993 12.6894 17.439C12.4897 16.9786 12.4303 16.4685 12.5188 15.9738C12.6073 15.4791 12.8397 15.0223 13.1863 14.6619C13.5329 14.3016 13.9779 14.0539 14.4643 13.9507C14.9508 13.8475 15.4567 13.8934 15.9173 14.0825C16.3779 14.2716 16.7722 14.5954 17.0498 15.0124C17.3274 15.4294 17.4758 15.9206 17.4758 16.4234C17.4849 17.0842 17.234 17.7215 16.7785 18.1953C16.3229 18.669 15.6999 18.9403 15.0465 18.9495ZM23.3056 20.2093H21.3621C21.4018 19.7265 21.6281 19.2789 21.9919 18.9637C22.3557 18.6484 22.8278 18.491 23.3056 18.5254V20.2093ZM23.3056 14.3154C22.8278 14.3498 22.3557 14.1924 21.9919 13.8772C21.6281 13.5619 21.4018 13.1143 21.3621 12.6315H23.3056V14.3154Z" fill="white"/>
</svg>
