<svg width="156" height="27" viewBox="0 0 156 27" fill="none" xmlns="http://www.w3.org/2000/svg">
<path d="M16.04 15.7422L23.7 26.2222H16.02L6.78003 13.5766L16.02 0.921387H23.7L16.04 11.4014L14.45 13.5766L16.04 15.7422Z" fill="#2A3275"/>
<path d="M82.4099 15.7422L90.0799 26.2222H82.3899L73.1499 13.5766L82.3899 0.921387H90.0799L82.4099 11.4014L80.8299 13.5766L82.4099 15.7422Z" fill="#2A3275"/>
<path d="M32.8401 26.1739L24.0901 0.921387H31.0901L36.1001 16.7864L41.5501 4.60484H45.5501L51.0001 16.709L56.0001 0.921387H63.0001L54.1601 26.1739H49.3101L43.4201 12.6388L37.6901 26.1739H32.8401Z" fill="#2A3275"/>
<path d="M0 26.1739V0.921387H6.78V26.1739H0Z" fill="#2A3275"/>
<path d="M64.3 26.1739V0.921387H71.07V26.1739H64.3Z" fill="#2A3275"/>
<path d="M94.6799 15.7422L102.34 26.2222H94.6599L85.4199 13.5766L94.6599 0.921387H102.34L94.6799 11.4014L93.0999 13.5766L94.6799 15.7422Z" fill="#2A3275"/>
<path d="M116.57 26.6476C114.006 26.7059 111.469 26.1302 109.2 24.9751C107.148 23.9192 105.444 22.3282 104.28 20.3828C103.082 18.3461 102.474 16.0351 102.52 13.6927C102.468 11.2849 103.057 8.90468 104.23 6.78016C105.328 4.8289 106.952 3.2018 108.93 2.07191C111.023 0.896652 113.41 0.301262 115.83 0.351027C118.018 0.32224 120.171 0.87854 122.052 1.95849C123.933 3.03844 125.469 4.60003 126.49 6.47079C127.563 8.45722 128.084 10.6795 128 12.9193V14.9785H109.1C109.395 16.6948 110.361 18.2355 111.8 19.2807C113.389 20.3762 115.31 20.9305 117.26 20.8566C118.365 20.8731 119.463 20.6928 120.5 20.3248C121.645 19.8762 122.705 19.2491 123.64 18.4686L126.91 22.8675C125.468 24.0892 123.803 25.0401 122 25.6712C120.264 26.3057 118.426 26.6364 116.57 26.6476V26.6476ZM115.88 5.99706C112.153 5.99706 109.91 7.60837 109.15 10.831H121.51V10.6376C121.478 9.98962 121.306 9.35527 121.005 8.77569C120.703 8.1961 120.279 7.68422 119.76 7.27322C118.67 6.40552 117.291 5.95178 115.88 5.99706V5.99706Z" fill="#2A3275"/>
<path d="M144.18 26.6476C141.616 26.7059 139.079 26.1302 136.81 24.9751C134.758 23.9192 133.054 22.3282 131.89 20.3828C130.695 18.3453 130.091 16.0342 130.14 13.6927C130.09 11.2863 130.675 8.90723 131.84 6.78013C132.941 4.83117 134.564 3.20481 136.54 2.07188C138.634 0.898944 141.02 0.303725 143.44 0.351001C145.628 0.31892 147.783 0.873843 149.665 1.95415C151.546 3.03445 153.082 4.59786 154.1 6.47076C155.165 8.45863 155.669 10.683 155.56 12.9192L155.51 14.9785H136.72C137.02 16.6905 137.981 18.2284 139.41 19.2807C141.003 20.3763 142.927 20.9304 144.88 20.8565C145.984 20.8707 147.082 20.6905 148.12 20.3248C149.264 19.8761 150.325 19.2491 151.26 18.4686L154.52 22.8675C153.089 24.0817 151.438 25.029 149.65 25.6615C147.903 26.3047 146.05 26.6387 144.18 26.6476V26.6476ZM143.49 5.99704C139.757 5.99704 137.513 7.60835 136.76 10.831H149.13V10.6376C149.096 9.98897 148.922 9.35436 148.619 8.77482C148.316 8.19527 147.89 7.6837 147.37 7.27319C146.281 6.40391 144.901 5.94996 143.49 5.99704V5.99704Z" fill="#2A3275"/>
</svg>
