<svg width="30" height="32" viewBox="0 0 30 32" fill="none" xmlns="http://www.w3.org/2000/svg">
<path d="M15 31.5C23.2843 31.5 30 24.5604 30 16C30 7.43959 23.2843 0.5 15 0.5C6.71573 0.5 0 7.43959 0 16C0 24.5604 6.71573 31.5 15 31.5Z" fill="#3E4095"/>
<path d="M25.3553 13.8891C25.3871 13.5756 25.311 13.2606 25.1398 12.9972C24.9687 12.7337 24.7131 12.5378 24.4158 12.4424C24.1126 12.345 23.7856 12.3558 23.4894 12.4731C23.1932 12.5903 22.9459 12.8069 22.789 13.0865C22.759 13.1375 22.731 13.1885 22.7065 13.2402C22.6349 13.0088 22.5408 12.7852 22.4256 12.5726C22.1041 12.0057 21.6752 11.5083 21.1635 11.1087C19.5946 9.91866 17.7304 9.1905 15.7772 9.00487C15.0102 8.87111 14.2264 8.86948 13.459 9.00004C12.2362 9.11703 11.0543 9.50615 9.99807 10.1395C9.82682 10.239 9.63312 10.2924 9.43557 10.2945C8.8683 10.3027 8.29966 10.2504 7.73102 10.2717C7.37285 10.2827 7.01829 10.3475 6.67898 10.4639C6.58484 10.4881 6.4989 10.5374 6.43023 10.6068C6.36156 10.6762 6.3127 10.763 6.28881 10.8581C6.26493 10.9532 6.26691 11.0531 6.29454 11.1472C6.32217 11.2412 6.37443 11.326 6.4458 11.3925C6.64557 11.6502 6.86171 11.8954 7.07784 12.1552C6.72602 12.6642 6.42739 13.5591 5.79875 13.743C5.66648 13.7816 5.52603 13.8002 5.39307 13.8319C5.16579 13.8874 4.96548 14.0228 4.82804 14.2139C4.69061 14.405 4.62503 14.6393 4.64307 14.8749C4.73239 15.6327 4.81421 16.3904 4.92671 17.1413C4.96375 17.3831 5.05063 17.6142 5.18171 17.8199C5.27178 17.9416 5.39139 18.0377 5.52899 18.099C5.66658 18.1603 5.8175 18.1847 5.96716 18.1698C6.17793 18.1761 6.38537 18.2247 6.57735 18.3128C6.76933 18.4009 6.94202 18.5268 7.08534 18.6831C7.67894 19.1048 8.1864 19.6384 8.57989 20.2544C8.83966 20.8234 8.5533 22.173 9.45739 22.2522C10.0272 22.3698 10.6151 22.3653 11.1831 22.2391C11.9828 21.9532 12.0449 21.0549 12.2924 20.324C14.4872 20.5307 15.7635 20.6781 17.8492 20.7008C17.9242 20.9853 17.9965 21.2519 18.0647 21.5206C18.3442 22.6132 20.9965 22.7241 21.2938 21.6529C21.5113 20.8744 21.7028 20.0863 21.9756 19.3258C22.2966 18.6381 22.582 17.9341 22.8306 17.2164C22.9476 16.6272 22.9904 16.0254 22.9581 15.4253C23.2784 15.8788 23.6869 16.2613 24.1588 16.5496C24.234 16.5986 24.3183 16.632 24.4065 16.6477C24.4947 16.6634 24.5851 16.6612 24.6725 16.6412C24.7598 16.6211 24.8423 16.5837 24.9152 16.531C24.988 16.4783 25.0497 16.4115 25.0966 16.3344C25.1436 16.2573 25.1748 16.1715 25.1885 16.082C25.2022 15.9926 25.198 15.9013 25.1764 15.8135C25.1547 15.7257 25.1158 15.6431 25.0622 15.5707C25.0085 15.4982 24.941 15.4373 24.8638 15.3916C24.7721 15.3346 24.6836 15.2728 24.5985 15.2062C24.8149 15.0574 24.9953 14.8611 25.1263 14.6322C25.2573 14.4032 25.3356 14.1473 25.3553 13.8836V13.8891ZM9.24807 14.1929C9.06505 14.1904 8.88686 14.1332 8.73601 14.0285C8.58516 13.9237 8.46842 13.7762 8.40053 13.6044C8.33264 13.4327 8.31666 13.2445 8.3546 13.0636C8.39253 12.8826 8.48269 12.7171 8.61368 12.588C8.74466 12.4588 8.9106 12.3718 9.09053 12.3378C9.27046 12.3039 9.4563 12.3246 9.62458 12.3974C9.79287 12.4701 9.93603 12.5916 10.036 12.7465C10.136 12.9014 10.1883 13.0828 10.1863 13.2677C10.1788 13.5145 10.077 13.7488 9.9022 13.9213C9.72737 14.0939 9.49314 14.1912 9.24875 14.1929H9.24807ZM17.7708 12.3797C17.7463 12.461 17.7062 12.5366 17.6528 12.6022C17.5994 12.6678 17.5337 12.7222 17.4595 12.7621C17.3853 12.802 17.304 12.8268 17.2203 12.8349C17.1366 12.8431 17.0521 12.8345 16.9717 12.8096C15.5737 12.3465 14.0661 12.3453 12.6674 12.8061C12.506 12.8595 12.3302 12.8459 12.1788 12.7683C12.0273 12.6907 11.9126 12.5555 11.8598 12.3925C11.807 12.2294 11.8204 12.0518 11.8972 11.8988C11.974 11.7458 12.1078 11.6298 12.2692 11.5765C13.9191 11.0381 15.6947 11.0369 17.3453 11.573C17.5078 11.6233 17.6438 11.7366 17.7236 11.8881C17.8034 12.0396 17.8203 12.2169 17.7708 12.3811V12.3797Z" fill="white"/>
</svg>
