<svg width="904" height="480" viewBox="0 0 904 480" fill="none" xmlns="http://www.w3.org/2000/svg">
<g clip-path="url(#clip0_62_3786)">
<path d="M914 0V480H0V398.341L304.6 265.028L357.1 242.198L357.337 242.097L377.445 233.342L401.548 222.859L442.385 205.102L448.006 202.662L448.015 202.653L466.524 194.61L468.699 193.66L467.337 207.231L465.454 225.921L464.742 233.022L468.343 234.686L475.326 237.903L476.733 223.901L477.017 221.077L488.131 215.749L490.983 217.065V217.147L487.528 251.447L496.75 255.697L498.221 241.037L520.157 230.509L540.896 240.069L543.208 245.817L554.743 274.514L556.964 275.538L557.787 267.322L565.94 287.592L567.868 288.479L569.349 273.82L591.276 263.3L592.903 264.05L594.301 250.167L585.819 246.265L586.943 235.069V235.06L587.3 231.56L577.749 227.155L595.782 218.509L597.409 219.249L598.798 205.367L583.013 198.083L589 195.213L590.864 196.072L592.464 180.134L579.357 174.093L580.664 161.188L571.442 156.938L570.144 169.843L567.695 168.71L568.992 155.805L569.596 149.782L572.274 148.613H572.283L612.362 131.184L625.688 125.39L914 0Z" fill="#212A5C"/>
<path d="M393.76 259.224L647.798 412.105L594.228 431.389L348.015 279.331L393.76 259.224Z" fill="#242E66"/>
<path d="M393.76 259.224V307.58L348.015 279.331L393.76 259.224Z" fill="#2A3275"/>
<path d="M393.76 259.224V307.58L594.228 431.389L647.797 412.105L393.76 259.224Z" fill="#1E244C"/>
<path d="M490.983 217.065L489.081 217.979L476.733 223.901L469.056 227.584L468.05 227.118L465.455 225.921L446.553 217.211L467.337 207.231L468.48 206.683L488.131 215.749L490.983 217.065Z" fill="#232A61"/>
<path d="M490.983 217.065V217.147L487.528 251.447L465.601 261.966L468.343 234.686L469.056 227.584L476.733 223.901L489.081 217.979L490.983 217.065Z" fill="#21275B"/>
<path d="M449.926 183.616L471.853 173.087L468.48 206.683L446.544 217.211L449.926 183.616Z" fill="#21275B"/>
<path d="M516.703 264.891L494.776 275.419L465.601 261.966L487.528 251.447L496.75 255.697L516.703 264.891Z" fill="#232A61"/>
<path d="M451.05 172.42L472.977 161.901L495.489 172.274L473.553 182.793L451.05 172.42Z" fill="#232A61"/>
<path d="M473.553 182.793L495.489 172.274L494.364 183.469L472.428 193.989L473.553 182.793Z" fill="#21275B"/>
<path d="M454.423 138.806L476.359 128.287L472.977 161.901L451.05 172.42L454.423 138.806Z" fill="#21275B"/>
<path d="M565.94 287.592L544.013 298.112L526.254 253.951L543.209 245.817L548.181 243.432L557.787 267.322L565.94 287.592Z" fill="#293172"/>
<path d="M548.181 243.432L543.209 245.817L526.254 253.951L498.221 241.037L520.157 230.509L540.896 240.069L548.181 243.432Z" fill="#232A61"/>
<path d="M530.833 200.276L508.906 210.796L508.413 209.571L503.111 196.42L525.038 185.891L530.668 199.893L530.833 200.276Z" fill="#293172"/>
<path d="M502.728 196.246L524.654 185.718L525.038 185.9L503.111 196.42L502.728 196.246Z" fill="#232A61"/>
<path d="M587.83 297.682L565.894 308.201L544.013 298.112L565.94 287.592L567.868 288.479L587.83 297.682Z" fill="#232A61"/>
<path d="M480.371 114.953L502.307 104.434L498.861 138.66L476.934 149.188L480.371 114.953Z" fill="#21275B"/>
<path d="M566.607 205.056L566.516 206.007L565.483 216.252L562.796 217.54L543.547 226.78L544.68 215.585L566.607 205.056Z" fill="#21275B"/>
<path d="M566.607 205.056L544.68 215.585L537.277 212.176L559.222 201.647L566.607 205.056Z" fill="#232A61"/>
<path d="M544.68 215.585L543.547 226.78L543.062 226.542L537.277 212.176L544.68 215.585Z" fill="#191E45"/>
<path d="M612.855 273.244L590.928 283.772L569.349 273.82L591.276 263.3L592.903 264.05L612.855 273.244Z" fill="#232A61"/>
<path d="M573.425 137.216L572.283 148.613H572.274L571.442 156.938L570.144 169.843L569.98 171.451L548.053 181.971L551.489 147.744L573.425 137.216Z" fill="#21275B"/>
<path d="M617.352 228.462L595.425 238.972L586.943 235.069V235.06L573.846 229.028L577.749 227.155L595.782 218.509L597.409 219.249L617.352 228.462Z" fill="#232A61"/>
<path d="M537.432 64.5045L559.368 53.9761C561.196 54.823 563.024 55.7126 564.852 56.6448L542.916 67.164C541.088 66.244 539.26 65.3575 537.432 64.5045Z" fill="#21275B"/>
<path d="M542.916 67.164L564.852 56.6631C566.735 57.6257 568.603 58.6311 570.455 59.679L548.519 70.2074C546.691 69.1594 544.82 68.1511 542.907 67.1823" fill="#22285E"/>
<path d="M548.491 70.1891L570.427 59.6607C572.365 60.7574 574.285 61.8998 576.186 63.0879L554.25 73.6071C552.349 72.4251 550.429 71.2858 548.491 70.1891Z" fill="#222960"/>
<path d="M554.25 73.6071L576.186 63.0879C578.142 64.3034 580.079 65.5738 581.999 66.8807L560.063 77.409C558.143 76.093 556.215 74.8318 554.259 73.6071" fill="#232A62"/>
<path d="M560.054 77.409L581.99 66.8807C584 68.2576 585.99 69.6864 587.958 71.167L566.022 81.6862C564.06 80.2178 562.067 78.7921 560.044 77.409" fill="#242B65"/>
<path d="M566.031 81.6862L587.967 71.167C590.106 72.7694 592.217 74.4236 594.301 76.1296L572.365 86.6579C570.293 84.952 568.185 83.2947 566.04 81.6862" fill="#252C67"/>
<path d="M572.356 86.6579L594.292 76.1296C596.522 77.9574 598.719 79.8523 600.882 81.8142L578.946 92.3425C576.783 90.3867 574.583 88.4919 572.347 86.6579" fill="#262D69"/>
<path d="M578.955 92.3059L600.891 81.7776C603.298 83.9527 605.656 86.1918 607.965 88.4949L586.029 99.0233C583.726 96.708 581.371 94.4689 578.964 92.3059" fill="#272E6C"/>
<path d="M586.02 99.0598L607.956 88.5314C610.717 91.2915 613.41 94.1429 616.036 97.0857L594.1 107.614C591.474 104.671 588.781 101.82 586.02 99.0598Z" fill="#272F6E"/>
<path d="M594.1 107.614L616.036 97.0858C619.546 101.028 622.928 105.119 626.181 109.36L604.245 119.879C600.998 115.651 597.616 111.562 594.1 107.614Z" fill="#283070"/>
<path d="M604.245 119.879L626.181 109.36C637.026 123.521 646.197 138.888 653.51 155.156L631.574 165.675C624.273 149.411 615.118 134.043 604.291 119.879" fill="#293173"/>
<path d="M631.574 165.675L653.51 155.156C655.582 159.781 657.51 164.472 659.296 169.231L637.36 179.75C635.587 174.997 633.658 170.306 631.574 165.675Z" fill="#283070"/>
<path d="M637.314 179.75L659.25 169.231C660.597 172.844 661.852 176.481 663.016 180.143L641.08 190.662C639.922 187.006 638.667 183.369 637.314 179.75Z" fill="#272F6E"/>
<path d="M641.08 190.662L663.016 180.143C664.021 183.311 664.956 186.501 665.822 189.712L643.886 200.24C643.026 197.035 642.091 193.842 641.08 190.662Z" fill="#272E6C"/>
<path d="M643.886 200.24L665.822 189.712C666.608 192.642 667.333 195.582 667.997 198.531L646.061 209.05C645.403 206.107 644.678 203.171 643.886 200.24Z" fill="#262D69"/>
<path d="M646.061 209.05L667.997 198.531C668.606 201.187 669.152 203.853 669.633 206.528L647.697 217.047C647.204 214.378 646.664 211.71 646.061 209.05Z" fill="#252C67"/>
<path d="M647.697 217.047L669.633 206.528C670.108 209.081 670.532 211.633 670.904 214.186L648.968 224.706C648.593 222.156 648.172 219.597 647.697 217.047Z" fill="#242B65"/>
<path d="M648.94 224.705L670.876 214.186C671.233 216.636 671.543 219.094 671.79 221.498L649.854 232.026C649.589 229.568 649.278 227.118 648.94 224.66" fill="#232A62"/>
<path d="M649.909 232.072L671.845 221.543C672.092 223.874 672.311 226.195 672.476 228.517L650.54 239.045C650.369 236.718 650.156 234.393 649.9 232.072" fill="#222960"/>
<path d="M650.549 239.045L672.485 228.517C672.658 230.811 672.777 233.086 672.869 235.398L650.933 245.927C650.853 243.636 650.729 241.342 650.558 239.045" fill="#22285E"/>
<path d="M650.923 245.927L672.859 235.398C672.945 237.61 672.984 239.819 672.978 242.024L651.042 252.553C651.042 250.341 651.042 248.138 650.914 245.927" fill="#21275B"/>
<path d="M651.051 252.553L672.987 242.024C672.987 244.227 672.987 246.42 672.878 248.614L650.942 259.142C651.024 256.949 651.061 254.746 651.061 252.553" fill="#202659"/>
<path d="M650.933 259.142L672.869 248.614C672.789 250.789 672.671 252.955 672.512 255.112L650.576 265.631C650.741 263.474 650.86 261.311 650.933 259.142Z" fill="#1F2557"/>
<path d="M650.576 265.631L672.512 255.112C672.402 256.62 672.265 258.128 672.119 259.626C672.055 260.284 671.982 260.942 671.909 261.601L649.973 272.12C650.046 271.471 650.11 270.813 650.183 270.155C650.329 268.644 650.457 267.121 650.567 265.585" fill="#1E2454"/>
<path d="M649.982 272.12L671.918 261.6C671.674 263.776 671.391 265.908 671.068 267.998L649.132 278.517C649.461 276.409 649.748 274.277 649.991 272.12" fill="#1D2352"/>
<path d="M649.123 278.545L671.059 268.025C670.721 270.182 670.355 272.312 669.935 274.423L647.999 284.951C648.407 282.861 648.779 280.729 649.114 278.554" fill="#1D2250"/>
<path d="M648.026 284.933L669.962 274.405C669.542 276.561 669.048 278.673 668.564 280.756L646.628 291.285C647.14 289.201 647.606 287.068 648.026 284.887" fill="#1C214D"/>
<path d="M646.609 291.285L668.545 280.756C668.015 282.962 667.433 285.125 666.8 287.245L644.864 297.773C645.473 295.653 646.058 293.49 646.619 291.285" fill="#1B204B"/>
<path d="M644.855 297.773L666.791 287.245C666.142 289.448 665.438 291.595 664.697 293.707L642.761 304.226C643.511 302.124 644.206 299.967 644.855 297.773Z" fill="#1A1F49"/>
<path d="M642.762 304.226L664.698 293.707C663.863 296.058 662.973 298.352 662.029 300.588L640.093 311.108C641.031 308.865 641.918 306.572 642.752 304.226" fill="#191E46"/>
<path d="M640.102 311.108L662.038 300.588C660.984 303.068 659.868 305.478 658.692 307.817L636.756 318.346C637.975 316.006 639.093 313.593 640.111 311.108" fill="#181D44"/>
<path d="M636.747 318.346L658.683 307.817C657.312 310.529 655.853 313.146 654.305 315.668L632.369 326.187C633.914 323.674 635.376 321.051 636.747 318.346Z" fill="#181C42"/>
<path d="M632.369 326.187L654.305 315.668C652.343 318.868 650.207 321.959 647.907 324.926L625.971 335.445C628.277 332.482 630.413 329.392 632.369 326.187Z" fill="#171B3F"/>
<path d="M625.962 335.409L647.898 324.889C639.537 335.78 628.753 344.572 616.402 350.571L594.466 361.09C606.821 355.098 617.606 346.304 625.962 335.409Z" fill="#161A3D"/>
<path d="M470.993 181.614L469.869 192.837L472.428 194.016L473.553 182.784L470.993 181.614ZM470.993 181.614L469.869 192.837L472.428 194.016L473.553 182.784L470.993 181.614ZM470.993 181.614L469.869 192.837L472.428 194.016L473.553 182.784L470.993 181.614ZM627.744 157.679C623.209 148.513 618.071 139.659 612.362 131.175C592.738 101.984 566.808 78.0488 537.414 64.4588C466.99 31.9963 403.293 71.4229 395.15 152.524C392.828 175.61 395.259 199.582 401.548 222.814C404.21 232.646 407.529 242.288 411.483 251.675C415.211 260.552 419.484 269.19 424.279 277.539C444.625 313.008 473.946 342.528 507.919 358.193C531.391 369.014 554.103 371.847 574.285 367.816C614.628 359.746 644.763 324.204 650.201 270.109C653.958 232.675 645.193 192.837 627.744 157.679ZM569.349 273.82L567.868 288.442L565.894 308.165L544.013 298.112L526.254 253.951L498.221 241.037L496.75 255.66L494.776 275.382L465.601 261.929L468.343 234.649L469.056 227.548L468.05 227.082L465.455 225.884L446.553 217.175L448.015 202.625L449.935 183.579L469.869 192.837L472.428 194.016L473.553 182.784L470.993 181.605L462.365 177.639L451.059 172.411L454.432 138.797L474.366 148.055L476.925 149.234L480.362 114.999L500.305 124.193L502.234 125.107L519.92 169.066L548.044 182.035L551.48 147.808L568.983 155.869L571.433 157.002L580.655 161.252L579.348 174.157L578.864 178.991L577.209 195.442L583.004 198.11L598.789 205.422L597.4 219.304L595.416 239.027L586.934 235.124L573.837 229.083L572.712 240.279L585.81 246.32L594.292 250.222L592.894 264.105L590.919 283.827L569.349 273.82ZM470.993 181.614L469.869 192.837L472.428 194.016L473.553 182.784L470.993 181.614ZM470.993 181.614L469.869 192.837L472.428 194.016L473.553 182.784L470.993 181.614ZM470.993 181.614L469.869 192.837L472.428 194.016L473.553 182.784L470.993 181.614Z" fill="#191E45"/>
<path d="M508.906 210.796L507.298 210.055L501.603 207.442L502.728 196.246L503.111 196.42L508.413 209.571L508.906 210.796Z" fill="#191E45"/>
<path d="M450.849 61.6073L472.785 51.0881C475.384 49.8348 478.048 48.7182 480.764 47.7432L458.828 58.2624C456.104 59.2494 453.439 60.3644 450.831 61.6073" fill="#161A3D"/>
<path d="M458.828 58.2624L480.764 47.7432C484.053 46.5618 487.41 45.5821 490.818 44.8095L468.882 55.3287C465.475 56.1043 462.118 57.0839 458.828 58.2624Z" fill="#171B3F"/>
<path d="M468.946 55.3287L490.882 44.8095C493.606 44.2002 496.378 43.7128 499.199 43.3472L477.263 53.8664C474.448 54.2229 471.679 54.7164 468.955 55.3287" fill="#181C42"/>
<path d="M477.254 53.8664L499.19 43.3472C501.539 43.0456 503.925 42.8354 506.329 42.7166L484.42 53.245C482.007 53.3638 479.622 53.5648 477.273 53.8664" fill="#181D44"/>
<path d="M484.42 53.245L506.356 42.7166C508.559 42.6161 510.78 42.5795 513.019 42.6344L491.083 53.1536C488.841 53.1109 486.623 53.1414 484.429 53.245" fill="#191E46"/>
<path d="M491.056 53.1536L512.992 42.6343C515.094 42.6831 517.227 42.7958 519.39 42.9725L497.454 53.4917C495.315 53.3089 493.182 53.1962 491.056 53.1536Z" fill="#1A1F49"/>
<path d="M497.435 53.4918L519.371 42.9725C521.337 43.137 523.329 43.3655 525.331 43.658L503.395 54.1772C501.396 53.8908 499.41 53.6624 497.435 53.4918Z" fill="#1B204B"/>
<path d="M503.395 54.1772L525.331 43.658C527.259 43.9321 529.197 44.2703 531.153 44.6541L509.217 55.1825C507.261 54.7895 505.314 54.4605 503.386 54.1772" fill="#1C214D"/>
<path d="M509.226 55.1825L531.162 44.6541C533.057 45.038 534.955 45.4675 536.856 45.9427L514.92 56.4711C513.007 55.9837 511.109 55.5541 509.226 55.1825Z" fill="#1D2250"/>
<path d="M514.92 56.4711L536.856 45.9427C538.684 46.418 540.549 46.9389 542.45 47.5056L520.514 58.0248C518.649 57.4581 516.788 56.9403 514.929 56.4711" fill="#1D2352"/>
<path d="M520.505 58.0248L542.441 47.5056C544.269 48.0722 546.124 48.6815 548.007 49.3334L526.071 59.8526C524.206 59.1824 522.348 58.5731 520.496 58.0248" fill="#1E2454"/>
<path d="M526.08 59.8709L548.016 49.3517C549.844 50.0097 551.697 50.7165 553.573 51.472L531.637 61.9912C529.809 61.2326 527.926 60.5289 526.08 59.8709Z" fill="#1F2557"/>
<path d="M531.637 61.9912L553.573 51.472C555.401 52.2275 557.263 53.0348 559.158 53.8939L537.222 64.4131C535.394 63.554 533.493 62.7498 531.637 61.9912Z" fill="#202659"/>
<path d="M537.222 64.4131L559.158 53.8939L559.35 53.9761L537.432 64.5045L537.24 64.4131" fill="#21275B"/>
</g>
<defs>
<clipPath id="clip0_62_3786">
<rect width="914" height="480" fill="white"/>
</clipPath>
</defs>
</svg>
