<svg width="33" height="74" viewBox="0 0 33 74" fill="none" xmlns="http://www.w3.org/2000/svg">
<path d="M24.7213 38.0381L22.956 38.4726L22.5261 33.1858L24.2914 32.7559L24.7213 38.0381Z" fill="#269F62"/>
<path d="M23.9394 33.1537L22.1741 33.5882L22.5262 33.1858L24.2915 32.7559L23.9394 33.1537Z" fill="#11472C"/>
<path d="M24.3464 38.1433L22.5811 38.5777L22.9561 38.4726L24.7214 38.0381L24.3464 38.1433Z" fill="#1A6C43"/>
<path d="M24.3464 38.1433L22.5811 38.5778L22.1741 33.5883L23.9394 33.1538L24.3464 38.1433Z" fill="#165B39"/>
<path d="M24.2915 32.7559L24.7214 38.0381L24.3464 38.1433L23.9393 33.1537L24.2915 32.7559Z" fill="#18623D"/>
<path d="M26.5233 60.1046L24.7534 60.5345L24.1909 53.5875L25.9562 53.1531L26.5233 60.1046Z" fill="#269F62"/>
<path d="M25.6086 53.5555L23.8387 53.99L24.1909 53.5875L25.9562 53.1531L25.6086 53.5555Z" fill="#11472C"/>
<path d="M29.4137 71.6112L27.6438 72.0411L27.7398 71.9359L29.5097 71.506L29.4137 71.6112Z" fill="#0F3E27"/>
<path d="M29.1438 71.8764L27.3739 72.3338L27.4516 72.2606C27.5111 72.2057 27.5568 72.16 27.6071 72.1051C27.6205 72.0924 27.6327 72.0786 27.6437 72.0639L29.4136 71.634L29.3725 71.6752C29.3267 71.7255 29.2764 71.7758 29.217 71.8307L29.1438 71.8993" fill="#0F3E27"/>
<path d="M26.098 59.5604L24.3281 59.9948L23.8387 53.99L25.6086 53.5555L26.098 59.5604Z" fill="#165B39"/>
<path d="M26.5233 60.1045L24.7534 60.5344L24.3281 59.9948L26.098 59.5603L26.5233 60.1045Z" fill="#10432A"/>
<path d="M25.9562 53.1531L26.5233 60.1046L26.098 59.5603L25.6086 53.5555L25.9562 53.1531Z" fill="#18623D"/>
<path d="M28.3526 72.4252L26.5873 72.8551L26.7382 72.7773C26.788 72.7421 26.8399 72.7101 26.8937 72.6813L26.9714 72.6264L27.0538 72.5715L27.1315 72.5121L27.2093 72.4481L27.2916 72.384L27.3739 72.3109L29.1438 71.8535L29.0615 71.9221L28.9837 71.9907L28.9014 72.0502L28.8237 72.1096L28.7459 72.1691L28.6636 72.2194L28.5081 72.3154L28.3572 72.3977" fill="#0F3C26"/>
<path d="M29.1438 71.8764L27.3739 72.3338L27.4516 72.2606C27.5111 72.2057 27.5568 72.16 27.6071 72.1051C27.6205 72.0924 27.6327 72.0786 27.6437 72.0639L29.4136 71.634L29.3725 71.6752C29.3267 71.7255 29.2764 71.7758 29.217 71.8307L29.1438 71.8993" fill="#0F3E27"/>
<path d="M28.0233 72.5669L26.2534 72.9968H26.3129L26.4181 72.9511L26.5781 72.8779L28.3434 72.448C28.292 72.4777 28.2385 72.5037 28.1834 72.5257L28.0782 72.5669L28.0233 72.5898" fill="#0E3A24"/>
<path d="M28.3526 72.4252L26.5873 72.8551L26.7382 72.7773C26.788 72.7421 26.8399 72.7101 26.8937 72.6813L26.9714 72.6264L27.0538 72.5715L27.1315 72.5121L27.2093 72.4481L27.2916 72.384L27.3739 72.3109L29.1438 71.8535L29.0615 71.9221L28.9837 71.9907L28.9014 72.0502L28.8237 72.1096L28.7459 72.1691L28.6636 72.2194L28.5081 72.3154L28.3572 72.3977" fill="#0F3C26"/>
<path d="M28.0233 72.5669L26.2534 72.9968H26.3129L26.4181 72.9511L26.5781 72.8779L28.3434 72.448C28.292 72.4777 28.2385 72.5037 28.1834 72.5257L28.0782 72.5669L28.0233 72.5898" fill="#0E3A24"/>
<path d="M27.8907 72.6309L26.1254 73.0608L26.2534 73.0151L28.0233 72.5852L27.8907 72.6309Z" fill="#0E3A24"/>
<path d="M27.8495 72.631L26.0842 73.0654H26.1391L27.9044 72.6356H27.8495" fill="#0E3A24"/>
<path d="M27.7215 72.6584L25.9517 73.0929L26.0706 73.0609L27.8496 72.631L27.7353 72.663" fill="#0E3A24"/>
<path d="M27.6757 72.6722L25.9104 73.1021H25.9516L27.7214 72.6676H27.6757" fill="#0E3A24"/>
<path d="M16.0229 40.4849L14.2576 40.9193L22.5811 38.5778L24.3464 38.1433L16.0229 40.4849Z" fill="#1A6C43"/>
<path d="M25.9562 53.1531L24.1909 53.5875L14.2576 40.9193L16.0229 40.4849L25.9562 53.1531Z" fill="#1C7548"/>
<path d="M16.0229 40.4849L25.9562 53.1531L25.6086 53.5555L15.6753 40.8873L16.0229 40.4849Z" fill="#165938"/>
<path d="M25.6086 53.5555L23.8387 53.99L13.9054 41.3218L15.6753 40.8873L25.6086 53.5555Z" fill="#0F3D26"/>
<path d="M15.6753 40.8873L13.9054 41.3218L14.2575 40.9193L16.0229 40.4849L15.6753 40.8873Z" fill="#104028"/>
<path d="M24.2914 32.7559L22.5261 33.1858L6.27698 12.4685L8.04686 12.0341L24.2914 32.7559Z" fill="#1C7548"/>
<path d="M8.12004 12.9807L6.35472 13.4152L6.27698 12.4685L8.04686 12.0341L8.12004 12.9807Z" fill="#145333"/>
<path d="M23.9393 33.1538L22.174 33.5882L6.35474 13.4152L8.12005 12.9807L23.9393 33.1538Z" fill="#0F3D26"/>
<path d="M9.84429 34.0959L8.07898 34.5304L16.7546 32.0562L18.5199 31.6217L9.84429 34.0959Z" fill="#0D3722"/>
<path d="M9.87174 34.3932L8.10185 34.8277L8.07898 34.5304L9.84429 34.0959L9.87174 34.3932Z" fill="#135032"/>
<path d="M27.6941 72.6676L25.9288 73.0975C25.7553 73.1434 25.5775 73.171 25.3982 73.1798H24.9409H24.79H24.6482H24.5522C23.0247 72.9191 21.2502 71.7209 19.2974 69.5211C19.0687 69.2604 18.8401 68.9906 18.6068 68.7071L20.3721 68.2726C20.6054 68.5561 20.8295 68.8305 21.0627 69.0866C23.0201 71.3001 24.7946 72.5029 26.3175 72.7453H26.4181H26.5599H26.7108H27.1681C27.3454 72.732 27.5212 72.7045 27.6941 72.663" fill="#196A42"/>
<path d="M20.3721 68.2131L18.6068 68.6476C18.4833 68.5012 18.3644 68.3457 18.2409 68.1902C17.6799 67.4707 17.1204 66.6947 16.5625 65.8624L18.3324 65.4325C18.8903 66.2603 19.4483 67.0377 20.0108 67.7558C20.1297 67.9113 20.2532 68.0622 20.3721 68.2131Z" fill="#1A6E44"/>
<path d="M18.3324 65.437L16.5625 65.8669C15.968 64.9797 15.378 64.0376 14.7926 63.0223L16.5625 62.5649C17.1479 63.5711 17.7378 64.5208 18.3324 65.4141" fill="#1B7247"/>
<path d="M16.5625 62.5695L14.7926 63.0269C14.2438 62.0756 13.6996 61.0741 13.1599 60.0359L14.9298 59.6014C15.4634 60.6442 16.0076 61.6412 16.5625 62.5924" fill="#1C7649"/>
<path d="M14.9299 59.5969L13.16 60.0314C12.6295 58.9932 12.1035 57.9185 11.5913 56.83L13.3566 56.3727C13.8734 57.484 14.3948 58.5633 14.9299 59.574" fill="#1D7A4C"/>
<path d="M13.3566 56.3727L11.5913 56.83C11.0638 55.6958 10.5501 54.5265 10.05 53.3222L11.8199 52.8923C12.3184 54.0906 12.8352 55.2613 13.3566 56.3955" fill="#1E7E4E"/>
<path d="M11.8428 52.8695L10.0729 53.2994C9.55607 52.0555 9.04843 50.7749 8.55908 49.4669L10.329 49.0325C10.8168 50.3405 11.3214 51.6195 11.8428 52.8695Z" fill="#1F8351"/>
<path d="M10.3061 49.0325L8.53626 49.467C8.01947 48.0949 7.52097 46.6726 7.04077 45.2412L8.81066 44.8113C9.28629 46.2412 9.78478 47.6483 10.3061 49.0325Z" fill="#208753"/>
<path d="M8.81063 44.8113L7.04074 45.2412C6.52242 43.6832 6.03155 42.116 5.56812 40.5398L7.338 40.1099C7.79839 41.6922 8.28926 43.2594 8.81063 44.8113Z" fill="#218B56"/>
<path d="M7.33798 40.1098L5.56809 40.5397C5.04368 38.7378 4.55585 36.9252 4.10461 35.102L5.86993 34.6447C6.32726 36.474 6.81204 38.3033 7.33798 40.0869" fill="#228F58"/>
<path d="M5.86997 34.672L4.10465 35.1294C3.49183 32.6506 2.96132 30.1673 2.5177 27.7205L4.28759 27.2906C4.74492 29.7328 5.26171 32.2162 5.86997 34.6949" fill="#23935B"/>
<path d="M4.28761 27.2633L2.51772 27.6932C1.98721 24.7479 1.60305 21.8576 1.34694 19.0861C1.34694 18.7888 1.31493 18.7111 1.31035 18.6288C1.30578 18.5464 1.31035 18.4641 1.31035 18.3772C1.31035 18.2903 1.31035 18.176 1.31035 18.0983C1.24633 17.2339 1.19602 16.397 1.16858 15.5921L2.93389 15.1576C2.96591 15.9625 3.01164 16.7994 3.07567 17.6638C3.07567 17.7415 3.07567 17.8193 3.07567 17.9473C3.07567 18.0754 3.07567 18.112 3.07567 18.1989C3.07567 18.2858 3.07567 18.3544 3.11683 18.6562C3.35922 21.4277 3.7571 24.3226 4.28761 27.2678" fill="#24975D"/>
<path d="M2.89273 15.1622L1.12742 15.5967C1.06339 13.9503 1.07254 12.4274 1.12742 11.0233L2.89273 10.5889C2.81956 11.9609 2.81499 13.4975 2.89273 15.1622Z" fill="#23935B"/>
<path d="M2.91107 10.6071L1.14575 11.0415C1.19149 10.1269 1.26466 9.30367 1.36527 8.52163L3.15345 8.08716C3.05284 8.8692 2.97967 9.7107 2.92936 10.6071" fill="#228F58"/>
<path d="M3.15343 8.08722L1.38354 8.52169C1.46587 7.88142 1.56648 7.27774 1.68081 6.69235L3.4507 6.26245C3.33179 6.82497 3.23575 7.42866 3.15343 8.09179" fill="#218B56"/>
<path d="M3.43236 6.28066L1.66248 6.71055C1.76766 6.20748 1.88657 5.73643 2.01462 5.29281L3.77994 4.86292C3.65188 5.32025 3.53755 5.77759 3.43236 6.28066Z" fill="#208753"/>
<path d="M3.77996 4.86302L2.01465 5.29292C2.13813 4.87674 2.27076 4.48801 2.41253 4.13129L4.18242 3.67395C4.03607 4.03525 3.90344 4.42398 3.77996 4.84016" fill="#1F8351"/>
<path d="M4.18236 3.69674L2.41248 4.15408C2.54575 3.81922 2.69845 3.49243 2.86981 3.17538L4.63513 2.74548C4.46474 3.06146 4.31206 3.38667 4.17779 3.71961" fill="#1E7E4E"/>
<path d="M4.63519 2.72262L2.86987 3.15251C3.02451 2.86644 3.19871 2.59139 3.39124 2.32931L5.16112 1.89941C4.96353 2.15892 4.78762 2.43425 4.63519 2.72262Z" fill="#1D7A4C"/>
<path d="M5.16112 1.89948L3.39124 2.32937C3.57584 2.08109 3.78415 1.85135 4.01321 1.64337L5.7831 1.18604C5.55401 1.39566 5.34572 1.62692 5.16112 1.87661" fill="#1C7649"/>
<path d="M5.78307 1.20891L4.01318 1.66625C4.24437 1.45452 4.50275 1.27458 4.78151 1.13116L6.55139 0.673828C6.27459 0.820467 6.0166 1.00014 5.78307 1.20891Z" fill="#1B7247"/>
<path d="M6.55138 0.673776L4.78149 1.13111C4.9894 1.01393 5.21046 0.921821 5.44006 0.85671L7.20537 0.422241C6.97256 0.480619 6.74704 0.564994 6.53309 0.673776" fill="#1A6E44"/>
<path d="M14.9115 5.3295C22.86 15.4549 30.4609 37.6448 31.8329 54.8818C32.528 63.4065 31.5859 69.1232 29.4959 71.5059C29.4044 71.6065 29.3084 71.7072 29.2124 71.7986L29.1392 71.8672C28.9333 72.0321 28.718 72.1848 28.4943 72.3246L28.2611 72.4481L28.1788 72.4846L28.0919 72.5212C27.7996 72.6388 27.4912 72.7113 27.1772 72.7362H26.7199H26.569H26.4272H26.3266C24.8036 72.4755 23.0292 71.2727 21.0718 69.0775C20.7288 68.6888 20.3766 68.2634 20.0199 67.8107C12.1355 57.7173 4.61686 35.8246 3.1168 18.6654C3.08936 18.3727 3.08478 18.295 3.07564 18.2081C3.06649 18.1212 3.07564 18.0389 3.07564 17.9565C3.07564 17.8742 3.07564 17.7507 3.07564 17.673C2.18841 6.31735 4.31959 0.0884394 8.21151 0.339974L8.51793 0.371987C10.329 0.641815 12.5013 2.25164 14.9115 5.3295ZM24.7213 38.0381L24.2914 32.7559L8.04687 12.034L8.12462 12.9807L8.60939 18.9855L18.5199 31.6217L9.83048 34.0959L9.85792 34.3932L10.265 39.3873L26.0842 59.5603L26.5095 60.1046L25.9424 53.1531L16.0228 40.4849L24.3509 38.1433L24.7213 38.0381Z" fill="#29AC6A"/>
<path d="M8.04688 12.0341L24.2914 32.7559L23.9393 33.1538L8.12005 12.9807L8.04688 12.0341Z" fill="#165938"/>
<path d="M5.04674 2.00463L3.27686 2.4391L3.629 2.03664L5.39432 1.60217L5.04674 2.00463Z" fill="#104129"/>
<path d="M4.81353 2.29284L3.04822 2.75018L3.18999 2.56267C3.22201 2.53066 3.24945 2.49407 3.27689 2.46206L5.04677 2.02759L4.98275 2.10991L4.8364 2.29284" fill="#0F3E27"/>
<path d="M4.28759 3.11576L2.5177 3.57309C2.66912 3.29051 2.84189 3.0199 3.03449 2.76361L4.7998 2.30627C4.60893 2.56283 4.43771 2.83342 4.28759 3.11576Z" fill="#104028"/>
<path d="M4.80889 2.29736L3.04358 2.7547L4.80889 2.29736Z" fill="#0F3E27"/>
<path d="M4.28759 3.116L2.5177 3.57334C2.66912 3.29076 2.84189 3.02014 3.03449 2.76385L4.7998 2.30652C4.60893 2.56307 4.43771 2.83367 4.28759 3.116Z" fill="#104028"/>
<path d="M3.43236 5.26096L1.66248 5.71829C1.78596 5.30212 1.91858 4.91796 2.06036 4.55666L3.83024 4.12219C3.68847 4.48349 3.55127 4.87222 3.43236 5.28382" fill="#11442B"/>
<path d="M3.83019 4.09924L2.0603 4.53371C2.19548 4.19968 2.34813 3.87299 2.51764 3.55501L4.28753 3.11597C4.11529 3.43101 3.96256 3.75633 3.83019 4.09009" fill="#10422A"/>
<path d="M4.28759 3.116L2.5177 3.57334C2.66912 3.29076 2.84189 3.02014 3.03449 2.76385L4.7998 2.30652C4.60893 2.56307 4.43771 2.83367 4.28759 3.116Z" fill="#104028"/>
<path d="M3.43236 5.26096L1.66248 5.71829C1.78596 5.30212 1.91858 4.91796 2.06036 4.55666L3.83024 4.12219C3.68847 4.48349 3.55127 4.87222 3.43236 5.28382" fill="#11442B"/>
<path d="M18.5199 31.6217L18.1723 32.0242L9.87168 34.3932L9.84424 34.0959L18.5199 31.6217Z" fill="#155736"/>
<path d="M3.04827 6.82958L1.28296 7.26405L1.63053 6.86159L3.40042 6.42712L3.04827 6.82958Z" fill="#10432A"/>
<path d="M3.04827 6.82957L1.28296 7.26403C1.28296 7.21373 1.28296 7.15885 1.31497 7.10854L3.08029 6.67407C3.07227 6.72641 3.06159 6.77831 3.04827 6.82957Z" fill="#12492E"/>
<path d="M3.08026 6.67407L1.3241 7.10854C1.42471 6.60547 1.54362 6.13441 1.67167 5.69537L3.44156 5.23804C3.30893 5.69537 3.1946 6.15271 3.08941 6.6512" fill="#11472C"/>
<path d="M3.43249 5.26096L1.6626 5.71829C1.78608 5.30212 1.91871 4.91796 2.06048 4.55666L3.83037 4.12219C3.68859 4.48349 3.55139 4.87222 3.43249 5.28382" fill="#11442B"/>
<path d="M4.81358 2.29275L4.9828 2.10982L5.06969 2.00463L5.41727 1.60217L5.33952 1.69821L5.19317 1.88115V1.91316L5.05597 2.10524L4.92792 2.30647L4.79986 2.52142V2.55343C4.75413 2.63118 4.71297 2.70892 4.67181 2.78667L4.54376 3.03821V3.06107C4.50717 3.14339 4.46601 3.22571 4.42942 3.31261V3.34919C4.35167 3.52755 4.2785 3.71049 4.20533 3.90257V3.93001C4.16874 4.02605 4.13215 4.12209 4.10014 4.2227V4.25472C4.03154 4.45595 3.96751 4.66632 3.90806 4.88127V4.91785C3.87605 5.02761 3.8486 5.1328 3.82116 5.24256V5.27915C3.76628 5.50324 3.7114 5.73648 3.65652 5.9743V6.02003C3.62908 6.13894 3.60622 6.25327 3.58335 6.37218L3.2312 6.77464C3.62451 4.79895 4.21905 3.28517 4.9828 2.25616L4.81358 2.29275Z" fill="#165A38"/>
<path d="M2.76471 19.0679L0.999397 19.4978V19.4017C0.999397 19.2782 0.97653 19.1593 0.967384 19.0404C0.958237 18.9215 0.967382 18.8392 0.944516 18.7432C0.921649 18.6471 0.944516 18.5419 0.944516 18.4367C0.946533 18.4017 0.946533 18.3666 0.944516 18.3316C0.885062 17.5038 0.843903 16.7034 0.81189 15.9351L2.58178 15.4778C2.60922 16.2507 2.65495 17.051 2.71441 17.8742C2.71214 17.9108 2.71214 17.9474 2.71441 17.984C2.71441 18.0846 2.7144 18.1852 2.73727 18.2858C2.76014 18.3864 2.73727 18.4825 2.73727 18.5831L2.76471 18.9444V19.045" fill="#145233"/>
<path d="M2.5406 15.5007L0.770715 15.958C0.711261 14.3253 0.720408 12.8161 0.793581 11.4395L2.56347 11.0096C2.4903 12.3847 2.48267 13.8893 2.5406 15.5235" fill="#135032"/>
<path d="M2.56347 10.9868L0.793579 11.4167C0.843886 10.5295 0.91706 9.69253 1.01767 8.91049L2.78299 8.48059C2.68237 9.25806 2.6092 10.095 2.56347 10.9868Z" fill="#134E30"/>
<path d="M2.78301 8.48057L1.0177 8.91047C1.09087 8.32965 1.17777 7.78085 1.28295 7.26406L3.04827 6.82959C2.94766 7.34638 2.86076 7.89975 2.78301 8.48057Z" fill="#124B2F"/>
<path d="M29.4136 71.6111L29.5097 71.5059L29.1758 71.8855C28.8445 72.3097 28.4149 72.6468 27.924 72.8675C27.4331 73.0883 26.8958 73.186 26.3586 73.1523H26.1985H26.1299H26.0293H25.9424H25.8555H25.7641H25.6772L25.5857 73.1294H25.4942L25.4028 73.102L25.3113 73.0746L25.2244 73.0425L25.1238 73.006L25.0369 72.974L24.9363 72.9328L24.8494 72.8962L24.7488 72.8505L24.6573 72.8093L24.5567 72.759L24.4652 72.7178L24.3601 72.6584L24.2732 72.6127L24.1588 72.5486L24.0765 72.5029L23.9576 72.4297L23.8799 72.384L23.7335 72.1736L23.6786 72.137C23.61 72.0959 23.546 72.0501 23.4774 71.9998L23.2716 71.8535L23.203 71.8032L23.0658 71.698L22.9881 71.6385L22.86 71.5379L22.7731 71.4647L22.6496 71.3641L22.5582 71.2864L22.4392 71.1812L22.3432 71.0989L22.2243 70.9937L22.1283 70.9068L22.0094 70.7925L21.9133 70.7056L21.7898 70.5867L21.6938 70.4906L21.5703 70.3671L21.4743 70.2711L21.3508 70.143L21.2548 70.0424L21.1267 69.9052L21.0307 69.8L20.9072 69.6628L20.8066 69.5531L20.6785 69.4067L20.5825 69.297L20.4453 69.1369C20.4124 69.104 20.3818 69.0689 20.3538 69.0317C20.3035 68.9768 20.2578 68.922 20.212 68.8625L20.1206 68.7573L19.9742 68.579L19.8919 68.4738L19.6586 68.1811L19.4986 67.9753L19.4483 67.9067L19.3888 67.8335C19.2791 67.6917 19.1739 67.5454 19.0641 67.3762L18.8675 67.1109L18.6617 66.8274C18.561 66.681 18.5062 66.6078 18.4559 66.5301L18.2455 66.2283C17.9482 65.7938 17.6738 65.3776 17.404 64.9523C17.3308 64.8425 17.2668 64.7419 17.2028 64.6367C17.1387 64.5315 17.061 64.4126 17.0015 64.312L16.7957 63.9782L16.5854 63.626C16.2424 63.0543 15.9085 62.469 15.5746 61.8653C15.5015 61.7372 15.442 61.6229 15.378 61.5086L15.1813 61.1473L14.9755 60.7585C14.7057 60.2463 14.445 59.7387 14.1843 59.2219C14.1157 59.0847 14.0563 58.9612 13.9923 58.8423C13.9282 58.7234 13.8596 58.5725 13.8093 58.4627L13.6172 58.074C13.5304 57.8865 13.48 57.7813 13.4297 57.6807L13.2377 57.2691C13.1462 57.0815 13.0913 56.9581 13.0319 56.8117C12.8947 56.5145 12.7712 56.2446 12.6523 55.9748C12.6065 55.8788 12.5654 55.7827 12.5196 55.6821C12.4739 55.5815 12.387 55.3848 12.323 55.2248C12.259 55.0647 12.2269 55.0144 12.1812 54.9092L12.012 54.5159C11.948 54.3741 11.9022 54.2598 11.8519 54.1455C11.7193 53.8345 11.6187 53.6012 11.5227 53.3634L11.3626 52.9838C11.2848 52.7963 11.2437 52.6866 11.1979 52.5768C11.1522 52.467 11.0882 52.3161 11.047 52.2063L10.8732 51.781C10.8229 51.6484 10.7818 51.5524 10.7452 51.4517C10.7086 51.3511 10.6354 51.1819 10.5851 51.0447C10.393 50.5554 10.2375 50.1529 10.0866 49.7505L9.88539 49.2199L9.64757 48.5705L9.48293 48.1132L9.35488 47.7565C9.28171 47.5507 9.2314 47.4135 9.18567 47.2763C9.13993 47.1391 9.08505 46.9973 9.03475 46.8601L8.76949 46.1055C8.69174 45.8905 8.64601 45.7533 8.60028 45.6116C8.55455 45.4698 8.53168 45.4149 8.50424 45.3235C8.44478 45.1542 8.3899 44.9805 8.33045 44.8112C8.271 44.642 8.25728 44.578 8.21612 44.4637C8.17496 44.3493 8.10635 44.1207 8.0469 43.9423C7.90055 43.485 7.76793 43.0642 7.6353 42.6389L7.4981 42.2044C7.45694 42.0581 7.41121 41.9163 7.37005 41.7791C7.32889 41.6419 7.26943 41.5321 7.26943 41.3858C7.26943 41.2394 7.17339 41.0702 7.1368 40.9285C7.10022 40.7867 7.04534 40.6266 7.00875 40.4711C6.97216 40.3156 6.92643 40.1876 6.88527 40.0549L6.62002 39.2455L6.48739 38.7881C6.44623 38.6281 6.40964 38.5046 6.37763 38.3857C6.32275 38.1844 6.28616 38.0518 6.25415 37.9283C6.22213 37.8049 6.19927 37.7363 6.18555 37.6722L6.53312 37.2698C8.39529 44.3458 10.906 51.235 14.0334 57.8499C14.2667 58.3072 14.4908 58.792 14.724 59.2219L14.9024 59.574C15.1447 60.0314 15.3597 60.4887 15.6021 60.8957C15.6798 61.0421 15.7301 61.1381 15.785 61.2342C16.0366 61.6915 16.2424 62.0894 16.4802 62.4735L16.535 62.5696L16.6722 62.8074C16.6947 62.8393 16.7146 62.8729 16.7317 62.908C16.782 62.9858 16.8277 63.0681 16.8735 63.1458L17.2073 63.6992C17.2897 63.8364 17.3308 63.905 17.3765 63.9736C17.4223 64.0422 17.4269 64.0559 17.4543 64.0971L17.5778 64.2937L17.6601 64.4264C17.6967 64.4904 17.7378 64.5544 17.779 64.6139C17.8099 64.6674 17.8435 64.7193 17.8796 64.7694C17.9345 64.8608 17.9939 64.9477 18.0488 65.0346L18.1723 65.2221L18.2729 65.373L18.3827 65.5377L18.4787 65.684L18.6022 65.8578L18.6891 65.9904L18.8537 66.2283L18.9223 66.3243C18.9818 66.4066 19.0412 66.4935 19.1053 66.5758L19.1784 66.681L19.3202 66.8777L19.4437 67.0423C19.5397 67.1704 19.6083 67.2664 19.6815 67.3579C19.7185 67.4117 19.7582 67.4636 19.8004 67.5134L20.0108 67.7878C20.0931 67.8975 20.18 68.0027 20.2669 68.1079L20.3355 68.1948L20.5184 68.4189L20.6008 68.5149L20.77 68.7162C20.7965 68.7518 20.8255 68.7854 20.8569 68.8168L21.0261 69.0089L21.1267 69.1232C21.1587 69.1598 21.1861 69.1964 21.2182 69.2284L21.3508 69.3701L21.4468 69.4296L21.6343 69.6263C21.6625 69.659 21.6931 69.6896 21.7258 69.7177L21.8401 69.8412L21.9362 69.9372L22.0459 70.047L22.1374 70.1385L22.2792 70.2711L22.3798 70.3671L22.5261 70.5043L22.6085 70.5821L22.7274 70.6873L22.8143 70.7605L22.9332 70.8656L23.0109 70.9297L23.1939 71.0852L23.3905 71.2407L23.4637 71.2955L23.5872 71.387L23.6603 71.4419L23.793 71.5379L23.8524 71.5791L24.0399 71.7026L24.2229 71.826L24.2915 71.8672L24.4149 71.9404L24.479 71.977C24.5257 72.0078 24.5746 72.0354 24.6253 72.0593L24.8448 72.1782L25.0278 72.2651L25.0872 72.2925C25.1266 72.3146 25.1679 72.333 25.2107 72.3474L25.2656 72.3748L25.4211 72.4343L25.6177 72.5075L25.7915 72.5624H25.8464L25.9699 72.5944H26.0202L26.1803 72.631L26.3312 72.663L26.5095 72.6858H26.7245H27.0858H27.3053H27.3556H27.4745H27.5294L27.6757 72.6538H27.7352L27.8495 72.631H27.9044L28.037 72.5852L28.0919 72.5624L28.1971 72.5212C28.2522 72.4991 28.3057 72.4731 28.3572 72.4434L28.5172 72.3611L28.6727 72.2651L28.7551 72.2148L28.8328 72.1553L28.9105 72.0959L28.9929 72.0364L29.0706 71.9678L29.1529 71.8992L29.2307 71.826C29.2901 71.7712 29.3404 71.7209 29.3862 71.6705L29.4136 71.6111Z" fill="#165A38"/>
<path d="M6.18554 37.6449L4.41565 38.0748L4.7678 37.6769L6.53311 37.2424L6.18554 37.6449Z" fill="#104128"/>
<path d="M27.3465 73.0884L25.5812 73.5228C25.2582 73.6014 24.9249 73.6292 24.5933 73.6052H24.4287H24.3647H24.2641H24.1772H24.0857H23.9988L23.9073 73.5823H23.8205L23.729 73.5594L23.6375 73.532L23.5461 73.5L23.4546 73.4725L23.3585 73.4359L23.2671 73.4039L23.171 73.3628L23.0796 73.3262L22.9835 73.2805L22.8921 73.2393L22.7914 73.189L22.7 73.1433L22.5902 73.0884L22.5079 73.0426L22.389 72.9786L22.3112 72.9329L22.1878 72.8597L22.11 72.8094L21.9682 72.7179L21.9134 72.6813L21.7076 72.5441L21.5063 72.3978L21.4332 72.3429L21.3005 72.2423L21.2182 72.1829L21.0902 72.0777L21.0033 72.0091L20.8798 71.9084L20.7929 71.8307L20.6694 71.7255L20.5779 71.6432L20.459 71.538L20.363 71.4465L20.2395 71.3368L20.1481 71.2453L20.0246 71.1264L19.9285 71.0349L19.805 70.9115L19.709 70.8154L19.581 70.6828L19.4849 70.5822L19.3614 70.4495L19.2608 70.3444L19.1373 70.2072L19.0367 70.0974L18.9087 69.9511L18.8126 69.8413L18.6754 69.6812L18.584 69.576C18.5382 69.5212 18.4925 69.4617 18.4422 69.4068L18.3553 69.3016L18.3004 69.2376L20.0703 68.7803C20.0885 68.8005 20.1053 68.8219 20.1206 68.8443L20.2121 68.9495C20.2578 69.0089 20.3035 69.0638 20.3539 69.1187C20.3819 69.1558 20.4124 69.191 20.4453 69.2239L20.5825 69.384L20.6786 69.4937L20.8066 69.6401L20.9072 69.7498L21.0307 69.887L21.1267 69.9922L21.2548 70.1294L21.3508 70.23L21.4743 70.3581L21.5704 70.4541L21.6938 70.5776L21.7899 70.6736L21.9134 70.7925L22.0094 70.8794L22.1283 70.9938L22.2244 71.0807L22.3433 71.1859L22.4393 71.2682L22.5582 71.3734L22.6497 71.4511L22.7732 71.5517L22.86 71.6249L22.9881 71.7255L23.0658 71.785L23.203 71.8902L23.2716 71.9405L23.4775 72.0868C23.5461 72.1371 23.6101 72.1828 23.6787 72.224L23.7336 72.2606L23.8799 72.3566L23.9577 72.4024L24.0766 72.4755L24.1589 72.5213L24.2732 72.5853L24.3601 72.631L24.4653 72.6905L24.5568 72.7317L24.6574 72.782L24.7488 72.8231L24.8495 72.8689L24.9364 72.9054L25.037 72.9466L25.1239 72.9786L25.2245 73.0152L25.3114 73.0472L25.4028 73.0747L25.4943 73.1021H25.5858L25.6772 73.125H25.7641H25.8556H25.9425H26.0294H26.13H26.1986H26.3587C26.6902 73.149 27.0235 73.1212 27.3465 73.0426" fill="#0E3823"/>
<path d="M20.0749 68.6751L18.305 69.1324C18.2775 69.0912 18.2455 69.0546 18.2135 69.0135L19.9834 68.5562V68.5836L20.0794 68.6979" fill="#0E3A24"/>
<path d="M19.956 68.515L18.1861 68.9723L18.1587 68.9358L19.9286 68.5059L19.956 68.5379" fill="#0E3823"/>
<path d="M19.9285 68.515L18.1586 68.9449L18.122 68.8992C18.0443 68.8077 17.9711 68.7071 17.8934 68.6111L17.7333 68.4053L17.6784 68.3367L17.6235 68.2635L17.2943 67.8062L17.0976 67.5363L16.8964 67.2574L16.686 66.9601L16.4711 66.6491L16.1967 66.2421L17.9665 65.8076C18.0534 65.9448 18.1449 66.0774 18.2409 66.2146L18.4559 66.5256C18.5062 66.6034 18.5611 66.6766 18.6617 66.8229L18.8675 67.1064L19.0642 67.3717C19.1739 67.5226 19.2791 67.669 19.3889 67.829L19.4483 67.9022L19.4986 67.9708L19.6587 68.1766L19.8919 68.4693L19.9285 68.515Z" fill="#0E3A24"/>
<path d="M17.9665 65.8122L16.1966 66.2466C16.0045 65.9539 15.817 65.6704 15.6295 65.3777L15.4329 65.0621C15.3505 64.9341 15.2911 64.838 15.2316 64.7374L15.0441 64.399L14.8292 64.0423L14.4587 63.4157L16.2286 62.9858L16.5991 63.6124L16.8094 63.9645L17.0152 64.2984C17.0747 64.399 17.1387 64.495 17.2165 64.6231C17.2942 64.7512 17.3445 64.8289 17.4177 64.9387C17.6006 65.2314 17.7881 65.5195 17.9848 65.8076" fill="#0F3C26"/>
<path d="M16.2104 62.9904L14.4405 63.4203C14.2256 63.0498 14.0152 62.6748 13.8003 62.2906C13.7317 62.158 13.6677 62.0482 13.6082 61.9339C13.5487 61.8196 13.4664 61.6778 13.4115 61.5726C13.3567 61.4674 13.2652 61.2982 13.2057 61.1839C13.0685 60.9323 12.9359 60.6762 12.8079 60.4247L14.5732 59.9902L14.9711 60.7494L15.1769 61.1381L15.3735 61.4994C15.4375 61.6138 15.497 61.7281 15.5702 61.8562C15.7805 62.2403 15.9955 62.6153 16.2104 62.9904Z" fill="#0F3E27"/>
<path d="M14.5869 59.9903L12.8215 60.4247L12.4237 59.6473L12.2362 59.2631C12.1584 59.103 12.1035 58.9933 12.0487 58.8881L11.8611 58.4948C11.7697 58.3118 11.7194 58.2067 11.6736 58.1015L11.477 57.6899C11.3901 57.5024 11.3306 57.3834 11.2758 57.26V57.2188L13.0411 56.7615V56.8026C13.1005 56.9261 13.1554 57.0496 13.2469 57.26L13.439 57.6716C13.4893 57.7722 13.5396 57.8774 13.6265 58.0649L13.8185 58.4536C13.8688 58.5634 13.9237 58.6731 14.0015 58.8332C14.0792 58.9933 14.125 59.0756 14.1936 59.2128C14.3216 59.4735 14.4542 59.7342 14.5869 59.9903Z" fill="#104028"/>
<path d="M13.009 56.7843L11.2437 57.2416C11.1111 56.9581 10.9967 56.702 10.8778 56.4413L10.7498 56.1532C10.6812 56.0068 10.6171 55.8559 10.5485 55.6959L10.4113 55.3803L10.2375 54.987L10.0775 54.6165C9.94484 54.3056 9.8488 54.0677 9.74819 53.8345L9.70703 53.7293L11.4723 53.272L11.5181 53.3772C11.6141 53.615 11.7147 53.8345 11.8474 54.1592C11.8977 54.2735 11.9434 54.3879 12.0074 54.5296L12.1766 54.923C12.2224 55.0281 12.2681 55.1333 12.3184 55.2385C12.3687 55.3437 12.451 55.5404 12.5151 55.6959C12.5791 55.8513 12.602 55.8925 12.6477 55.9885L13.009 56.7843Z" fill="#10422A"/>
<path d="M11.4724 53.2811L9.70709 53.7385C9.66136 53.6287 9.62477 53.5464 9.59276 53.4641L9.42354 53.057C9.35951 52.9015 9.31835 52.7918 9.27262 52.6866C9.1903 52.4854 9.14914 52.3756 9.10341 52.2613L8.97078 51.932C8.9159 51.7948 8.86559 51.6576 8.81071 51.525C8.61863 51.0356 8.46771 50.6103 8.31222 50.2307C8.27563 50.1347 8.24362 50.0432 8.20703 49.9517L9.97692 49.4944C10.0089 49.5859 10.0455 49.6819 10.0821 49.7734C10.233 50.1758 10.3885 50.5783 10.5806 51.0676C10.6309 51.2048 10.6858 51.342 10.7407 51.4746C10.7955 51.6073 10.8184 51.6713 10.8687 51.8039L11.0425 52.2292C11.0837 52.339 11.1294 52.4488 11.1934 52.5997C11.2575 52.7506 11.2803 52.8192 11.3581 53.0067L11.4724 53.2811Z" fill="#11442B"/>
<path d="M9.97696 49.4945L8.20708 49.9518C8.17506 49.8649 8.14305 49.7826 8.11561 49.7003C8.03329 49.4808 7.95097 49.243 7.87322 49.0463C7.79547 48.8496 7.74974 48.7124 7.71315 48.589C7.67657 48.4655 7.62169 48.3466 7.58053 48.2322C7.50735 48.0264 7.46162 47.8892 7.41131 47.7749C7.361 47.6606 7.3107 47.4914 7.26496 47.3542C7.15978 47.0523 7.07746 46.8191 6.99971 46.5904C6.92196 46.3617 6.8808 46.2337 6.8305 46.0965C6.78019 45.9593 6.76647 45.8998 6.73446 45.8084L6.68872 45.6666L8.45403 45.2367L8.50434 45.3739C8.53178 45.4654 8.5638 45.5568 8.60038 45.662C8.63697 45.7672 8.69185 45.941 8.7696 46.1559L9.03028 46.9243C9.08058 47.0615 9.12632 47.1987 9.1812 47.3404C9.23608 47.4822 9.27724 47.6148 9.35041 47.8206L9.47847 48.1774L9.64311 48.6347L9.88092 49.2841L9.97696 49.5356" fill="#11472C"/>
<path d="M8.45394 45.1909L6.68863 45.6207L6.56515 45.2457C6.52399 45.1314 6.4874 45.0171 6.45081 44.9027C6.41423 44.7884 6.33648 44.5552 6.2816 44.3814C6.13525 43.924 5.99805 43.5033 5.86542 43.0734L5.7328 42.6435C5.68706 42.4971 5.6459 42.3554 5.60017 42.2136C5.55443 42.0718 5.51785 41.9346 5.47669 41.8066L5.34863 41.3492C5.29833 41.1846 5.26174 41.0565 5.22058 40.9285L6.99047 40.494L7.11395 40.9148C7.15054 41.0428 7.18712 41.1663 7.24658 41.3721C7.30603 41.5779 7.32432 41.6328 7.37006 41.7837C7.41579 41.9346 7.45695 42.0627 7.49811 42.209L7.63531 42.6435C7.76794 43.0688 7.90056 43.4941 8.04691 43.9469C8.10637 44.1253 8.16125 44.2945 8.21613 44.4683C8.27101 44.642 8.29387 44.7015 8.33046 44.8158L8.45394 45.1909Z" fill="#12492E"/>
<path d="M6.99051 40.5215L5.22063 40.956L5.10172 40.5398C5.00568 40.2105 4.9325 39.9498 4.85933 39.6846C4.78616 39.4193 4.76329 39.3462 4.7267 39.2272C4.69012 39.1083 4.64895 38.9437 4.61237 38.8202L4.48889 38.3629C4.4523 38.2348 4.43858 38.1708 4.42029 38.1068L6.19018 37.6769C6.19018 37.7409 6.22219 37.8049 6.25878 37.933C6.29536 38.061 6.32738 38.1937 6.38226 38.3903C6.41427 38.5092 6.45086 38.6327 6.49202 38.7928L6.62464 39.2501L6.86703 40.1008C6.90819 40.2334 6.94478 40.3614 6.99051 40.5169" fill="#124B2F"/>
<path d="M6.18558 37.6449L4.41569 38.0748C4.41569 38.0382 4.41569 38.0016 4.38367 37.9604C4.37421 37.9155 4.36199 37.8712 4.34709 37.8278C4.34709 37.7775 4.34709 37.7318 4.3105 37.6815C4.27391 37.5534 4.2419 37.4208 4.20531 37.2927L4.17787 37.1692L4.06811 36.7485V36.6616C3.97664 36.3095 3.88975 35.9573 3.80286 35.6052V35.5366L5.57275 35.0792V35.1524C5.65964 35.5045 5.75111 35.8521 5.838 36.2043V36.2912L5.94776 36.7119L5.97977 36.8354C6.01179 36.9634 6.04837 37.0961 6.08496 37.2287C6.08496 37.2744 6.10783 37.3202 6.12155 37.3705C6.13527 37.4208 6.14441 37.4619 6.15813 37.5077C6.17185 37.5534 6.15813 37.5808 6.19015 37.622" fill="#134E30"/>
<path d="M5.53166 35.102L3.76177 35.5593L3.65201 35.102C3.6017 34.8871 3.56054 34.7178 3.51938 34.5486C3.38675 33.9953 3.26327 33.4556 3.14436 32.9159C2.78764 31.3305 2.46751 29.7558 2.18396 28.1917L3.95385 27.7572C4.2313 29.3213 4.54991 30.8976 4.90968 32.4861C5.02859 33.0211 5.15664 33.5608 5.28469 34.1142C5.32585 34.2834 5.36701 34.4526 5.42189 34.6675C5.47677 34.8825 5.49049 34.9648 5.53166 35.1249" fill="#135032"/>
<path d="M3.95383 27.7435L2.18394 28.178L2.16107 28.0591C2.03302 27.3518 1.91411 26.6475 1.80435 25.9462C1.77234 25.7541 1.7449 25.5849 1.72203 25.4203C1.63971 24.8898 1.56654 24.3776 1.49336 23.8653V23.7922C1.49336 23.6458 1.4522 23.504 1.43391 23.3623V23.2845C1.41104 23.1245 1.39275 22.9644 1.36988 22.8043C1.34702 22.6443 1.32872 22.4522 1.30586 22.283C1.28299 22.1137 1.26927 21.9582 1.25098 21.8256V21.7159L1.20982 21.3408V21.2174L1.16866 20.8378C1.17091 20.8043 1.17091 20.7707 1.16866 20.7372C1.16866 20.5634 1.13664 20.3942 1.11835 20.2204C1.10005 20.0466 1.11835 19.9963 1.08633 19.8819L1.05432 19.5161L2.81964 19.0862C2.81964 19.1868 2.81964 19.2874 2.85622 19.4521L2.88366 19.7859L2.93854 20.3027C2.93629 20.3377 2.93629 20.3729 2.93854 20.4079L2.9797 20.7829V20.911L3.02086 21.286V21.3912C3.02086 21.5421 3.05288 21.6976 3.07574 21.8485C3.09861 21.9994 3.1169 22.1915 3.13977 22.3699C3.16264 22.5482 3.18093 22.69 3.2038 22.8546V22.9278L3.25868 23.3577V23.4354C3.32728 23.9431 3.40045 24.4553 3.48277 24.9858C3.51021 25.155 3.53765 25.3197 3.56509 25.5117C3.67943 26.2115 3.79833 26.9203 3.92639 27.6292V27.7435" fill="#145233"/>
<path d="M2.76467 19.0679V18.9673L2.73723 18.606C2.73723 18.5054 2.73723 18.4093 2.73723 18.3087C2.73723 18.2081 2.73723 18.1075 2.71436 18.0069C2.7121 17.9703 2.7121 17.9336 2.71436 17.8971C2.38508 13.3466 2.536 9.62847 3.08938 6.82958L3.44153 6.42712C3.44153 6.5506 3.40037 6.64207 3.38207 6.73354C3.36378 6.82501 3.38207 6.77927 3.38207 6.79757C3.38207 6.90733 3.34091 7.01709 3.32262 7.12685C3.30433 7.23661 3.32262 7.22746 3.32262 7.27319C3.32262 7.31893 3.32262 7.36466 3.32262 7.38296C3.32262 7.479 3.32262 7.52473 3.29518 7.56589C3.29518 7.72138 3.25402 7.85401 3.23573 7.98664C3.21743 8.11927 3.23573 8.08725 3.23573 8.11012V8.16957C3.23573 8.24275 3.23573 8.28848 3.23573 8.33421C3.20829 8.55831 3.20371 8.60404 3.19914 8.64977C3.17627 8.87844 3.15341 9.08424 3.13511 9.29462C3.11682 9.50499 3.11225 9.58731 3.1031 9.71079V9.77939L3.07566 10.191C3.07566 10.3648 3.07566 10.4928 3.05279 10.6209V10.6895C3.05279 10.8313 3.05279 10.973 3.05279 11.1194C3.05279 11.2657 3.05279 11.4395 3.05279 11.5767C3.05279 11.7871 3.05279 11.938 3.05279 12.0889C3.05279 12.2399 3.05279 12.4228 3.05279 12.5463V13.0768C3.05279 13.2734 3.05279 13.4244 3.05279 13.5707C3.05279 13.7948 3.05279 13.9549 3.05279 14.1195C3.05279 14.2841 3.05279 14.4808 3.05279 14.6317V14.7003C3.05279 14.865 3.05279 15.0342 3.05279 15.2034C3.05279 15.3726 3.05279 15.5738 3.07566 15.7339V15.8025L3.1031 16.3193V16.397L3.13054 16.8544V16.9321C3.13054 17.1059 3.15798 17.2843 3.16713 17.4626C3.16713 17.5404 3.16713 17.5815 3.16713 17.6227C3.19914 18.0252 3.20371 18.08 3.20829 18.1761C3.21286 18.2721 3.20829 18.3316 3.23115 18.4047C3.25402 18.4779 3.23115 18.4962 3.23115 18.5419C3.23115 18.6654 3.23115 18.7066 3.23115 18.7477C3.23115 18.7889 3.23115 18.917 3.25402 19.0038L3.28146 19.3057C3.28372 19.3377 3.28372 19.3698 3.28146 19.4017C3.72014 23.7095 4.42425 27.9861 5.38978 32.2071C5.44008 32.4358 5.48124 32.6096 5.5224 32.7834C5.56356 32.9572 5.57271 33.0166 5.591 33.0806C5.64588 33.3322 5.68704 33.4922 5.72363 33.6523C5.76022 33.8124 5.78309 33.9038 5.80138 33.9679C5.83797 34.1325 5.87455 34.2697 5.90657 34.4252C5.93858 34.5807 5.93858 34.5715 5.95687 34.6401C6.03005 34.9283 6.07578 35.0975 6.12609 35.3079C6.17639 35.5182 6.22213 35.6966 6.26329 35.8567C6.26329 35.9344 6.29987 36.0076 6.32274 36.0808C6.34561 36.1539 6.38219 36.314 6.40963 36.4283C6.43707 36.5427 6.48738 36.7119 6.52397 36.8582C6.56055 37.0046 6.56513 37.0183 6.58799 37.1006L6.62915 37.2561L6.28158 37.6586C6.28158 37.6174 6.25871 37.5808 6.24957 37.5442C6.24042 37.5076 6.22213 37.4528 6.21298 37.407C6.20383 37.3613 6.18554 37.311 6.17639 37.2653C6.13981 37.1326 6.10322 37 6.07121 36.8719L6.03919 36.7485L5.92943 36.3277V36.2408C5.84254 35.8887 5.75107 35.5411 5.66418 35.1889L5.44008 34.6722C5.3852 34.4572 5.34404 34.288 5.30288 34.1188C5.17483 33.5654 5.04678 33.0258 4.92787 32.4907C4.562 30.8626 4.23577 29.2482 3.94917 27.6475C3.82112 26.9386 3.70221 26.2297 3.58788 25.53C3.56044 25.3379 3.53299 25.1733 3.50555 25.0041C3.42323 24.4736 3.35006 23.9614 3.28146 23.4537V23.376L3.22658 22.9461V22.8729C3.22658 22.7083 3.18085 22.5482 3.16255 22.3881C3.14426 22.2281 3.11682 22.0406 3.09853 21.8668C3.08023 21.693 3.05736 21.5421 3.04364 21.4094V21.3042L3.00248 20.9292V20.8012L2.96133 20.4262C2.95907 20.3911 2.95907 20.356 2.96133 20.321L2.90644 19.8042L2.87901 19.4703C2.78297 19.2691 2.77382 19.1685 2.76467 19.0679Z" fill="#175D3A"/>
</svg>
