<svg width="432" height="432" viewBox="0 0 432 432" fill="none" xmlns="http://www.w3.org/2000/svg">
<g opacity="0.3">
<g clip-path="url(#clip0_909_2)">
<path d="M261.389 38.2534L157.021 142.622L157.963 145.398L263.52 39.8414C262.822 39.2992 262.112 38.7698 261.389 38.2534Z" fill="url(#paint0_linear_909_2)"/>
<path d="M198.386 64.0747L147.673 114.787C147.944 115.756 148.267 116.775 148.5 117.679L238.951 27.228C237.987 26.9353 237.019 26.6642 236.046 26.4146L198.386 64.0747Z" fill="url(#paint1_linear_909_2)"/>
<path d="M179.795 45.4833L145.362 79.9157C145.027 81.4133 144.768 82.9109 144.639 84.3569L203.266 25.7302C201.588 26.0917 199.935 26.479 198.309 26.9696L179.795 45.4833Z" fill="url(#paint2_linear_909_2)"/>
<path d="M207.682 73.3701L152.166 128.885L153.083 131.584L252.133 32.5341C251.319 32.1081 250.428 31.6562 249.641 31.3076L207.682 73.3701Z" fill="url(#paint3_linear_909_2)"/>
<path d="M189.09 54.779L144.536 99.3332C144.665 100.418 144.872 101.58 144.988 102.6L223.239 24.3488C222.051 24.2714 220.824 24.181 219.662 24.2068L189.09 54.779Z" fill="url(#paint4_linear_909_2)"/>
<path d="M272.751 138.439L110.917 300.273C110.9 301.495 110.913 302.722 110.956 303.952L290.412 124.496C290.98 122.74 291.523 120.984 292 119.19L272.751 138.439Z" fill="url(#paint5_linear_909_2)"/>
<path d="M254.159 119.848L144.42 229.588C141.502 233.822 138.533 238.057 135.473 242.253L292.852 84.8735C292.62 83.8923 292.375 82.924 292.078 81.9299L254.159 119.848Z" fill="url(#paint6_linear_909_2)"/>
<path d="M235.568 101.257L164.289 172.536C164.38 173.737 164.457 174.95 164.457 176.086L281.491 59.0524C280.988 58.3165 280.432 57.529 279.968 56.8576L235.568 101.257Z" fill="url(#paint7_linear_909_2)"/>
<path d="M263.455 129.144L115.152 277.447C114.506 279.246 113.938 281.053 113.447 282.869L294.711 101.605C294.737 100.392 294.789 99.1008 294.699 97.9001L263.455 129.144Z" fill="url(#paint8_linear_909_2)"/>
<path d="M244.864 110.552L162.675 192.741C162.262 194.471 161.81 196.188 161.268 197.866L288.088 71.0462C287.701 70.1941 287.262 69.2904 286.901 68.5158L244.864 110.552Z" fill="url(#paint9_linear_909_2)"/>
<path d="M226.273 91.9614L161.449 156.785C161.707 157.792 162.004 158.812 162.198 159.755L273.228 48.724C272.609 48.1043 271.989 47.4846 271.369 46.8649L226.273 91.9614Z" fill="url(#paint10_linear_909_2)"/>
<path d="M216.977 268.577L131.006 354.549C131.561 355.233 132.181 355.956 132.697 356.576L272.686 216.587C272.286 215.722 271.886 214.805 271.563 213.992L216.977 268.577Z" fill="url(#paint11_linear_909_2)"/>
<path d="M197.74 250.632L117.011 331.361C117.385 332.226 117.811 333.143 118.147 333.944L267.651 184.44C267.858 182.942 268.09 181.419 268.374 179.998L197.74 250.632Z" fill="url(#paint12_linear_909_2)"/>
<path d="M188.445 241.336L112.57 317.212C112.789 318.206 113.086 319.277 113.28 320.22L276.456 157.043C277.489 154.745 278.509 152.409 279.632 150.149L188.445 241.336Z" fill="url(#paint13_linear_909_2)"/>
<path d="M272.751 324.351L203.576 393.526C204.751 393.616 205.977 393.706 207.113 393.706L304.214 296.606C304.149 295.457 304.046 294.321 303.917 293.185L272.751 324.351Z" fill="url(#paint14_linear_909_2)"/>
<path d="M254.159 305.76L173.662 386.257C174.54 386.619 175.47 387.032 176.309 387.329L297.1 266.538C296.751 265.647 296.351 264.704 296.041 263.878L254.159 305.76Z" fill="url(#paint15_linear_909_2)"/>
<path d="M282.046 333.646L222.98 392.712C224.517 392.467 226.053 392.222 227.538 391.873L303.052 316.359C303.336 314.862 303.568 313.39 303.775 311.918L282.046 333.646Z" fill="url(#paint16_linear_909_2)"/>
<path d="M263.455 315.055L187.606 390.905C188.613 391.163 189.645 391.447 190.614 391.615L301.631 280.597C301.399 279.616 301.063 278.583 300.844 277.666L263.455 315.055Z" fill="url(#paint17_linear_909_2)"/>
<path d="M244.864 296.464L161.203 380.125C161.991 380.576 162.843 381.067 163.592 381.454L291.51 253.537C291.122 252.685 290.67 251.794 290.322 251.006L244.864 296.464Z" fill="url(#paint18_linear_909_2)"/>
<path d="M234.923 287.814L149.997 372.74C150.707 373.269 151.482 373.837 152.153 374.302L285.364 241.091C284.951 240.265 284.473 239.4 284.099 238.638L234.923 287.814Z" fill="url(#paint19_linear_909_2)"/>
<path d="M225.627 278.519L139.94 364.206C140.56 364.826 141.231 365.497 141.864 366L278.961 228.903L277.682 226.463L225.627 278.519Z" fill="url(#paint20_linear_909_2)"/>
<path d="M209.489 261.089L268.064 202.514C267.845 201.443 267.638 200.358 267.496 199.364L123.259 343.601C123.724 344.375 124.202 345.137 124.692 345.886L209.489 261.089Z" fill="url(#paint21_linear_909_2)"/>
<path d="M295.383 338.901L250.286 383.998C253.114 382.591 255.838 381.028 258.601 379.402L290.658 347.345C292.374 344.612 293.951 341.794 295.383 338.901Z" fill="url(#paint22_linear_909_2)"/>
</g>
</g>
<defs>
<linearGradient id="paint0_linear_909_2" x1="157.033" y1="144.468" x2="262.59" y2="38.9118" gradientUnits="userSpaceOnUse">
<stop stop-color="#FDFAF9" stop-opacity="0"/>
<stop offset="1" stop-color="#2CB470"/>
</linearGradient>
<linearGradient id="paint1_linear_909_2" x1="147.57" y1="116.75" x2="238.021" y2="26.2984" gradientUnits="userSpaceOnUse">
<stop stop-color="#FDFAF9" stop-opacity="0"/>
<stop offset="1" stop-color="#2CB470"/>
</linearGradient>
<linearGradient id="paint2_linear_909_2" x1="143.645" y1="83.4919" x2="202.272" y2="24.8652" gradientUnits="userSpaceOnUse">
<stop stop-color="#FDFAF9" stop-opacity="0"/>
<stop offset="1" stop-color="#2CB470"/>
</linearGradient>
<linearGradient id="paint3_linear_909_2" x1="152.205" y1="130.706" x2="251.255" y2="31.6562" gradientUnits="userSpaceOnUse">
<stop stop-color="#FDFAF9" stop-opacity="0"/>
<stop offset="1" stop-color="#2CB470"/>
</linearGradient>
<linearGradient id="paint4_linear_909_2" x1="144.058" y1="101.67" x2="222.309" y2="23.4193" gradientUnits="userSpaceOnUse">
<stop stop-color="#FDFAF9" stop-opacity="0"/>
<stop offset="1" stop-color="#2CB470"/>
</linearGradient>
<linearGradient id="paint5_linear_909_2" x1="110.026" y1="303.023" x2="292.904" y2="120.145" gradientUnits="userSpaceOnUse">
<stop stop-color="#FDFAF9" stop-opacity="0"/>
<stop offset="1" stop-color="#2CB470"/>
</linearGradient>
<linearGradient id="paint6_linear_909_2" x1="134.543" y1="241.323" x2="293.007" y2="82.8594" gradientUnits="userSpaceOnUse">
<stop stop-color="#FDFAF9" stop-opacity="0"/>
<stop offset="1" stop-color="#2CB470"/>
</linearGradient>
<linearGradient id="paint7_linear_909_2" x1="163.527" y1="175.157" x2="280.884" y2="57.8001" gradientUnits="userSpaceOnUse">
<stop stop-color="#FDFAF9" stop-opacity="0"/>
<stop offset="1" stop-color="#2CB470"/>
</linearGradient>
<linearGradient id="paint8_linear_909_2" x1="112.479" y1="281.979" x2="295.589" y2="98.8684" gradientUnits="userSpaceOnUse">
<stop stop-color="#FDFAF9" stop-opacity="0"/>
<stop offset="1" stop-color="#2CB470"/>
</linearGradient>
<linearGradient id="paint9_linear_909_2" x1="160.339" y1="196.937" x2="287.83" y2="69.4453" gradientUnits="userSpaceOnUse">
<stop stop-color="#FDFAF9" stop-opacity="0"/>
<stop offset="1" stop-color="#2CB470"/>
</linearGradient>
<linearGradient id="paint10_linear_909_2" x1="161.268" y1="158.825" x2="272.376" y2="47.717" gradientUnits="userSpaceOnUse">
<stop stop-color="#FDFAF9" stop-opacity="0"/>
<stop offset="1" stop-color="#2CB470"/>
</linearGradient>
<linearGradient id="paint11_linear_909_2" x1="131.768" y1="355.646" x2="272.492" y2="214.921" gradientUnits="userSpaceOnUse">
<stop stop-color="#FDFAF9" stop-opacity="0"/>
<stop offset="1" stop-color="#2CB470"/>
</linearGradient>
<linearGradient id="paint12_linear_909_2" x1="117.217" y1="333.014" x2="269.342" y2="180.889" gradientUnits="userSpaceOnUse">
<stop stop-color="#FDFAF9" stop-opacity="0"/>
<stop offset="1" stop-color="#2CB470"/>
</linearGradient>
<linearGradient id="paint13_linear_909_2" x1="112.35" y1="319.29" x2="280.562" y2="151.079" gradientUnits="userSpaceOnUse">
<stop stop-color="#FDFAF9" stop-opacity="0"/>
<stop offset="1" stop-color="#2CB470"/>
</linearGradient>
<linearGradient id="paint14_linear_909_2" x1="204.505" y1="394.455" x2="304.846" y2="294.115" gradientUnits="userSpaceOnUse">
<stop stop-color="#FDFAF9" stop-opacity="0"/>
<stop offset="1" stop-color="#2CB470"/>
</linearGradient>
<linearGradient id="paint15_linear_909_2" x1="174.592" y1="387.187" x2="296.971" y2="264.808" gradientUnits="userSpaceOnUse">
<stop stop-color="#FDFAF9" stop-opacity="0"/>
<stop offset="1" stop-color="#2CB470"/>
</linearGradient>
<linearGradient id="paint16_linear_909_2" x1="223.91" y1="393.642" x2="304.691" y2="312.861" gradientUnits="userSpaceOnUse">
<stop stop-color="#FDFAF9" stop-opacity="0"/>
<stop offset="1" stop-color="#2CB470"/>
</linearGradient>
<linearGradient id="paint17_linear_909_2" x1="188.535" y1="391.834" x2="301.761" y2="278.609" gradientUnits="userSpaceOnUse">
<stop stop-color="#FDFAF9" stop-opacity="0"/>
<stop offset="1" stop-color="#2CB470"/>
</linearGradient>
<linearGradient id="paint18_linear_909_2" x1="162.133" y1="381.054" x2="291.251" y2="251.936" gradientUnits="userSpaceOnUse">
<stop stop-color="#FDFAF9" stop-opacity="0"/>
<stop offset="1" stop-color="#2CB470"/>
</linearGradient>
<linearGradient id="paint19_linear_909_2" x1="150.927" y1="373.669" x2="285.016" y2="239.58" gradientUnits="userSpaceOnUse">
<stop stop-color="#FDFAF9" stop-opacity="0"/>
<stop offset="1" stop-color="#2CB470"/>
</linearGradient>
<linearGradient id="paint20_linear_909_2" x1="140.87" y1="365.135" x2="278.612" y2="227.393" gradientUnits="userSpaceOnUse">
<stop stop-color="#FDFAF9" stop-opacity="0"/>
<stop offset="1" stop-color="#2CB470"/>
</linearGradient>
<linearGradient id="paint21_linear_909_2" x1="123.815" y1="345.008" x2="268.516" y2="200.307" gradientUnits="userSpaceOnUse">
<stop stop-color="#FDFAF9" stop-opacity="0"/>
<stop offset="1" stop-color="#2CB470"/>
</linearGradient>
<linearGradient id="paint22_linear_909_2" x1="251.216" y1="384.927" x2="296.287" y2="339.857" gradientUnits="userSpaceOnUse">
<stop stop-color="#FDFAF9" stop-opacity="0"/>
<stop offset="1" stop-color="#2CB470"/>
</linearGradient>
<clipPath id="clip0_909_2">
<rect width="317.438" height="291.84" fill="white" transform="translate(0.506104 224.772) rotate(-45)"/>
</clipPath>
</defs>
</svg>
