<svg width="34" height="34" viewBox="0 0 34 34" fill="none" xmlns="http://www.w3.org/2000/svg">
<path d="M23.1526 21.6755L21.3016 22.131L20.165 18.5872L22.0209 18.1316L23.1526 21.6755Z" fill="#24945C"/>
<path d="M22.7497 21.9729L20.8938 22.4284L21.3014 22.1311L23.1525 21.6755L22.7497 21.9729Z" fill="#1C7448"/>
<path d="M22.021 18.1316L23.1527 21.6755L22.7499 21.9728L21.6565 18.5536L22.021 18.1316Z" fill="#18623D"/>
<path d="M22.7498 21.9729L20.8939 22.4285L19.8005 19.0093L21.6564 18.5537L22.7498 21.9729Z" fill="#145434"/>
<path d="M21.6564 18.5536L19.8005 19.0092L20.165 18.5872L22.0208 18.1316L21.6564 18.5536Z" fill="#11462C"/>
<path d="M19.556 10.4302L17.7002 10.8809L16.8418 8.18588L18.6929 7.73511L19.556 10.4302Z" fill="#24945C"/>
<path d="M19.1915 20.208L17.3357 20.6636L20.165 18.5872L22.0209 18.1316L19.1915 20.208Z" fill="#0E3B24"/>
<path d="M19.1915 20.2082L17.3357 20.6637L17.7001 10.881L19.556 10.4302L19.1915 20.2082Z" fill="#269D61"/>
<path d="M19.1915 10.8474L17.3357 11.303L17.7001 10.881L19.556 10.4302L19.1915 10.8474Z" fill="#11452B"/>
<path d="M19.1915 10.8474L17.3356 11.303L16.4724 8.60792L18.3283 8.15234L19.1915 10.8474Z" fill="#145434"/>
<path d="M18.3283 8.15232L16.4724 8.60789L16.8417 8.18588L18.6927 7.73511L18.3283 8.15232Z" fill="#11462C"/>
<path d="M18.6928 7.73511L19.556 10.4302L19.1916 10.8474L18.3284 8.15232L18.6928 7.73511Z" fill="#18623D"/>
<path d="M23.7904 32.4269L21.9346 32.8777C21.9841 32.8451 22.0306 32.8082 22.0736 32.7674L23.9295 32.3167L23.7904 32.4269Z" fill="#0F3C26"/>
<path d="M23.9296 32.3167L22.0593 32.7674C22.1169 32.7147 22.1744 32.6523 22.232 32.59L24.1022 32.1296C24.0447 32.1968 23.9871 32.2543 23.9296 32.3119" fill="#0F3E27"/>
<path d="M23.2821 32.6667L21.4263 33.1223C21.5308 33.097 21.6321 33.06 21.7284 33.012L23.5794 32.5325C23.4849 32.5805 23.3851 32.6175 23.2821 32.6428" fill="#0E3A24"/>
<path d="M23.5793 32.5564L21.7283 33.036C21.8002 32.9963 21.8691 32.9515 21.9345 32.9017L23.7903 32.4509C23.7229 32.4986 23.6524 32.5418 23.5793 32.5804" fill="#0F3C26"/>
<path d="M22.9129 33.0887L21.0619 33.5682C20.9156 33.5895 20.767 33.5895 20.6207 33.5682H20.5583L22.4142 33.0887H22.4765C22.6247 33.0999 22.7737 33.087 22.9177 33.0503" fill="#0E3823"/>
<path d="M18.827 20.63L16.9712 21.0856L17.3356 20.6636L19.1915 20.208L18.827 20.63Z" fill="#0F3E27"/>
<path d="M18.827 20.6302L16.9712 21.0858L17.3356 11.303L19.1915 10.8474L18.827 20.6302Z" fill="#165837"/>
<path d="M19.5561 10.4302L19.1916 20.2082L18.8271 20.6302L19.1916 10.8474L19.5561 10.4302Z" fill="#18603C"/>
<path d="M23.2821 32.6667L21.4263 33.1222C21.2803 33.1567 21.13 33.1697 20.9803 33.1606H20.846C20.7894 33.1557 20.7332 33.146 20.6782 33.1318C19.9157 32.9448 19.0525 32.259 18.1558 31.1609L20.0116 30.6909C20.9084 31.7843 21.7716 32.47 22.5388 32.6571L22.7019 32.6906H22.841C22.9907 32.6997 23.1409 32.6868 23.2869 32.6523" fill="#196A42"/>
<path d="M18.5249 25.0708L16.6738 25.5264L20.8939 22.4285L22.7497 21.9729L18.5249 25.0708Z" fill="#1C7448"/>
<path d="M15.1968 14.6645L13.3457 15.1201L16.1702 13.0532L18.0213 12.5977L15.1968 14.6645Z" fill="#1C7448"/>
<path d="M19.0907 29.4345L17.2349 29.8901C16.9727 29.4937 16.709 29.0669 16.4436 28.6097L18.2947 28.1589C18.5584 28.6385 18.827 29.0413 19.0907 29.4345Z" fill="#1B7247"/>
<path d="M14.1034 11.2453L12.2476 11.6961L12.2092 11.5762L14.0651 11.1206L14.1034 11.2453Z" fill="#124B2F"/>
<path d="M18.6928 7.73511L18.3284 8.15232L14.1035 11.2454L14.0652 11.1207L18.6928 7.73511Z" fill="#155736"/>
<path d="M14.0651 11.1207L12.2092 11.5763L16.8417 8.18588L18.6927 7.73511L14.0651 11.1207Z" fill="#0E3B24"/>
<path d="M12.8087 12.3864L10.9576 12.8372V12.7413L10.809 11.8685C10.809 11.8014 10.809 11.7582 10.785 11.7151C10.761 11.6719 10.785 11.5904 10.761 11.5568C10.761 11.4513 10.761 11.4177 10.761 11.389C10.7425 11.3004 10.7297 11.2107 10.7227 11.1204L10.6699 10.7608L10.6459 10.5785C10.6459 10.4826 10.6459 10.4395 10.622 10.4011C10.598 10.3627 10.622 10.262 10.622 10.2237C10.622 10.1853 10.55 10.0702 10.55 10.0702V9.88798C10.55 9.81125 10.55 9.7633 10.55 9.71534C10.55 9.66739 10.55 9.57627 10.55 9.52352C10.4733 8.78981 10.4253 8.08488 10.4014 7.4231L12.2524 6.96753C12.2764 7.6341 12.3292 8.33904 12.4011 9.06795C12.4011 9.1255 12.4011 9.17825 12.4251 9.25977C12.449 9.3413 12.4251 9.35568 12.4251 9.43241V9.61943C12.4251 9.6578 12.4251 9.70096 12.4251 9.79207C12.4251 9.88319 12.4251 9.87359 12.449 9.9695C12.473 10.0654 12.449 10.051 12.473 10.1469L12.497 10.3292L12.5449 10.6888L12.5833 10.9574C12.5833 10.9861 12.5833 11.0197 12.6121 11.1252C12.6409 11.2307 12.6121 11.1971 12.6361 11.2835C12.66 11.3698 12.6361 11.3698 12.66 11.4417C12.7032 11.7199 12.7512 12.0076 12.8087 12.3097V12.4104" fill="#24975D"/>
<path d="M12.1804 6.94367L10.3294 7.39924C10.3006 6.67033 10.3054 5.98457 10.3294 5.35157L12.1804 4.896C12.1469 5.529 12.1469 6.21475 12.1804 6.94367Z" fill="#23935B"/>
<path d="M12.1899 4.89603L10.3389 5.35161C10.3389 4.95358 10.3916 4.57474 10.4348 4.22467L12.2906 3.74512C12.2427 4.09998 12.2091 4.47403 12.1899 4.87206" fill="#228F58"/>
<path d="M12.2907 3.76893L10.4348 4.24848C10.4732 3.96075 10.5163 3.69221 10.5691 3.43804L12.4249 2.9585C12.3722 3.21266 12.3242 3.486 12.2907 3.76893Z" fill="#218B56"/>
<path d="M12.4251 2.9585L10.55 3.41407C10.598 3.18868 10.646 2.97768 10.7083 2.78106L12.5594 2.30151C12.5018 2.50292 12.4491 2.71393 12.4059 2.93452" fill="#208753"/>
<path d="M12.5786 2.32562L10.7275 2.80517C10.7765 2.63077 10.8357 2.45943 10.905 2.29205L12.756 1.8125C12.6937 1.97075 12.6313 2.14339 12.5786 2.32562Z" fill="#1F8351"/>
<path d="M12.7558 1.81245L10.9048 2.292C10.9633 2.14273 11.0306 1.99702 11.1062 1.85561L12.9477 1.38086C12.872 1.52061 12.8048 1.66473 12.7463 1.81245" fill="#1E7E4E"/>
<path d="M12.9477 1.38078L11.0967 1.83155C11.1655 1.70526 11.2424 1.58353 11.3269 1.4671L13.1827 0.987549C13.0956 1.10485 13.0171 1.22825 12.9477 1.3568" fill="#1D7A4C"/>
<path d="M13.1923 1.01169L11.3364 1.49124C11.4191 1.38029 11.5123 1.27752 11.6146 1.18433L13.4704 0.72876C13.368 0.821845 13.2749 0.924629 13.1923 1.03567" fill="#1C7649"/>
<path d="M13.4704 0.704636L11.6145 1.18418C11.6585 1.14301 11.7049 1.10458 11.7536 1.06909C11.8275 1.01143 11.9061 0.960101 11.9886 0.915637L13.8204 0.479248C13.7474 0.517819 13.6769 0.561068 13.6094 0.608726L13.4704 0.723818" fill="#1B7247"/>
<path d="M13.8204 0.479332L11.9885 0.915721C12.0822 0.865688 12.1822 0.828585 12.2858 0.805425L14.1177 0.349854C14.0147 0.375162 13.915 0.412168 13.8204 0.46015" fill="#1A6E44"/>
<path d="M12.8087 12.3867L10.9576 12.8374V12.7415L10.809 11.8688C10.809 11.8016 10.809 11.7585 10.785 11.7153C10.761 11.6721 10.785 11.5906 10.761 11.5571C10.761 11.4516 10.761 11.418 10.761 11.3892C10.7425 11.3006 10.7297 11.2109 10.7227 11.1207L10.6699 10.761L10.6459 10.5788C10.6459 10.4829 10.6459 10.4397 10.622 10.4013C10.598 10.363 10.622 10.2623 10.622 10.2239C10.622 10.1855 10.55 10.0705 10.55 10.0705V9.88823C10.55 9.8115 10.55 9.76354 10.55 9.71559C10.55 9.66763 10.55 9.57652 10.55 9.52377C10.4733 8.79006 10.4253 8.08512 10.4014 7.42334L12.2524 6.96777C12.2764 7.63435 12.3292 8.33928 12.4011 9.0682C12.4011 9.12574 12.4011 9.17849 12.4251 9.26002C12.449 9.34154 12.4251 9.35593 12.4251 9.43265V9.61968C12.4251 9.65804 12.4251 9.7012 12.4251 9.79232C12.4251 9.88343 12.4251 9.87384 12.449 9.96975C12.473 10.0657 12.449 10.0513 12.473 10.1472L12.497 10.3294L12.5449 10.6891L12.5833 10.9576C12.5833 10.9864 12.5833 11.02 12.6121 11.1255C12.6409 11.231 12.6121 11.1974 12.6361 11.2837C12.66 11.37 12.6361 11.37 12.66 11.442C12.7032 11.7201 12.7512 12.0078 12.8087 12.3099V12.4107" fill="#24975D"/>
<path d="M12.8087 12.3867L10.9576 12.8374V12.7415L10.809 11.8688C10.809 11.8016 10.809 11.7585 10.785 11.7153C10.761 11.6721 10.785 11.5906 10.761 11.5571C10.761 11.4516 10.761 11.418 10.761 11.3892C10.7425 11.3006 10.7297 11.2109 10.7227 11.1207L10.6699 10.761L10.6459 10.5788C10.6459 10.4829 10.6459 10.4397 10.622 10.4013C10.598 10.363 10.622 10.2623 10.622 10.2239C10.622 10.1855 10.55 10.0705 10.55 10.0705V9.88823C10.55 9.8115 10.55 9.76354 10.55 9.71559C10.55 9.66763 10.55 9.57652 10.55 9.52377C10.4733 8.79006 10.4253 8.08512 10.4014 7.42334L12.2524 6.96777C12.2764 7.63435 12.3292 8.33928 12.4011 9.0682C12.4011 9.12574 12.4011 9.17849 12.4251 9.26002C12.449 9.34154 12.4251 9.35593 12.4251 9.43265V9.61968C12.4251 9.65804 12.4251 9.7012 12.4251 9.79232C12.4251 9.88343 12.4251 9.87384 12.449 9.96975C12.473 10.0657 12.449 10.0513 12.473 10.1472L12.497 10.3294L12.5449 10.6891L12.5833 10.9576C12.5833 10.9864 12.5833 11.02 12.6121 11.1255C12.6409 11.231 12.6121 11.1974 12.6361 11.2837C12.66 11.37 12.6361 11.37 12.66 11.442C12.7032 11.7201 12.7512 12.0078 12.8087 12.3099V12.4107" fill="#24975D"/>
<path d="M12.8087 12.3867L10.9576 12.8374V12.7415L10.809 11.8688C10.809 11.8016 10.809 11.7585 10.785 11.7153C10.761 11.6721 10.785 11.5906 10.761 11.5571C10.761 11.4516 10.761 11.418 10.761 11.3892C10.7425 11.3006 10.7297 11.2109 10.7227 11.1207L10.6699 10.761L10.6459 10.5788C10.6459 10.4829 10.6459 10.4397 10.622 10.4013C10.598 10.363 10.622 10.2623 10.622 10.2239C10.622 10.1855 10.55 10.0705 10.55 10.0705V9.88823C10.55 9.8115 10.55 9.76354 10.55 9.71559C10.55 9.66763 10.55 9.57652 10.55 9.52377C10.4733 8.79006 10.4253 8.08512 10.4014 7.42334L12.2524 6.96777C12.2764 7.63435 12.3292 8.33928 12.4011 9.0682C12.4011 9.12574 12.4011 9.17849 12.4251 9.26002C12.449 9.34154 12.4251 9.35593 12.4251 9.43265V9.61968C12.4251 9.65804 12.4251 9.7012 12.4251 9.79232C12.4251 9.88343 12.4251 9.87384 12.449 9.96975C12.473 10.0657 12.449 10.0513 12.473 10.1472L12.497 10.3294L12.5449 10.6891L12.5833 10.9576C12.5833 10.9864 12.5833 11.02 12.6121 11.1255C12.6409 11.231 12.6121 11.1974 12.6361 11.2837C12.66 11.37 12.6361 11.37 12.66 11.442C12.7032 11.7201 12.7512 12.0078 12.8087 12.3099V12.4107" fill="#24975D"/>
<path d="M12.8087 12.3867L10.9576 12.8374V12.7415L10.809 11.8688C10.809 11.8016 10.809 11.7585 10.785 11.7153C10.761 11.6721 10.785 11.5906 10.761 11.5571C10.761 11.4516 10.761 11.418 10.761 11.3892C10.7425 11.3006 10.7297 11.2109 10.7227 11.1207L10.6699 10.761L10.6459 10.5788C10.6459 10.4829 10.6459 10.4397 10.622 10.4013C10.598 10.363 10.622 10.2623 10.622 10.2239C10.622 10.1855 10.55 10.0705 10.55 10.0705V9.88823C10.55 9.8115 10.55 9.76354 10.55 9.71559C10.55 9.66763 10.55 9.57652 10.55 9.52377C10.4733 8.79006 10.4253 8.08512 10.4014 7.42334L12.2524 6.96777C12.2764 7.63435 12.3292 8.33928 12.4011 9.0682C12.4011 9.12574 12.4011 9.17849 12.4251 9.26002C12.449 9.34154 12.4251 9.35593 12.4251 9.43265V9.61968C12.4251 9.65804 12.4251 9.7012 12.4251 9.79232C12.4251 9.88343 12.4251 9.87384 12.449 9.96975C12.473 10.0657 12.449 10.0513 12.473 10.1472L12.497 10.3294L12.5449 10.6891L12.5833 10.9576C12.5833 10.9864 12.5833 11.02 12.6121 11.1255C12.6409 11.231 12.6121 11.1974 12.6361 11.2837C12.66 11.37 12.6361 11.37 12.66 11.442C12.7032 11.7201 12.7512 12.0078 12.8087 12.3099V12.4107" fill="#24975D"/>
<path d="M12.8087 12.3867L10.9576 12.8374V12.7415L10.809 11.8688C10.809 11.8016 10.809 11.7585 10.785 11.7153C10.761 11.6721 10.785 11.5906 10.761 11.5571C10.761 11.4516 10.761 11.418 10.761 11.3892C10.7425 11.3006 10.7297 11.2109 10.7227 11.1207L10.6699 10.761L10.6459 10.5788C10.6459 10.4829 10.6459 10.4397 10.622 10.4013C10.598 10.363 10.622 10.2623 10.622 10.2239C10.622 10.1855 10.55 10.0705 10.55 10.0705V9.88823C10.55 9.8115 10.55 9.76354 10.55 9.71559C10.55 9.66763 10.55 9.57652 10.55 9.52377C10.4733 8.79006 10.4253 8.08512 10.4014 7.42334L12.2524 6.96777C12.2764 7.63435 12.3292 8.33928 12.4011 9.0682C12.4011 9.12574 12.4011 9.17849 12.4251 9.26002C12.449 9.34154 12.4251 9.35593 12.4251 9.43265V9.61968C12.4251 9.65804 12.4251 9.7012 12.4251 9.79232C12.4251 9.88343 12.4251 9.87384 12.449 9.96975C12.473 10.0657 12.449 10.0513 12.473 10.1472L12.497 10.3294L12.5449 10.6891L12.5833 10.9576C12.5833 10.9864 12.5833 11.02 12.6121 11.1255C12.6409 11.231 12.6121 11.1974 12.6361 11.2837C12.66 11.37 12.6361 11.37 12.66 11.442C12.7032 11.7201 12.7512 12.0078 12.8087 12.3099V12.4107" fill="#24975D"/>
<path d="M12.8087 12.3867L10.9576 12.8374V12.7415L10.809 11.8688C10.809 11.8016 10.809 11.7585 10.785 11.7153C10.761 11.6721 10.785 11.5906 10.761 11.5571C10.761 11.4516 10.761 11.418 10.761 11.3892C10.7425 11.3006 10.7297 11.2109 10.7227 11.1207L10.6699 10.761L10.6459 10.5788C10.6459 10.4829 10.6459 10.4397 10.622 10.4013C10.598 10.363 10.622 10.2623 10.622 10.2239C10.622 10.1855 10.55 10.0705 10.55 10.0705V9.88823C10.55 9.8115 10.55 9.76354 10.55 9.71559C10.55 9.66763 10.55 9.57652 10.55 9.52377C10.4733 8.79006 10.4253 8.08512 10.4014 7.42334L12.2524 6.96777C12.2764 7.63435 12.3292 8.33928 12.4011 9.0682C12.4011 9.12574 12.4011 9.17849 12.4251 9.26002C12.449 9.34154 12.4251 9.35593 12.4251 9.43265V9.61968C12.4251 9.65804 12.4251 9.7012 12.4251 9.79232C12.4251 9.88343 12.4251 9.87384 12.449 9.96975C12.473 10.0657 12.449 10.0513 12.473 10.1472L12.497 10.3294L12.5449 10.6891L12.5833 10.9576C12.5833 10.9864 12.5833 11.02 12.6121 11.1255C12.6409 11.231 12.6121 11.1974 12.6361 11.2837C12.66 11.37 12.6361 11.37 12.66 11.442C12.7032 11.7201 12.7512 12.0078 12.8087 12.3099V12.4107" fill="#24975D"/>
<path d="M12.8087 12.3867L10.9576 12.8374V12.7415L10.809 11.8688C10.809 11.8016 10.809 11.7585 10.785 11.7153C10.761 11.6721 10.785 11.5906 10.761 11.5571C10.761 11.4516 10.761 11.418 10.761 11.3892C10.7425 11.3006 10.7297 11.2109 10.7227 11.1207L10.6699 10.761L10.6459 10.5788C10.6459 10.4829 10.6459 10.4397 10.622 10.4013C10.598 10.363 10.622 10.2623 10.622 10.2239C10.622 10.1855 10.55 10.0705 10.55 10.0705V9.88823C10.55 9.8115 10.55 9.76354 10.55 9.71559C10.55 9.66763 10.55 9.57652 10.55 9.52377C10.4733 8.79006 10.4253 8.08512 10.4014 7.42334L12.2524 6.96777C12.2764 7.63435 12.3292 8.33928 12.4011 9.0682C12.4011 9.12574 12.4011 9.17849 12.4251 9.26002C12.449 9.34154 12.4251 9.35593 12.4251 9.43265V9.61968C12.4251 9.65804 12.4251 9.7012 12.4251 9.79232C12.4251 9.88343 12.4251 9.87384 12.449 9.96975C12.473 10.0657 12.449 10.0513 12.473 10.1472L12.497 10.3294L12.5449 10.6891L12.5833 10.9576C12.5833 10.9864 12.5833 11.02 12.6121 11.1255C12.6409 11.231 12.6121 11.1974 12.6361 11.2837C12.66 11.37 12.6361 11.37 12.66 11.442C12.7032 11.7201 12.7512 12.0078 12.8087 12.3099V12.4107" fill="#24975D"/>
<path d="M16.8513 25.3633L15.0002 25.814C14.77 25.3345 14.5207 24.7974 14.3145 24.2603L16.1703 23.7808C16.3957 24.3179 16.6211 24.8406 16.8513 25.3393" fill="#1E7E4E"/>
<path d="M16.1703 23.8049L14.3144 24.2844C14.089 23.733 13.8637 23.1671 13.6431 22.582L15.4989 22.1265C15.7195 22.7115 15.9401 23.2822 16.1703 23.8289" fill="#1F8351"/>
<path d="M15.499 22.1023L13.6431 22.5387C13.4177 21.9297 13.1924 21.3015 12.9766 20.6541L14.8324 20.1746C15.0482 20.822 15.2688 21.4502 15.499 22.0592" fill="#208753"/>
<path d="M14.8324 20.2177L12.9766 20.6973L12.7464 19.9876C12.7464 19.9204 12.7032 19.8581 12.684 19.791C12.6649 19.7238 12.6601 19.7238 12.6505 19.695L12.6217 19.5895C12.6083 19.5551 12.5971 19.5199 12.5881 19.484L12.5594 19.3881C12.5453 19.3523 12.5341 19.3154 12.5258 19.2778L12.4682 19.0572C12.4299 18.9278 12.4203 18.8894 12.4059 18.851C12.3723 18.7264 12.3579 18.688 12.3436 18.6448L12.3196 18.5489L14.1706 18.0981L14.1994 18.1893C14.1994 18.2324 14.1994 18.2756 14.2618 18.3955C14.2618 18.4338 14.2618 18.4722 14.3241 18.6017C14.3241 18.6352 14.3241 18.6736 14.3816 18.8031C14.3957 18.8389 14.4069 18.8758 14.4152 18.9134L14.444 19.0045C14.4573 19.0389 14.4685 19.0742 14.4775 19.11L14.5111 19.2155L14.5399 19.3114C14.5639 19.3785 14.583 19.4457 14.6022 19.5128L14.8372 20.2177" fill="#218B56"/>
<path d="M12.8087 12.3867L10.9576 12.8374V12.7415L10.809 11.8688C10.809 11.8016 10.809 11.7585 10.785 11.7153C10.761 11.6721 10.785 11.5906 10.761 11.5571C10.761 11.4516 10.761 11.418 10.761 11.3892C10.7425 11.3006 10.7297 11.2109 10.7227 11.1207L10.6699 10.761L10.6459 10.5788C10.6459 10.4829 10.6459 10.4397 10.622 10.4013C10.598 10.363 10.622 10.2623 10.622 10.2239C10.622 10.1855 10.55 10.0705 10.55 10.0705V9.88823C10.55 9.8115 10.55 9.76354 10.55 9.71559C10.55 9.66763 10.55 9.57652 10.55 9.52377C10.4733 8.79006 10.4253 8.08512 10.4014 7.42334L12.2524 6.96777C12.2764 7.63435 12.3292 8.33928 12.4011 9.0682C12.4011 9.12574 12.4011 9.17849 12.4251 9.26002C12.449 9.34154 12.4251 9.35593 12.4251 9.43265V9.61968C12.4251 9.65804 12.4251 9.7012 12.4251 9.79232C12.4251 9.88343 12.4251 9.87384 12.449 9.96975C12.473 10.0657 12.449 10.0513 12.473 10.1472L12.497 10.3294L12.5449 10.6891L12.5833 10.9576C12.5833 10.9864 12.5833 11.02 12.6121 11.1255C12.6409 11.231 12.6121 11.1974 12.6361 11.2837C12.66 11.37 12.6361 11.37 12.66 11.442C12.7032 11.7201 12.7512 12.0078 12.8087 12.3099V12.4107" fill="#24975D"/>
<path d="M13.5136 15.6764L11.6625 16.156C11.581 15.8203 11.5043 15.4942 11.4276 15.1729C11.4276 15.101 11.3988 15.0434 11.3892 14.9907C11.3796 14.9379 11.3604 14.8612 11.346 14.8084C11.3317 14.7557 11.3173 14.6694 11.3077 14.6166C11.2981 14.5639 11.2789 14.4871 11.2645 14.4344C11.2501 14.3816 11.2357 14.3001 11.2262 14.2522L11.1878 14.0651L11.1494 13.8733C11.1494 13.787 11.1207 13.739 11.1111 13.6911C11.1015 13.6431 11.0871 13.552 11.0775 13.5041L11.0295 13.2931C11.0295 13.2067 11.0056 13.1588 10.996 13.1108C10.9864 13.0629 10.972 12.9766 10.9624 12.9238V12.8375L12.8135 12.3867V12.4682C12.8135 12.521 12.8135 12.5737 12.8518 12.6553C12.8597 12.7182 12.8709 12.7806 12.8854 12.8423C12.8854 12.8902 12.8854 12.9382 12.919 13.0245L12.9573 13.2115C12.9573 13.2595 12.9573 13.3122 12.9957 13.3938C13.0341 13.4753 12.9957 13.4945 13.0341 13.5856L13.0724 13.7726L13.1108 13.9596C13.1108 14.0124 13.1348 14.0603 13.1491 14.1419C13.1635 14.2234 13.1491 14.2474 13.1923 14.3337C13.2355 14.42 13.1923 14.4392 13.2307 14.5111C13.269 14.5831 13.2546 14.6262 13.2738 14.6933C13.3458 15.0194 13.4225 15.3407 13.504 15.6524" fill="#23935B"/>
<path d="M12.8087 12.3867L10.9576 12.8374V12.7415L10.809 11.8688C10.809 11.8016 10.809 11.7585 10.785 11.7153C10.761 11.6721 10.785 11.5906 10.761 11.5571C10.761 11.4516 10.761 11.418 10.761 11.3892C10.7425 11.3006 10.7297 11.2109 10.7227 11.1207L10.6699 10.761L10.6459 10.5788C10.6459 10.4829 10.6459 10.4397 10.622 10.4013C10.598 10.363 10.622 10.2623 10.622 10.2239C10.622 10.1855 10.55 10.0705 10.55 10.0705V9.88823C10.55 9.8115 10.55 9.76354 10.55 9.71559C10.55 9.66763 10.55 9.57652 10.55 9.52377C10.4733 8.79006 10.4253 8.08512 10.4014 7.42334L12.2524 6.96777C12.2764 7.63435 12.3292 8.33928 12.4011 9.0682C12.4011 9.12574 12.4011 9.17849 12.4251 9.26002C12.449 9.34154 12.4251 9.35593 12.4251 9.43265V9.61968C12.4251 9.65804 12.4251 9.7012 12.4251 9.79232C12.4251 9.88343 12.4251 9.87384 12.449 9.96975C12.473 10.0657 12.449 10.0513 12.473 10.1472L12.497 10.3294L12.5449 10.6891L12.5833 10.9576C12.5833 10.9864 12.5833 11.02 12.6121 11.1255C12.6409 11.231 12.6121 11.1974 12.6361 11.2837C12.66 11.37 12.6361 11.37 12.66 11.442C12.7032 11.7201 12.7512 12.0078 12.8087 12.3099V12.4107" fill="#24975D"/>
<path d="M13.5136 15.6764L11.6625 16.156C11.581 15.8203 11.5043 15.4942 11.4276 15.1729C11.4276 15.101 11.3988 15.0434 11.3892 14.9907C11.3796 14.9379 11.3604 14.8612 11.346 14.8084C11.3317 14.7557 11.3173 14.6694 11.3077 14.6166C11.2981 14.5639 11.2789 14.4871 11.2645 14.4344C11.2501 14.3816 11.2357 14.3001 11.2262 14.2522L11.1878 14.0651L11.1494 13.8733C11.1494 13.787 11.1207 13.739 11.1111 13.6911C11.1015 13.6431 11.0871 13.552 11.0775 13.5041L11.0295 13.2931C11.0295 13.2067 11.0056 13.1588 10.996 13.1108C10.9864 13.0629 10.972 12.9766 10.9624 12.9238V12.8375L12.8135 12.3867V12.4682C12.8135 12.521 12.8135 12.5737 12.8518 12.6553C12.8597 12.7182 12.8709 12.7806 12.8854 12.8423C12.8854 12.8902 12.8854 12.9382 12.919 13.0245L12.9573 13.2115C12.9573 13.2595 12.9573 13.3122 12.9957 13.3938C13.0341 13.4753 12.9957 13.4945 13.0341 13.5856L13.0724 13.7726L13.1108 13.9596C13.1108 14.0124 13.1348 14.0603 13.1491 14.1419C13.1635 14.2234 13.1491 14.2474 13.1923 14.3337C13.2355 14.42 13.1923 14.4392 13.2307 14.5111C13.269 14.5831 13.2546 14.6262 13.2738 14.6933C13.3458 15.0194 13.4225 15.3407 13.504 15.6524" fill="#23935B"/>
<path d="M13.5136 15.6764L11.6625 16.156C11.581 15.8203 11.5043 15.4942 11.4276 15.1729C11.4276 15.101 11.3988 15.0434 11.3892 14.9907C11.3796 14.9379 11.3604 14.8612 11.346 14.8084C11.3317 14.7557 11.3173 14.6694 11.3077 14.6166C11.2981 14.5639 11.2789 14.4871 11.2645 14.4344C11.2501 14.3816 11.2357 14.3001 11.2262 14.2522L11.1878 14.0651L11.1494 13.8733C11.1494 13.787 11.1207 13.739 11.1111 13.6911C11.1015 13.6431 11.0871 13.552 11.0775 13.5041L11.0295 13.2931C11.0295 13.2067 11.0056 13.1588 10.996 13.1108C10.9864 13.0629 10.972 12.9766 10.9624 12.9238V12.8375L12.8135 12.3867V12.4682C12.8135 12.521 12.8135 12.5737 12.8518 12.6553C12.8597 12.7182 12.8709 12.7806 12.8854 12.8423C12.8854 12.8902 12.8854 12.9382 12.919 13.0245L12.9573 13.2115C12.9573 13.2595 12.9573 13.3122 12.9957 13.3938C13.0341 13.4753 12.9957 13.4945 13.0341 13.5856L13.0724 13.7726L13.1108 13.9596C13.1108 14.0124 13.1348 14.0603 13.1491 14.1419C13.1635 14.2234 13.1491 14.2474 13.1923 14.3337C13.2355 14.42 13.1923 14.4392 13.2307 14.5111C13.269 14.5831 13.2546 14.6262 13.2738 14.6933C13.3458 15.0194 13.4225 15.3407 13.504 15.6524" fill="#23935B"/>
<path d="M13.5136 15.6764L11.6625 16.156C11.581 15.8203 11.5043 15.4942 11.4276 15.1729C11.4276 15.101 11.3988 15.0434 11.3892 14.9907C11.3796 14.9379 11.3604 14.8612 11.346 14.8084C11.3317 14.7557 11.3173 14.6694 11.3077 14.6166C11.2981 14.5639 11.2789 14.4871 11.2645 14.4344C11.2501 14.3816 11.2357 14.3001 11.2262 14.2522L11.1878 14.0651L11.1494 13.8733C11.1494 13.787 11.1207 13.739 11.1111 13.6911C11.1015 13.6431 11.0871 13.552 11.0775 13.5041L11.0295 13.2931C11.0295 13.2067 11.0056 13.1588 10.996 13.1108C10.9864 13.0629 10.972 12.9766 10.9624 12.9238V12.8375L12.8135 12.3867V12.4682C12.8135 12.521 12.8135 12.5737 12.8518 12.6553C12.8597 12.7182 12.8709 12.7806 12.8854 12.8423C12.8854 12.8902 12.8854 12.9382 12.919 13.0245L12.9573 13.2115C12.9573 13.2595 12.9573 13.3122 12.9957 13.3938C13.0341 13.4753 12.9957 13.4945 13.0341 13.5856L13.0724 13.7726L13.1108 13.9596C13.1108 14.0124 13.1348 14.0603 13.1491 14.1419C13.1635 14.2234 13.1491 14.2474 13.1923 14.3337C13.2355 14.42 13.1923 14.4392 13.2307 14.5111C13.269 14.5831 13.2546 14.6262 13.2738 14.6933C13.3458 15.0194 13.4225 15.3407 13.504 15.6524" fill="#23935B"/>
<path d="M13.5136 15.6764L11.6625 16.156C11.581 15.8203 11.5043 15.4942 11.4276 15.1729C11.4276 15.101 11.3988 15.0434 11.3892 14.9907C11.3796 14.9379 11.3604 14.8612 11.346 14.8084C11.3317 14.7557 11.3173 14.6694 11.3077 14.6166C11.2981 14.5639 11.2789 14.4871 11.2645 14.4344C11.2501 14.3816 11.2357 14.3001 11.2262 14.2522L11.1878 14.0651L11.1494 13.8733C11.1494 13.787 11.1207 13.739 11.1111 13.6911C11.1015 13.6431 11.0871 13.552 11.0775 13.5041L11.0295 13.2931C11.0295 13.2067 11.0056 13.1588 10.996 13.1108C10.9864 13.0629 10.972 12.9766 10.9624 12.9238V12.8375L12.8135 12.3867V12.4682C12.8135 12.521 12.8135 12.5737 12.8518 12.6553C12.8597 12.7182 12.8709 12.7806 12.8854 12.8423C12.8854 12.8902 12.8854 12.9382 12.919 13.0245L12.9573 13.2115C12.9573 13.2595 12.9573 13.3122 12.9957 13.3938C13.0341 13.4753 12.9957 13.4945 13.0341 13.5856L13.0724 13.7726L13.1108 13.9596C13.1108 14.0124 13.1348 14.0603 13.1491 14.1419C13.1635 14.2234 13.1491 14.2474 13.1923 14.3337C13.2355 14.42 13.1923 14.4392 13.2307 14.5111C13.269 14.5831 13.2546 14.6262 13.2738 14.6933C13.3458 15.0194 13.4225 15.3407 13.504 15.6524" fill="#23935B"/>
<path d="M13.5136 15.6764L11.6625 16.156C11.581 15.8203 11.5043 15.4942 11.4276 15.1729C11.4276 15.101 11.3988 15.0434 11.3892 14.9907C11.3796 14.9379 11.3604 14.8612 11.346 14.8084C11.3317 14.7557 11.3173 14.6694 11.3077 14.6166C11.2981 14.5639 11.2789 14.4871 11.2645 14.4344C11.2501 14.3816 11.2357 14.3001 11.2262 14.2522L11.1878 14.0651L11.1494 13.8733C11.1494 13.787 11.1207 13.739 11.1111 13.6911C11.1015 13.6431 11.0871 13.552 11.0775 13.5041L11.0295 13.2931C11.0295 13.2067 11.0056 13.1588 10.996 13.1108C10.9864 13.0629 10.972 12.9766 10.9624 12.9238V12.8375L12.8135 12.3867V12.4682C12.8135 12.521 12.8135 12.5737 12.8518 12.6553C12.8597 12.7182 12.8709 12.7806 12.8854 12.8423C12.8854 12.8902 12.8854 12.9382 12.919 13.0245L12.9573 13.2115C12.9573 13.2595 12.9573 13.3122 12.9957 13.3938C13.0341 13.4753 12.9957 13.4945 13.0341 13.5856L13.0724 13.7726L13.1108 13.9596C13.1108 14.0124 13.1348 14.0603 13.1491 14.1419C13.1635 14.2234 13.1491 14.2474 13.1923 14.3337C13.2355 14.42 13.1923 14.4392 13.2307 14.5111C13.269 14.5831 13.2546 14.6262 13.2738 14.6933C13.3458 15.0194 13.4225 15.3407 13.504 15.6524" fill="#23935B"/>
<path d="M13.5136 15.6764L11.6625 16.156C11.581 15.8203 11.5043 15.4942 11.4276 15.1729C11.4276 15.101 11.3988 15.0434 11.3892 14.9907C11.3796 14.9379 11.3604 14.8612 11.346 14.8084C11.3317 14.7557 11.3173 14.6694 11.3077 14.6166C11.2981 14.5639 11.2789 14.4871 11.2645 14.4344C11.2501 14.3816 11.2357 14.3001 11.2262 14.2522L11.1878 14.0651L11.1494 13.8733C11.1494 13.787 11.1207 13.739 11.1111 13.6911C11.1015 13.6431 11.0871 13.552 11.0775 13.5041L11.0295 13.2931C11.0295 13.2067 11.0056 13.1588 10.996 13.1108C10.9864 13.0629 10.972 12.9766 10.9624 12.9238V12.8375L12.8135 12.3867V12.4682C12.8135 12.521 12.8135 12.5737 12.8518 12.6553C12.8597 12.7182 12.8709 12.7806 12.8854 12.8423C12.8854 12.8902 12.8854 12.9382 12.919 13.0245L12.9573 13.2115C12.9573 13.2595 12.9573 13.3122 12.9957 13.3938C13.0341 13.4753 12.9957 13.4945 13.0341 13.5856L13.0724 13.7726L13.1108 13.9596C13.1108 14.0124 13.1348 14.0603 13.1491 14.1419C13.1635 14.2234 13.1491 14.2474 13.1923 14.3337C13.2355 14.42 13.1923 14.4392 13.2307 14.5111C13.269 14.5831 13.2546 14.6262 13.2738 14.6933C13.3458 15.0194 13.4225 15.3407 13.504 15.6524" fill="#23935B"/>
<path d="M13.5136 15.6764L11.6625 16.156C11.581 15.8203 11.5043 15.4942 11.4276 15.1729C11.4276 15.101 11.3988 15.0434 11.3892 14.9907C11.3796 14.9379 11.3604 14.8612 11.346 14.8084C11.3317 14.7557 11.3173 14.6694 11.3077 14.6166C11.2981 14.5639 11.2789 14.4871 11.2645 14.4344C11.2501 14.3816 11.2357 14.3001 11.2262 14.2522L11.1878 14.0651L11.1494 13.8733C11.1494 13.787 11.1207 13.739 11.1111 13.6911C11.1015 13.6431 11.0871 13.552 11.0775 13.5041L11.0295 13.2931C11.0295 13.2067 11.0056 13.1588 10.996 13.1108C10.9864 13.0629 10.972 12.9766 10.9624 12.9238V12.8375L12.8135 12.3867V12.4682C12.8135 12.521 12.8135 12.5737 12.8518 12.6553C12.8597 12.7182 12.8709 12.7806 12.8854 12.8423C12.8854 12.8902 12.8854 12.9382 12.919 13.0245L12.9573 13.2115C12.9573 13.2595 12.9573 13.3122 12.9957 13.3938C13.0341 13.4753 12.9957 13.4945 13.0341 13.5856L13.0724 13.7726L13.1108 13.9596C13.1108 14.0124 13.1348 14.0603 13.1491 14.1419C13.1635 14.2234 13.1491 14.2474 13.1923 14.3337C13.2355 14.42 13.1923 14.4392 13.2307 14.5111C13.269 14.5831 13.2546 14.6262 13.2738 14.6933C13.3458 15.0194 13.4225 15.3407 13.504 15.6524" fill="#23935B"/>
<path d="M13.5136 15.6764L11.6625 16.156C11.581 15.8203 11.5043 15.4942 11.4276 15.1729C11.4276 15.101 11.3988 15.0434 11.3892 14.9907C11.3796 14.9379 11.3604 14.8612 11.346 14.8084C11.3317 14.7557 11.3173 14.6694 11.3077 14.6166C11.2981 14.5639 11.2789 14.4871 11.2645 14.4344C11.2501 14.3816 11.2357 14.3001 11.2262 14.2522L11.1878 14.0651L11.1494 13.8733C11.1494 13.787 11.1207 13.739 11.1111 13.6911C11.1015 13.6431 11.0871 13.552 11.0775 13.5041L11.0295 13.2931C11.0295 13.2067 11.0056 13.1588 10.996 13.1108C10.9864 13.0629 10.972 12.9766 10.9624 12.9238V12.8375L12.8135 12.3867V12.4682C12.8135 12.521 12.8135 12.5737 12.8518 12.6553C12.8597 12.7182 12.8709 12.7806 12.8854 12.8423C12.8854 12.8902 12.8854 12.9382 12.919 13.0245L12.9573 13.2115C12.9573 13.2595 12.9573 13.3122 12.9957 13.3938C13.0341 13.4753 12.9957 13.4945 13.0341 13.5856L13.0724 13.7726L13.1108 13.9596C13.1108 14.0124 13.1348 14.0603 13.1491 14.1419C13.1635 14.2234 13.1491 14.2474 13.1923 14.3337C13.2355 14.42 13.1923 14.4392 13.2307 14.5111C13.269 14.5831 13.2546 14.6262 13.2738 14.6933C13.3458 15.0194 13.4225 15.3407 13.504 15.6524" fill="#23935B"/>
<path d="M14.1658 18.098L12.3148 18.5488L12.2812 18.4433C12.2476 18.333 12.2381 18.2899 12.2285 18.2515C12.1949 18.1316 12.1805 18.0932 12.1709 18.0501C12.1374 17.935 12.123 17.8918 12.1134 17.8487C12.1038 17.8055 12.0702 17.6952 12.0558 17.6473C12.0414 17.5993 12.0175 17.4986 12.0031 17.4554L11.9551 17.2732C11.9216 17.1533 11.912 17.1054 11.8976 17.0574C11.8832 17.0095 11.8592 16.9088 11.8448 16.8608C11.8304 16.8129 11.8113 16.7169 11.7969 16.6642C11.7489 16.482 11.7058 16.3045 11.6626 16.1319L13.5137 15.6523C13.5568 15.8298 13.6048 16.0072 13.6479 16.1894L13.7007 16.3813C13.7007 16.4292 13.7247 16.482 13.7534 16.5827C13.7822 16.6834 13.7774 16.6738 13.811 16.7937C13.811 16.832 13.811 16.8752 13.8589 16.9759C13.9069 17.0766 13.8829 17.067 13.9117 17.1677C13.9405 17.2684 13.9117 17.2588 13.9644 17.3739C13.9644 17.4123 13.9884 17.4554 14.022 17.5705C14.0555 17.6856 14.046 17.6569 14.0795 17.7719L14.1371 17.9638C14.1371 17.9925 14.1371 18.0213 14.1658 18.0741" fill="#228F58"/>
<path d="M14.1658 18.098L12.3148 18.5488L12.2812 18.4433C12.2476 18.333 12.2381 18.2899 12.2285 18.2515C12.1949 18.1316 12.1805 18.0932 12.1709 18.0501C12.1374 17.935 12.123 17.8918 12.1134 17.8487C12.1038 17.8055 12.0702 17.6952 12.0558 17.6473C12.0414 17.5993 12.0175 17.4986 12.0031 17.4554L11.9551 17.2732C11.9216 17.1533 11.912 17.1054 11.8976 17.0574C11.8832 17.0095 11.8592 16.9088 11.8448 16.8608C11.8304 16.8129 11.8113 16.7169 11.7969 16.6642C11.7489 16.482 11.7058 16.3045 11.6626 16.1319L13.5137 15.6523C13.5568 15.8298 13.6048 16.0072 13.6479 16.1894L13.7007 16.3813C13.7007 16.4292 13.7247 16.482 13.7534 16.5827C13.7822 16.6834 13.7774 16.6738 13.811 16.7937C13.811 16.832 13.811 16.8752 13.8589 16.9759C13.9069 17.0766 13.8829 17.067 13.9117 17.1677C13.9405 17.2684 13.9117 17.2588 13.9644 17.3739C13.9644 17.4123 13.9884 17.4554 14.022 17.5705C14.0555 17.6856 14.046 17.6569 14.0795 17.7719L14.1371 17.9638C14.1371 17.9925 14.1371 18.0213 14.1658 18.0741" fill="#228F58"/>
<path d="M13.5136 15.6764L11.6625 16.156C11.581 15.8203 11.5043 15.4942 11.4276 15.1729C11.4276 15.101 11.3988 15.0434 11.3892 14.9907C11.3796 14.9379 11.3604 14.8612 11.346 14.8084C11.3317 14.7557 11.3173 14.6694 11.3077 14.6166C11.2981 14.5639 11.2789 14.4871 11.2645 14.4344C11.2501 14.3816 11.2357 14.3001 11.2262 14.2522L11.1878 14.0651L11.1494 13.8733C11.1494 13.787 11.1207 13.739 11.1111 13.6911C11.1015 13.6431 11.0871 13.552 11.0775 13.5041L11.0295 13.2931C11.0295 13.2067 11.0056 13.1588 10.996 13.1108C10.9864 13.0629 10.972 12.9766 10.9624 12.9238V12.8375L12.8135 12.3867V12.4682C12.8135 12.521 12.8135 12.5737 12.8518 12.6553C12.8597 12.7182 12.8709 12.7806 12.8854 12.8423C12.8854 12.8902 12.8854 12.9382 12.919 13.0245L12.9573 13.2115C12.9573 13.2595 12.9573 13.3122 12.9957 13.3938C13.0341 13.4753 12.9957 13.4945 13.0341 13.5856L13.0724 13.7726L13.1108 13.9596C13.1108 14.0124 13.1348 14.0603 13.1491 14.1419C13.1635 14.2234 13.1491 14.2474 13.1923 14.3337C13.2355 14.42 13.1923 14.4392 13.2307 14.5111C13.269 14.5831 13.2546 14.6262 13.2738 14.6933C13.3458 15.0194 13.4225 15.3407 13.504 15.6524" fill="#23935B"/>
<path d="M23.2821 32.6667L21.4263 33.1222C21.2803 33.1567 21.13 33.1697 20.9803 33.1606H20.846C20.7894 33.1557 20.7332 33.146 20.6782 33.1318C19.9157 32.9448 19.0525 32.259 18.1558 31.1609L20.0116 30.6909C20.9084 31.7843 21.7716 32.47 22.5388 32.6571L22.7019 32.6906H22.841C22.9907 32.6997 23.1409 32.6868 23.2869 32.6523" fill="#196A42"/>
<path d="M23.2821 32.6667L21.4263 33.1222C21.2803 33.1567 21.13 33.1697 20.9803 33.1606H20.846C20.7894 33.1557 20.7332 33.146 20.6782 33.1318C19.9157 32.9448 19.0525 32.259 18.1558 31.1609L20.0116 30.6909C20.9084 31.7843 21.7716 32.47 22.5388 32.6571L22.7019 32.6906H22.841C22.9907 32.6997 23.1409 32.6868 23.2869 32.6523" fill="#196A42"/>
<path d="M23.2821 32.6667L21.4263 33.1222C21.2803 33.1567 21.13 33.1697 20.9803 33.1606H20.846C20.7894 33.1557 20.7332 33.146 20.6782 33.1318C19.9157 32.9448 19.0525 32.259 18.1558 31.1609L20.0116 30.6909C20.9084 31.7843 21.7716 32.47 22.5388 32.6571L22.7019 32.6906H22.841C22.9907 32.6997 23.1409 32.6868 23.2869 32.6523" fill="#196A42"/>
<path d="M23.2819 32.6669L21.426 33.1225C21.2801 33.157 21.1298 33.1699 20.9801 33.1608H20.8458C20.7891 33.1559 20.733 33.1463 20.6779 33.1321C19.9155 32.945 19.0523 32.2593 18.1555 31.1611L20.0114 30.6912C20.9081 31.7845 21.7713 32.4703 22.5386 32.6573L22.7016 32.6909H22.8407C22.9904 32.7 23.1407 32.687 23.2867 32.6525" fill="#196A42"/>
<path d="M20.0115 30.6911L18.1556 31.1466C17.8519 30.7726 17.545 30.3554 17.2349 29.895L19.0907 29.4395C19.3756 29.8724 19.683 30.2902 20.0115 30.6911Z" fill="#1A6E44"/>
<path d="M20.0115 30.6911L18.1556 31.1466C17.8519 30.7726 17.545 30.3554 17.2349 29.895L19.0907 29.4395C19.3756 29.8724 19.683 30.2902 20.0115 30.6911Z" fill="#1A6E44"/>
<path d="M20.0115 30.6908L18.1556 31.1464C17.8519 30.7724 17.545 30.3551 17.2349 29.8948L19.0907 29.4392C19.3756 29.8722 19.683 30.2899 20.0115 30.6908Z" fill="#1A6E44"/>
<path d="M19.0907 29.4345L17.2349 29.8901C16.9727 29.4937 16.709 29.0669 16.4436 28.6097L18.2947 28.1589C18.5584 28.6385 18.827 29.0413 19.0907 29.4345Z" fill="#1B7247"/>
<path d="M19.0907 29.4345L17.2349 29.8901C16.9727 29.4937 16.709 29.0669 16.4436 28.6097L18.2947 28.1589C18.5584 28.6385 18.827 29.0413 19.0907 29.4345Z" fill="#1B7247"/>
<path d="M18.2946 28.159L16.4436 28.6098C16.1942 28.1878 15.964 27.737 15.7051 27.2623L17.5561 26.7827C17.8007 27.2623 18.0357 27.7082 18.2946 28.135" fill="#1C7649"/>
<path d="M18.2946 28.159L16.4436 28.6098C16.1942 28.1878 15.964 27.737 15.7051 27.2623L17.5561 26.7827C17.8007 27.2623 18.0357 27.7082 18.2946 28.135" fill="#1C7649"/>
<path d="M17.5562 26.8066L15.7052 27.2862C15.4654 26.8066 15.2256 26.3271 15.0002 25.8475L16.8513 25.3967C17.0863 25.8763 17.3309 26.3558 17.5562 26.8354" fill="#1D7A4C"/>
<path d="M17.5562 26.8066L15.7052 27.2862C15.4654 26.8066 15.2256 26.3271 15.0002 25.8475L16.8513 25.3967C17.0863 25.8763 17.3309 26.3558 17.5562 26.8354" fill="#1D7A4C"/>
<path d="M16.8513 25.3633L15.0002 25.814C14.77 25.3345 14.5207 24.7974 14.3145 24.2603L16.1703 23.7808C16.3957 24.3179 16.6211 24.8406 16.8513 25.3393" fill="#1E7E4E"/>
<path d="M14.8324 20.2177L12.9766 20.6973L12.7464 19.9876C12.7464 19.9204 12.7032 19.8581 12.684 19.791C12.6649 19.7238 12.6601 19.7238 12.6505 19.695L12.6217 19.5895C12.6083 19.5551 12.5971 19.5199 12.5881 19.484L12.5594 19.3881C12.5453 19.3523 12.5341 19.3154 12.5258 19.2778L12.4682 19.0572C12.4299 18.9278 12.4203 18.8894 12.4059 18.851C12.3723 18.7264 12.3579 18.688 12.3436 18.6448L12.3196 18.5489L14.1706 18.0981L14.1994 18.1893C14.1994 18.2324 14.1994 18.2756 14.2618 18.3955C14.2618 18.4338 14.2618 18.4722 14.3241 18.6017C14.3241 18.6352 14.3241 18.6736 14.3816 18.8031C14.3957 18.8389 14.4069 18.8758 14.4152 18.9134L14.444 19.0045C14.4573 19.0389 14.4685 19.0742 14.4775 19.11L14.5111 19.2155L14.5399 19.3114C14.5639 19.3785 14.583 19.4457 14.6022 19.5128L14.8372 20.2177" fill="#218B56"/>
<path d="M14.1658 18.098L12.3148 18.5488L12.2812 18.4433C12.2476 18.333 12.2381 18.2899 12.2285 18.2515C12.1949 18.1316 12.1805 18.0932 12.1709 18.0501C12.1374 17.935 12.123 17.8918 12.1134 17.8487C12.1038 17.8055 12.0702 17.6952 12.0558 17.6473C12.0414 17.5993 12.0175 17.4986 12.0031 17.4554L11.9551 17.2732C11.9216 17.1533 11.912 17.1054 11.8976 17.0574C11.8832 17.0095 11.8592 16.9088 11.8448 16.8608C11.8304 16.8129 11.8113 16.7169 11.7969 16.6642C11.7489 16.482 11.7058 16.3045 11.6626 16.1319L13.5137 15.6523C13.5568 15.8298 13.6048 16.0072 13.6479 16.1894L13.7007 16.3813C13.7007 16.4292 13.7247 16.482 13.7534 16.5827C13.7822 16.6834 13.7774 16.6738 13.811 16.7937C13.811 16.832 13.811 16.8752 13.8589 16.9759C13.9069 17.0766 13.8829 17.067 13.9117 17.1677C13.9405 17.2684 13.9117 17.2588 13.9644 17.3739C13.9644 17.4123 13.9884 17.4554 14.022 17.5705C14.0555 17.6856 14.046 17.6569 14.0795 17.7719L14.1371 17.9638C14.1371 17.9925 14.1371 18.0213 14.1658 18.0741" fill="#228F58"/>
<path d="M23.7903 32.4269C23.9045 32.341 24.009 32.2429 24.102 32.1344L23.7327 32.5612C23.6396 32.6681 23.5351 32.7646 23.421 32.8489C23.1474 33.0584 22.8052 33.1577 22.4619 33.127H22.3037H22.2461H22.1934H22.1358H22.0783H22.0208H21.9632H21.9057H21.8481H21.7906H21.7282L21.6707 33.0983L21.6083 33.0695L21.5796 32.8393L21.5172 32.8057L21.4549 32.7674C21.4318 32.7559 21.4094 32.7431 21.3878 32.729C21.3671 32.7185 21.3478 32.7056 21.3302 32.6906L21.2631 32.6475L21.1815 32.6091C20.8809 32.3967 20.6 32.1575 20.3423 31.8946L20.28 31.8322C20.2588 31.8087 20.2364 31.7863 20.2129 31.7651L20.1409 31.6884C20.1174 31.6672 20.0949 31.6448 20.0738 31.6212L20.0067 31.5445L19.9395 31.4726L19.8772 31.3959L19.81 31.3191L19.7429 31.2424L19.6854 31.1705L19.6182 31.0889L19.5511 31.0074L19.4839 30.9211L19.4168 30.8348L19.3497 30.7485L19.2825 30.6574L19.2154 30.5662L19.1483 30.4751L19.0811 30.384L19.014 30.2881L18.9421 30.1922L18.8749 30.0915C18.8461 30.0531 18.827 30.0196 18.8078 29.9908L18.7406 29.8901C18.7119 29.8517 18.6927 29.8181 18.6687 29.7894C18.6447 29.7606 18.6208 29.7126 18.6016 29.6839L18.5296 29.5784L18.4625 29.4681C17.8633 28.5127 17.3174 27.5249 16.8272 26.5093C16.8033 26.4613 16.7793 26.4181 16.7601 26.3702L16.693 26.2311L16.6258 26.092L16.5587 25.953C16.5299 25.8858 16.5107 25.8475 16.4964 25.8091C16.482 25.7708 16.4436 25.7084 16.4292 25.67L16.3621 25.5214C16.3285 25.4542 16.3141 25.4159 16.2949 25.3775C16.2758 25.3392 16.247 25.2672 16.2326 25.2337L16.1655 25.085L16.1031 24.9363L16.036 24.7877L15.9737 24.6342L15.9065 24.4568L15.825 24.3225V24.2698L15.7818 24.1691V24.1163L15.7387 24.0108L15.6907 23.9772C15.68 23.9429 15.6672 23.9093 15.6524 23.8765V23.819L15.614 23.7183V23.6607L15.5708 23.56V23.5025L15.5277 23.4018L15.5037 23.3442C15.493 23.3099 15.4802 23.2763 15.4653 23.2435V23.1812L15.3454 23.0613L15.3119 23.0181C15.3119 22.9798 15.2879 22.9462 15.2735 22.9126L15.2495 22.8551L15.2112 22.7544V22.6873L15.1728 22.5913L15.1488 22.5242L15.1105 22.4235L15.0865 22.3612C15.0865 22.3276 15.0625 22.294 15.0529 22.2605L15.0241 22.1933L14.9906 22.0974L14.9666 22.0255L14.9282 21.9248V21.8576C14.9282 21.8241 14.9043 21.7905 14.8947 21.7569L14.8659 21.685C14.8659 21.6562 14.8659 21.6227 14.8323 21.5891V21.5172C14.8323 21.4836 14.8083 21.45 14.7988 21.4164L14.7748 21.3445L14.7364 21.2438V21.1767L14.7028 21.0712L14.6789 21.004C14.6789 20.9657 14.6549 20.9321 14.6405 20.8985V20.8266L14.6117 20.7307L14.4631 20.6204L14.4343 20.5245L14.3863 20.4621C14.3863 20.4238 14.3624 20.3854 14.348 20.3423C14.3336 20.2991 14.3048 20.208 14.2904 20.1696V20.1121L14.2329 19.9346C14.1945 19.8052 14.1514 19.6757 14.113 19.5462L14.0603 19.388L14.0075 19.2057C13.9739 19.1002 13.9595 19.0427 13.9404 18.9899L13.8301 18.6159C13.8013 18.5248 13.7869 18.4768 13.7773 18.4337L13.7102 18.2227L13.6862 18.1267L13.6622 18.05L13.6335 17.9349C13.5663 17.7047 13.5136 17.5177 13.4656 17.3307L13.4272 17.2636L13.7917 16.8416L13.8253 16.9614C13.854 17.0717 13.8684 17.1149 13.8828 17.1581C13.8972 17.2012 13.9212 17.3067 13.9356 17.3547V17.417C13.9356 17.4602 13.9595 17.5033 13.9739 17.5465V17.6184C13.9739 17.6616 13.9979 17.7047 14.0123 17.7431V17.815C14.0123 17.863 14.0363 17.9014 14.0459 17.9445V18.0069L14.089 18.1411V18.2083C14.089 18.2562 14.089 18.2994 14.1274 18.3377V18.4097C14.1274 18.4576 14.1514 18.496 14.1658 18.5344L14.1897 18.6159C14.1897 18.659 14.1897 18.6974 14.2233 18.7358V18.8077C14.2385 18.8501 14.2514 18.8933 14.2617 18.9372L14.2856 19.0139C14.3007 19.0531 14.3135 19.0931 14.324 19.1338L14.3528 19.2153C14.3528 19.2729 14.3768 19.3016 14.3863 19.3352C14.3959 19.3688 14.4295 19.4695 14.4487 19.5366L14.5062 19.7093V19.7716C14.5062 19.81 14.5062 19.8483 14.5446 19.8867L14.5686 19.9538C14.5686 19.9874 14.5925 20.021 14.6021 20.0593L14.6261 20.1313L14.6597 20.232V20.3087L14.6933 20.4046L14.722 20.4813L14.7508 20.5724L14.7796 20.654L14.8083 20.7451L14.8371 20.8266L14.8659 20.9129L14.8947 20.9944L14.9282 21.0856L14.957 21.1671L14.9858 21.2486L15.0146 21.3349L15.0433 21.4164L15.0769 21.5028L15.1057 21.5795L15.1392 21.6706L15.1632 21.7473L15.1968 21.8337L15.2256 21.9104L15.2591 21.9967L15.2831 22.0686L15.3167 22.1597L15.3454 22.2317L15.379 22.3228L15.4078 22.3899L15.4414 22.4858V22.5482C15.4414 22.5818 15.4653 22.6153 15.4797 22.6441L15.5037 22.7016C15.5037 22.7352 15.5037 22.7688 15.5421 22.8071L15.6044 22.9654C15.7291 23.2819 15.849 23.5744 15.9689 23.8574C15.9689 23.9197 16.0072 23.9629 16.0264 24.0012C16.0456 24.0396 16.0696 24.1067 16.0887 24.1451L16.1511 24.2937L16.2134 24.4424C16.2422 24.5095 16.2614 24.5479 16.2758 24.5863C16.2902 24.6246 16.3237 24.6918 16.3429 24.7301C16.3621 24.7685 16.3861 24.8356 16.4052 24.874C16.4244 24.9124 16.4532 24.9795 16.4724 25.0179C16.4916 25.0562 16.5155 25.1234 16.5347 25.1617C16.5539 25.2001 16.5827 25.2624 16.5971 25.3008L16.6642 25.4399L16.7313 25.5837L16.7937 25.7228C18.2323 28.7919 19.7957 31.041 21.1624 32.0816L21.2247 32.1296L21.2823 32.1727C21.4824 32.3201 21.6979 32.4455 21.9248 32.5468H21.9728H22.0256H22.0831H22.1358H22.1934H22.2461H22.5387H22.6394H22.7113H22.7737H22.86C23.1748 32.6119 23.5023 32.5697 23.7903 32.4269Z" fill="#165A38"/>
<path d="M12.8087 12.3867L10.9576 12.8374V12.7415L10.809 11.8688C10.809 11.8016 10.809 11.7585 10.785 11.7153C10.761 11.6721 10.785 11.5906 10.761 11.5571C10.761 11.4516 10.761 11.418 10.761 11.3892C10.7425 11.3006 10.7297 11.2109 10.7227 11.1207L10.6699 10.761L10.6459 10.5788C10.6459 10.4829 10.6459 10.4397 10.622 10.4013C10.598 10.363 10.622 10.2623 10.622 10.2239C10.622 10.1855 10.55 10.0705 10.55 10.0705V9.88823C10.55 9.8115 10.55 9.76354 10.55 9.71559C10.55 9.66763 10.55 9.57652 10.55 9.52377C10.4733 8.79006 10.4253 8.08512 10.4014 7.42334L12.2524 6.96777C12.2764 7.63435 12.3292 8.33928 12.4011 9.0682C12.4011 9.12574 12.4011 9.17849 12.4251 9.26002C12.449 9.34154 12.4251 9.35593 12.4251 9.43265V9.61968C12.4251 9.65804 12.4251 9.7012 12.4251 9.79232C12.4251 9.88343 12.4251 9.87384 12.449 9.96975C12.473 10.0657 12.449 10.0513 12.473 10.1472L12.497 10.3294L12.5449 10.6891L12.5833 10.9576C12.5833 10.9864 12.5833 11.02 12.6121 11.1255C12.6409 11.231 12.6121 11.1974 12.6361 11.2837C12.66 11.37 12.6361 11.37 12.66 11.442C12.7032 11.7201 12.7512 12.0078 12.8087 12.3099V12.4107" fill="#24975D"/>
<path d="M12.8087 12.3867L10.9576 12.8374V12.7415L10.809 11.8688C10.809 11.8016 10.809 11.7585 10.785 11.7153C10.761 11.6721 10.785 11.5906 10.761 11.5571C10.761 11.4516 10.761 11.418 10.761 11.3892C10.7425 11.3006 10.7297 11.2109 10.7227 11.1207L10.6699 10.761L10.6459 10.5788C10.6459 10.4829 10.6459 10.4397 10.622 10.4013C10.598 10.363 10.622 10.2623 10.622 10.2239C10.622 10.1855 10.55 10.0705 10.55 10.0705V9.88823C10.55 9.8115 10.55 9.76354 10.55 9.71559C10.55 9.66763 10.55 9.57652 10.55 9.52377C10.4733 8.79006 10.4253 8.08512 10.4014 7.42334L12.2524 6.96777C12.2764 7.63435 12.3292 8.33928 12.4011 9.0682C12.4011 9.12574 12.4011 9.17849 12.4251 9.26002C12.449 9.34154 12.4251 9.35593 12.4251 9.43265V9.61968C12.4251 9.65804 12.4251 9.7012 12.4251 9.79232C12.4251 9.88343 12.4251 9.87384 12.449 9.96975C12.473 10.0657 12.449 10.0513 12.473 10.1472L12.497 10.3294L12.5449 10.6891L12.5833 10.9576C12.5833 10.9864 12.5833 11.02 12.6121 11.1255C12.6409 11.231 12.6121 11.1974 12.6361 11.2837C12.66 11.37 12.6361 11.37 12.66 11.442C12.7032 11.7201 12.7512 12.0078 12.8087 12.3099V12.4107" fill="#24975D"/>
<path d="M12.8087 12.3867L10.9576 12.8374V12.7415L10.809 11.8688C10.809 11.8016 10.809 11.7585 10.785 11.7153C10.761 11.6721 10.785 11.5906 10.761 11.5571C10.761 11.4516 10.761 11.418 10.761 11.3892C10.7425 11.3006 10.7297 11.2109 10.7227 11.1207L10.6699 10.761L10.6459 10.5788C10.6459 10.4829 10.6459 10.4397 10.622 10.4013C10.598 10.363 10.622 10.2623 10.622 10.2239C10.622 10.1855 10.55 10.0705 10.55 10.0705V9.88823C10.55 9.8115 10.55 9.76354 10.55 9.71559C10.55 9.66763 10.55 9.57652 10.55 9.52377C10.4733 8.79006 10.4253 8.08512 10.4014 7.42334L12.2524 6.96777C12.2764 7.63435 12.3292 8.33928 12.4011 9.0682C12.4011 9.12574 12.4011 9.17849 12.4251 9.26002C12.449 9.34154 12.4251 9.35593 12.4251 9.43265V9.61968C12.4251 9.65804 12.4251 9.7012 12.4251 9.79232C12.4251 9.88343 12.4251 9.87384 12.449 9.96975C12.473 10.0657 12.449 10.0513 12.473 10.1472L12.497 10.3294L12.5449 10.6891L12.5833 10.9576C12.5833 10.9864 12.5833 11.02 12.6121 11.1255C12.6409 11.231 12.6121 11.1974 12.6361 11.2837C12.66 11.37 12.6361 11.37 12.66 11.442C12.7032 11.7201 12.7512 12.0078 12.8087 12.3099V12.4107" fill="#24975D"/>
<path d="M12.8087 12.3867L10.9576 12.8374V12.7415L10.809 11.8688C10.809 11.8016 10.809 11.7585 10.785 11.7153C10.761 11.6721 10.785 11.5906 10.761 11.5571C10.761 11.4516 10.761 11.418 10.761 11.3892C10.7425 11.3006 10.7297 11.2109 10.7227 11.1207L10.6699 10.761L10.6459 10.5788C10.6459 10.4829 10.6459 10.4397 10.622 10.4013C10.598 10.363 10.622 10.2623 10.622 10.2239C10.622 10.1855 10.55 10.0705 10.55 10.0705V9.88823C10.55 9.8115 10.55 9.76354 10.55 9.71559C10.55 9.66763 10.55 9.57652 10.55 9.52377C10.4733 8.79006 10.4253 8.08512 10.4014 7.42334L12.2524 6.96777C12.2764 7.63435 12.3292 8.33928 12.4011 9.0682C12.4011 9.12574 12.4011 9.17849 12.4251 9.26002C12.449 9.34154 12.4251 9.35593 12.4251 9.43265V9.61968C12.4251 9.65804 12.4251 9.7012 12.4251 9.79232C12.4251 9.88343 12.4251 9.87384 12.449 9.96975C12.473 10.0657 12.449 10.0513 12.473 10.1472L12.497 10.3294L12.5449 10.6891L12.5833 10.9576C12.5833 10.9864 12.5833 11.02 12.6121 11.1255C12.6409 11.231 12.6121 11.1974 12.6361 11.2837C12.66 11.37 12.6361 11.37 12.66 11.442C12.7032 11.7201 12.7512 12.0078 12.8087 12.3099V12.4107" fill="#24975D"/>
<path d="M12.8087 12.3867L10.9576 12.8374V12.7415L10.809 11.8688C10.809 11.8016 10.809 11.7585 10.785 11.7153C10.761 11.6721 10.785 11.5906 10.761 11.5571C10.761 11.4516 10.761 11.418 10.761 11.3892C10.7425 11.3006 10.7297 11.2109 10.7227 11.1207L10.6699 10.761L10.6459 10.5788C10.6459 10.4829 10.6459 10.4397 10.622 10.4013C10.598 10.363 10.622 10.2623 10.622 10.2239C10.622 10.1855 10.55 10.0705 10.55 10.0705V9.88823C10.55 9.8115 10.55 9.76354 10.55 9.71559C10.55 9.66763 10.55 9.57652 10.55 9.52377C10.4733 8.79006 10.4253 8.08512 10.4014 7.42334L12.2524 6.96777C12.2764 7.63435 12.3292 8.33928 12.4011 9.0682C12.4011 9.12574 12.4011 9.17849 12.4251 9.26002C12.449 9.34154 12.4251 9.35593 12.4251 9.43265V9.61968C12.4251 9.65804 12.4251 9.7012 12.4251 9.79232C12.4251 9.88343 12.4251 9.87384 12.449 9.96975C12.473 10.0657 12.449 10.0513 12.473 10.1472L12.497 10.3294L12.5449 10.6891L12.5833 10.9576C12.5833 10.9864 12.5833 11.02 12.6121 11.1255C12.6409 11.231 12.6121 11.1974 12.6361 11.2837C12.66 11.37 12.6361 11.37 12.66 11.442C12.7032 11.7201 12.7512 12.0078 12.8087 12.3099V12.4107" fill="#24975D"/>
<path d="M12.8087 12.3867L10.9576 12.8374V12.7415L10.809 11.8688C10.809 11.8016 10.809 11.7585 10.785 11.7153C10.761 11.6721 10.785 11.5906 10.761 11.5571C10.761 11.4516 10.761 11.418 10.761 11.3892C10.7425 11.3006 10.7297 11.2109 10.7227 11.1207L10.6699 10.761L10.6459 10.5788C10.6459 10.4829 10.6459 10.4397 10.622 10.4013C10.598 10.363 10.622 10.2623 10.622 10.2239C10.622 10.1855 10.55 10.0705 10.55 10.0705V9.88823C10.55 9.8115 10.55 9.76354 10.55 9.71559C10.55 9.66763 10.55 9.57652 10.55 9.52377C10.4733 8.79006 10.4253 8.08512 10.4014 7.42334L12.2524 6.96777C12.2764 7.63435 12.3292 8.33928 12.4011 9.0682C12.4011 9.12574 12.4011 9.17849 12.4251 9.26002C12.449 9.34154 12.4251 9.35593 12.4251 9.43265V9.61968C12.4251 9.65804 12.4251 9.7012 12.4251 9.79232C12.4251 9.88343 12.4251 9.87384 12.449 9.96975C12.473 10.0657 12.449 10.0513 12.473 10.1472L12.497 10.3294L12.5449 10.6891L12.5833 10.9576C12.5833 10.9864 12.5833 11.02 12.6121 11.1255C12.6409 11.231 12.6121 11.1974 12.6361 11.2837C12.66 11.37 12.6361 11.37 12.66 11.442C12.7032 11.7201 12.7512 12.0078 12.8087 12.3099V12.4107" fill="#24975D"/>
<path d="M12.8087 12.3867L10.9576 12.8374V12.7415L10.809 11.8688C10.809 11.8016 10.809 11.7585 10.785 11.7153C10.761 11.6721 10.785 11.5906 10.761 11.5571C10.761 11.4516 10.761 11.418 10.761 11.3892C10.7425 11.3006 10.7297 11.2109 10.7227 11.1207L10.6699 10.761L10.6459 10.5788C10.6459 10.4829 10.6459 10.4397 10.622 10.4013C10.598 10.363 10.622 10.2623 10.622 10.2239C10.622 10.1855 10.55 10.0705 10.55 10.0705V9.88823C10.55 9.8115 10.55 9.76354 10.55 9.71559C10.55 9.66763 10.55 9.57652 10.55 9.52377C10.4733 8.79006 10.4253 8.08512 10.4014 7.42334L12.2524 6.96777C12.2764 7.63435 12.3292 8.33928 12.4011 9.0682C12.4011 9.12574 12.4011 9.17849 12.4251 9.26002C12.449 9.34154 12.4251 9.35593 12.4251 9.43265V9.61968C12.4251 9.65804 12.4251 9.7012 12.4251 9.79232C12.4251 9.88343 12.4251 9.87384 12.449 9.96975C12.473 10.0657 12.449 10.0513 12.473 10.1472L12.497 10.3294L12.5449 10.6891L12.5833 10.9576C12.5833 10.9864 12.5833 11.02 12.6121 11.1255C12.6409 11.231 12.6121 11.1974 12.6361 11.2837C12.66 11.37 12.6361 11.37 12.66 11.442C12.7032 11.7201 12.7512 12.0078 12.8087 12.3099V12.4107" fill="#24975D"/>
<path d="M12.8087 12.3867L10.9576 12.8374V12.7415L10.809 11.8688C10.809 11.8016 10.809 11.7585 10.785 11.7153C10.761 11.6721 10.785 11.5906 10.761 11.5571C10.761 11.4516 10.761 11.418 10.761 11.3892C10.7425 11.3006 10.7297 11.2109 10.7227 11.1207L10.6699 10.761L10.6459 10.5788C10.6459 10.4829 10.6459 10.4397 10.622 10.4013C10.598 10.363 10.622 10.2623 10.622 10.2239C10.622 10.1855 10.55 10.0705 10.55 10.0705V9.88823C10.55 9.8115 10.55 9.76354 10.55 9.71559C10.55 9.66763 10.55 9.57652 10.55 9.52377C10.4733 8.79006 10.4253 8.08512 10.4014 7.42334L12.2524 6.96777C12.2764 7.63435 12.3292 8.33928 12.4011 9.0682C12.4011 9.12574 12.4011 9.17849 12.4251 9.26002C12.449 9.34154 12.4251 9.35593 12.4251 9.43265V9.61968C12.4251 9.65804 12.4251 9.7012 12.4251 9.79232C12.4251 9.88343 12.4251 9.87384 12.449 9.96975C12.473 10.0657 12.449 10.0513 12.473 10.1472L12.497 10.3294L12.5449 10.6891L12.5833 10.9576C12.5833 10.9864 12.5833 11.02 12.6121 11.1255C12.6409 11.231 12.6121 11.1974 12.6361 11.2837C12.66 11.37 12.6361 11.37 12.66 11.442C12.7032 11.7201 12.7512 12.0078 12.8087 12.3099V12.4107" fill="#24975D"/>
<path d="M12.8087 12.3867L10.9576 12.8374V12.7415L10.809 11.8688C10.809 11.8016 10.809 11.7585 10.785 11.7153C10.761 11.6721 10.785 11.5906 10.761 11.5571C10.761 11.4516 10.761 11.418 10.761 11.3892C10.7425 11.3006 10.7297 11.2109 10.7227 11.1207L10.6699 10.761L10.6459 10.5788C10.6459 10.4829 10.6459 10.4397 10.622 10.4013C10.598 10.363 10.622 10.2623 10.622 10.2239C10.622 10.1855 10.55 10.0705 10.55 10.0705V9.88823C10.55 9.8115 10.55 9.76354 10.55 9.71559C10.55 9.66763 10.55 9.57652 10.55 9.52377C10.4733 8.79006 10.4253 8.08512 10.4014 7.42334L12.2524 6.96777C12.2764 7.63435 12.3292 8.33928 12.4011 9.0682C12.4011 9.12574 12.4011 9.17849 12.4251 9.26002C12.449 9.34154 12.4251 9.35593 12.4251 9.43265V9.61968C12.4251 9.65804 12.4251 9.7012 12.4251 9.79232C12.4251 9.88343 12.4251 9.87384 12.449 9.96975C12.473 10.0657 12.449 10.0513 12.473 10.1472L12.497 10.3294L12.5449 10.6891L12.5833 10.9576C12.5833 10.9864 12.5833 11.02 12.6121 11.1255C12.6409 11.231 12.6121 11.1974 12.6361 11.2837C12.66 11.37 12.6361 11.37 12.66 11.442C12.7032 11.7201 12.7512 12.0078 12.8087 12.3099V12.4107" fill="#24975D"/>
<path d="M12.8087 12.3867L10.9576 12.8374V12.7415L10.809 11.8688C10.809 11.8016 10.809 11.7585 10.785 11.7153C10.761 11.6721 10.785 11.5906 10.761 11.5571C10.761 11.4516 10.761 11.418 10.761 11.3892C10.7425 11.3006 10.7297 11.2109 10.7227 11.1207L10.6699 10.761L10.6459 10.5788C10.6459 10.4829 10.6459 10.4397 10.622 10.4013C10.598 10.363 10.622 10.2623 10.622 10.2239C10.622 10.1855 10.55 10.0705 10.55 10.0705V9.88823C10.55 9.8115 10.55 9.76354 10.55 9.71559C10.55 9.66763 10.55 9.57652 10.55 9.52377C10.4733 8.79006 10.4253 8.08512 10.4014 7.42334L12.2524 6.96777C12.2764 7.63435 12.3292 8.33928 12.4011 9.0682C12.4011 9.12574 12.4011 9.17849 12.4251 9.26002C12.449 9.34154 12.4251 9.35593 12.4251 9.43265V9.61968C12.4251 9.65804 12.4251 9.7012 12.4251 9.79232C12.4251 9.88343 12.4251 9.87384 12.449 9.96975C12.473 10.0657 12.449 10.0513 12.473 10.1472L12.497 10.3294L12.5449 10.6891L12.5833 10.9576C12.5833 10.9864 12.5833 11.02 12.6121 11.1255C12.6409 11.231 12.6121 11.1974 12.6361 11.2837C12.66 11.37 12.6361 11.37 12.66 11.442C12.7032 11.7201 12.7512 12.0078 12.8087 12.3099V12.4107" fill="#24975D"/>
<path d="M12.8087 12.3867L10.9576 12.8374V12.7415L10.809 11.8688C10.809 11.8016 10.809 11.7585 10.785 11.7153C10.761 11.6721 10.785 11.5906 10.761 11.5571C10.761 11.4516 10.761 11.418 10.761 11.3892C10.7425 11.3006 10.7297 11.2109 10.7227 11.1207L10.6699 10.761L10.6459 10.5788C10.6459 10.4829 10.6459 10.4397 10.622 10.4013C10.598 10.363 10.622 10.2623 10.622 10.2239C10.622 10.1855 10.55 10.0705 10.55 10.0705V9.88823C10.55 9.8115 10.55 9.76354 10.55 9.71559C10.55 9.66763 10.55 9.57652 10.55 9.52377C10.4733 8.79006 10.4253 8.08512 10.4014 7.42334L12.2524 6.96777C12.2764 7.63435 12.3292 8.33928 12.4011 9.0682C12.4011 9.12574 12.4011 9.17849 12.4251 9.26002C12.449 9.34154 12.4251 9.35593 12.4251 9.43265V9.61968C12.4251 9.65804 12.4251 9.7012 12.4251 9.79232C12.4251 9.88343 12.4251 9.87384 12.449 9.96975C12.473 10.0657 12.449 10.0513 12.473 10.1472L12.497 10.3294L12.5449 10.6891L12.5833 10.9576C12.5833 10.9864 12.5833 11.02 12.6121 11.1255C12.6409 11.231 12.6121 11.1974 12.6361 11.2837C12.66 11.37 12.6361 11.37 12.66 11.442C12.7032 11.7201 12.7512 12.0078 12.8087 12.3099V12.4107" fill="#24975D"/>
<path d="M12.8087 12.3867L10.9576 12.8374V12.7415L10.809 11.8688C10.809 11.8016 10.809 11.7585 10.785 11.7153C10.761 11.6721 10.785 11.5906 10.761 11.5571C10.761 11.4516 10.761 11.418 10.761 11.3892C10.7425 11.3006 10.7297 11.2109 10.7227 11.1207L10.6699 10.761L10.6459 10.5788C10.6459 10.4829 10.6459 10.4397 10.622 10.4013C10.598 10.363 10.622 10.2623 10.622 10.2239C10.622 10.1855 10.55 10.0705 10.55 10.0705V9.88823C10.55 9.8115 10.55 9.76354 10.55 9.71559C10.55 9.66763 10.55 9.57652 10.55 9.52377C10.4733 8.79006 10.4253 8.08512 10.4014 7.42334L12.2524 6.96777C12.2764 7.63435 12.3292 8.33928 12.4011 9.0682C12.4011 9.12574 12.4011 9.17849 12.4251 9.26002C12.449 9.34154 12.4251 9.35593 12.4251 9.43265V9.61968C12.4251 9.65804 12.4251 9.7012 12.4251 9.79232C12.4251 9.88343 12.4251 9.87384 12.449 9.96975C12.473 10.0657 12.449 10.0513 12.473 10.1472L12.497 10.3294L12.5449 10.6891L12.5833 10.9576C12.5833 10.9864 12.5833 11.02 12.6121 11.1255C12.6409 11.231 12.6121 11.1974 12.6361 11.2837C12.66 11.37 12.6361 11.37 12.66 11.442C12.7032 11.7201 12.7512 12.0078 12.8087 12.3099V12.4107" fill="#24975D"/>
<path d="M12.8087 12.3867L10.9576 12.8374V12.7415L10.809 11.8688C10.809 11.8016 10.809 11.7585 10.785 11.7153C10.761 11.6721 10.785 11.5906 10.761 11.5571C10.761 11.4516 10.761 11.418 10.761 11.3892C10.7425 11.3006 10.7297 11.2109 10.7227 11.1207L10.6699 10.761L10.6459 10.5788C10.6459 10.4829 10.6459 10.4397 10.622 10.4013C10.598 10.363 10.622 10.2623 10.622 10.2239C10.622 10.1855 10.55 10.0705 10.55 10.0705V9.88823C10.55 9.8115 10.55 9.76354 10.55 9.71559C10.55 9.66763 10.55 9.57652 10.55 9.52377C10.4733 8.79006 10.4253 8.08512 10.4014 7.42334L12.2524 6.96777C12.2764 7.63435 12.3292 8.33928 12.4011 9.0682C12.4011 9.12574 12.4011 9.17849 12.4251 9.26002C12.449 9.34154 12.4251 9.35593 12.4251 9.43265V9.61968C12.4251 9.65804 12.4251 9.7012 12.4251 9.79232C12.4251 9.88343 12.4251 9.87384 12.449 9.96975C12.473 10.0657 12.449 10.0513 12.473 10.1472L12.497 10.3294L12.5449 10.6891L12.5833 10.9576C12.5833 10.9864 12.5833 11.02 12.6121 11.1255C12.6409 11.231 12.6121 11.1974 12.6361 11.2837C12.66 11.37 12.6361 11.37 12.66 11.442C12.7032 11.7201 12.7512 12.0078 12.8087 12.3099V12.4107" fill="#24975D"/>
<path d="M12.8087 12.3867L10.9576 12.8374V12.7415L10.809 11.8688C10.809 11.8016 10.809 11.7585 10.785 11.7153C10.761 11.6721 10.785 11.5906 10.761 11.5571C10.761 11.4516 10.761 11.418 10.761 11.3892C10.7425 11.3006 10.7297 11.2109 10.7227 11.1207L10.6699 10.761L10.6459 10.5788C10.6459 10.4829 10.6459 10.4397 10.622 10.4013C10.598 10.363 10.622 10.2623 10.622 10.2239C10.622 10.1855 10.55 10.0705 10.55 10.0705V9.88823C10.55 9.8115 10.55 9.76354 10.55 9.71559C10.55 9.66763 10.55 9.57652 10.55 9.52377C10.4733 8.79006 10.4253 8.08512 10.4014 7.42334L12.2524 6.96777C12.2764 7.63435 12.3292 8.33928 12.4011 9.0682C12.4011 9.12574 12.4011 9.17849 12.4251 9.26002C12.449 9.34154 12.4251 9.35593 12.4251 9.43265V9.61968C12.4251 9.65804 12.4251 9.7012 12.4251 9.79232C12.4251 9.88343 12.4251 9.87384 12.449 9.96975C12.473 10.0657 12.449 10.0513 12.473 10.1472L12.497 10.3294L12.5449 10.6891L12.5833 10.9576C12.5833 10.9864 12.5833 11.02 12.6121 11.1255C12.6409 11.231 12.6121 11.1974 12.6361 11.2837C12.66 11.37 12.6361 11.37 12.66 11.442C12.7032 11.7201 12.7512 12.0078 12.8087 12.3099V12.4107" fill="#24975D"/>
<path d="M12.8087 12.3867L10.9576 12.8374V12.7415L10.809 11.8688C10.809 11.8016 10.809 11.7585 10.785 11.7153C10.761 11.6721 10.785 11.5906 10.761 11.5571C10.761 11.4516 10.761 11.418 10.761 11.3892C10.7425 11.3006 10.7297 11.2109 10.7227 11.1207L10.6699 10.761L10.6459 10.5788C10.6459 10.4829 10.6459 10.4397 10.622 10.4013C10.598 10.363 10.622 10.2623 10.622 10.2239C10.622 10.1855 10.55 10.0705 10.55 10.0705V9.88823C10.55 9.8115 10.55 9.76354 10.55 9.71559C10.55 9.66763 10.55 9.57652 10.55 9.52377C10.4733 8.79006 10.4253 8.08512 10.4014 7.42334L12.2524 6.96777C12.2764 7.63435 12.3292 8.33928 12.4011 9.0682C12.4011 9.12574 12.4011 9.17849 12.4251 9.26002C12.449 9.34154 12.4251 9.35593 12.4251 9.43265V9.61968C12.4251 9.65804 12.4251 9.7012 12.4251 9.79232C12.4251 9.88343 12.4251 9.87384 12.449 9.96975C12.473 10.0657 12.449 10.0513 12.473 10.1472L12.497 10.3294L12.5449 10.6891L12.5833 10.9576C12.5833 10.9864 12.5833 11.02 12.6121 11.1255C12.6409 11.231 12.6121 11.1974 12.6361 11.2837C12.66 11.37 12.6361 11.37 12.66 11.442C12.7032 11.7201 12.7512 12.0078 12.8087 12.3099V12.4107" fill="#24975D"/>
<path d="M13.5136 15.6764L11.6625 16.156C11.581 15.8203 11.5043 15.4942 11.4276 15.1729C11.4276 15.101 11.3988 15.0434 11.3892 14.9907C11.3796 14.9379 11.3604 14.8612 11.346 14.8084C11.3317 14.7557 11.3173 14.6694 11.3077 14.6166C11.2981 14.5639 11.2789 14.4871 11.2645 14.4344C11.2501 14.3816 11.2357 14.3001 11.2262 14.2522L11.1878 14.0651L11.1494 13.8733C11.1494 13.787 11.1207 13.739 11.1111 13.6911C11.1015 13.6431 11.0871 13.552 11.0775 13.5041L11.0295 13.2931C11.0295 13.2067 11.0056 13.1588 10.996 13.1108C10.9864 13.0629 10.972 12.9766 10.9624 12.9238V12.8375L12.8135 12.3867V12.4682C12.8135 12.521 12.8135 12.5737 12.8518 12.6553C12.8597 12.7182 12.8709 12.7806 12.8854 12.8423C12.8854 12.8902 12.8854 12.9382 12.919 13.0245L12.9573 13.2115C12.9573 13.2595 12.9573 13.3122 12.9957 13.3938C13.0341 13.4753 12.9957 13.4945 13.0341 13.5856L13.0724 13.7726L13.1108 13.9596C13.1108 14.0124 13.1348 14.0603 13.1491 14.1419C13.1635 14.2234 13.1491 14.2474 13.1923 14.3337C13.2355 14.42 13.1923 14.4392 13.2307 14.5111C13.269 14.5831 13.2546 14.6262 13.2738 14.6933C13.3458 15.0194 13.4225 15.3407 13.504 15.6524" fill="#23935B"/>
<path d="M13.5136 15.6764L11.6625 16.156C11.581 15.8203 11.5043 15.4942 11.4276 15.1729C11.4276 15.101 11.3988 15.0434 11.3892 14.9907C11.3796 14.9379 11.3604 14.8612 11.346 14.8084C11.3317 14.7557 11.3173 14.6694 11.3077 14.6166C11.2981 14.5639 11.2789 14.4871 11.2645 14.4344C11.2501 14.3816 11.2357 14.3001 11.2262 14.2522L11.1878 14.0651L11.1494 13.8733C11.1494 13.787 11.1207 13.739 11.1111 13.6911C11.1015 13.6431 11.0871 13.552 11.0775 13.5041L11.0295 13.2931C11.0295 13.2067 11.0056 13.1588 10.996 13.1108C10.9864 13.0629 10.972 12.9766 10.9624 12.9238V12.8375L12.8135 12.3867V12.4682C12.8135 12.521 12.8135 12.5737 12.8518 12.6553C12.8597 12.7182 12.8709 12.7806 12.8854 12.8423C12.8854 12.8902 12.8854 12.9382 12.919 13.0245L12.9573 13.2115C12.9573 13.2595 12.9573 13.3122 12.9957 13.3938C13.0341 13.4753 12.9957 13.4945 13.0341 13.5856L13.0724 13.7726L13.1108 13.9596C13.1108 14.0124 13.1348 14.0603 13.1491 14.1419C13.1635 14.2234 13.1491 14.2474 13.1923 14.3337C13.2355 14.42 13.1923 14.4392 13.2307 14.5111C13.269 14.5831 13.2546 14.6262 13.2738 14.6933C13.3458 15.0194 13.4225 15.3407 13.504 15.6524" fill="#23935B"/>
<path d="M13.5136 15.6764L11.6625 16.156C11.581 15.8203 11.5043 15.4942 11.4276 15.1729C11.4276 15.101 11.3988 15.0434 11.3892 14.9907C11.3796 14.9379 11.3604 14.8612 11.346 14.8084C11.3317 14.7557 11.3173 14.6694 11.3077 14.6166C11.2981 14.5639 11.2789 14.4871 11.2645 14.4344C11.2501 14.3816 11.2357 14.3001 11.2262 14.2522L11.1878 14.0651L11.1494 13.8733C11.1494 13.787 11.1207 13.739 11.1111 13.6911C11.1015 13.6431 11.0871 13.552 11.0775 13.5041L11.0295 13.2931C11.0295 13.2067 11.0056 13.1588 10.996 13.1108C10.9864 13.0629 10.972 12.9766 10.9624 12.9238V12.8375L12.8135 12.3867V12.4682C12.8135 12.521 12.8135 12.5737 12.8518 12.6553C12.8597 12.7182 12.8709 12.7806 12.8854 12.8423C12.8854 12.8902 12.8854 12.9382 12.919 13.0245L12.9573 13.2115C12.9573 13.2595 12.9573 13.3122 12.9957 13.3938C13.0341 13.4753 12.9957 13.4945 13.0341 13.5856L13.0724 13.7726L13.1108 13.9596C13.1108 14.0124 13.1348 14.0603 13.1491 14.1419C13.1635 14.2234 13.1491 14.2474 13.1923 14.3337C13.2355 14.42 13.1923 14.4392 13.2307 14.5111C13.269 14.5831 13.2546 14.6262 13.2738 14.6933C13.3458 15.0194 13.4225 15.3407 13.504 15.6524" fill="#23935B"/>
<path d="M13.5136 15.6764L11.6625 16.156C11.581 15.8203 11.5043 15.4942 11.4276 15.1729C11.4276 15.101 11.3988 15.0434 11.3892 14.9907C11.3796 14.9379 11.3604 14.8612 11.346 14.8084C11.3317 14.7557 11.3173 14.6694 11.3077 14.6166C11.2981 14.5639 11.2789 14.4871 11.2645 14.4344C11.2501 14.3816 11.2357 14.3001 11.2262 14.2522L11.1878 14.0651L11.1494 13.8733C11.1494 13.787 11.1207 13.739 11.1111 13.6911C11.1015 13.6431 11.0871 13.552 11.0775 13.5041L11.0295 13.2931C11.0295 13.2067 11.0056 13.1588 10.996 13.1108C10.9864 13.0629 10.972 12.9766 10.9624 12.9238V12.8375L12.8135 12.3867V12.4682C12.8135 12.521 12.8135 12.5737 12.8518 12.6553C12.8597 12.7182 12.8709 12.7806 12.8854 12.8423C12.8854 12.8902 12.8854 12.9382 12.919 13.0245L12.9573 13.2115C12.9573 13.2595 12.9573 13.3122 12.9957 13.3938C13.0341 13.4753 12.9957 13.4945 13.0341 13.5856L13.0724 13.7726L13.1108 13.9596C13.1108 14.0124 13.1348 14.0603 13.1491 14.1419C13.1635 14.2234 13.1491 14.2474 13.1923 14.3337C13.2355 14.42 13.1923 14.4392 13.2307 14.5111C13.269 14.5831 13.2546 14.6262 13.2738 14.6933C13.3458 15.0194 13.4225 15.3407 13.504 15.6524" fill="#23935B"/>
<path d="M13.5136 15.6764L11.6625 16.156C11.581 15.8203 11.5043 15.4942 11.4276 15.1729C11.4276 15.101 11.3988 15.0434 11.3892 14.9907C11.3796 14.9379 11.3604 14.8612 11.346 14.8084C11.3317 14.7557 11.3173 14.6694 11.3077 14.6166C11.2981 14.5639 11.2789 14.4871 11.2645 14.4344C11.2501 14.3816 11.2357 14.3001 11.2262 14.2522L11.1878 14.0651L11.1494 13.8733C11.1494 13.787 11.1207 13.739 11.1111 13.6911C11.1015 13.6431 11.0871 13.552 11.0775 13.5041L11.0295 13.2931C11.0295 13.2067 11.0056 13.1588 10.996 13.1108C10.9864 13.0629 10.972 12.9766 10.9624 12.9238V12.8375L12.8135 12.3867V12.4682C12.8135 12.521 12.8135 12.5737 12.8518 12.6553C12.8597 12.7182 12.8709 12.7806 12.8854 12.8423C12.8854 12.8902 12.8854 12.9382 12.919 13.0245L12.9573 13.2115C12.9573 13.2595 12.9573 13.3122 12.9957 13.3938C13.0341 13.4753 12.9957 13.4945 13.0341 13.5856L13.0724 13.7726L13.1108 13.9596C13.1108 14.0124 13.1348 14.0603 13.1491 14.1419C13.1635 14.2234 13.1491 14.2474 13.1923 14.3337C13.2355 14.42 13.1923 14.4392 13.2307 14.5111C13.269 14.5831 13.2546 14.6262 13.2738 14.6933C13.3458 15.0194 13.4225 15.3407 13.504 15.6524" fill="#23935B"/>
<path d="M13.5136 15.6764L11.6625 16.156C11.581 15.8203 11.5043 15.4942 11.4276 15.1729C11.4276 15.101 11.3988 15.0434 11.3892 14.9907C11.3796 14.9379 11.3604 14.8612 11.346 14.8084C11.3317 14.7557 11.3173 14.6694 11.3077 14.6166C11.2981 14.5639 11.2789 14.4871 11.2645 14.4344C11.2501 14.3816 11.2357 14.3001 11.2262 14.2522L11.1878 14.0651L11.1494 13.8733C11.1494 13.787 11.1207 13.739 11.1111 13.6911C11.1015 13.6431 11.0871 13.552 11.0775 13.5041L11.0295 13.2931C11.0295 13.2067 11.0056 13.1588 10.996 13.1108C10.9864 13.0629 10.972 12.9766 10.9624 12.9238V12.8375L12.8135 12.3867V12.4682C12.8135 12.521 12.8135 12.5737 12.8518 12.6553C12.8597 12.7182 12.8709 12.7806 12.8854 12.8423C12.8854 12.8902 12.8854 12.9382 12.919 13.0245L12.9573 13.2115C12.9573 13.2595 12.9573 13.3122 12.9957 13.3938C13.0341 13.4753 12.9957 13.4945 13.0341 13.5856L13.0724 13.7726L13.1108 13.9596C13.1108 14.0124 13.1348 14.0603 13.1491 14.1419C13.1635 14.2234 13.1491 14.2474 13.1923 14.3337C13.2355 14.42 13.1923 14.4392 13.2307 14.5111C13.269 14.5831 13.2546 14.6262 13.2738 14.6933C13.3458 15.0194 13.4225 15.3407 13.504 15.6524" fill="#23935B"/>
<path d="M13.5136 15.6764L11.6625 16.156C11.581 15.8203 11.5043 15.4942 11.4276 15.1729C11.4276 15.101 11.3988 15.0434 11.3892 14.9907C11.3796 14.9379 11.3604 14.8612 11.346 14.8084C11.3317 14.7557 11.3173 14.6694 11.3077 14.6166C11.2981 14.5639 11.2789 14.4871 11.2645 14.4344C11.2501 14.3816 11.2357 14.3001 11.2262 14.2522L11.1878 14.0651L11.1494 13.8733C11.1494 13.787 11.1207 13.739 11.1111 13.6911C11.1015 13.6431 11.0871 13.552 11.0775 13.5041L11.0295 13.2931C11.0295 13.2067 11.0056 13.1588 10.996 13.1108C10.9864 13.0629 10.972 12.9766 10.9624 12.9238V12.8375L12.8135 12.3867V12.4682C12.8135 12.521 12.8135 12.5737 12.8518 12.6553C12.8597 12.7182 12.8709 12.7806 12.8854 12.8423C12.8854 12.8902 12.8854 12.9382 12.919 13.0245L12.9573 13.2115C12.9573 13.2595 12.9573 13.3122 12.9957 13.3938C13.0341 13.4753 12.9957 13.4945 13.0341 13.5856L13.0724 13.7726L13.1108 13.9596C13.1108 14.0124 13.1348 14.0603 13.1491 14.1419C13.1635 14.2234 13.1491 14.2474 13.1923 14.3337C13.2355 14.42 13.1923 14.4392 13.2307 14.5111C13.269 14.5831 13.2546 14.6262 13.2738 14.6933C13.3458 15.0194 13.4225 15.3407 13.504 15.6524" fill="#23935B"/>
<path d="M13.5136 15.6764L11.6625 16.156C11.581 15.8203 11.5043 15.4942 11.4276 15.1729C11.4276 15.101 11.3988 15.0434 11.3892 14.9907C11.3796 14.9379 11.3604 14.8612 11.346 14.8084C11.3317 14.7557 11.3173 14.6694 11.3077 14.6166C11.2981 14.5639 11.2789 14.4871 11.2645 14.4344C11.2501 14.3816 11.2357 14.3001 11.2262 14.2522L11.1878 14.0651L11.1494 13.8733C11.1494 13.787 11.1207 13.739 11.1111 13.6911C11.1015 13.6431 11.0871 13.552 11.0775 13.5041L11.0295 13.2931C11.0295 13.2067 11.0056 13.1588 10.996 13.1108C10.9864 13.0629 10.972 12.9766 10.9624 12.9238V12.8375L12.8135 12.3867V12.4682C12.8135 12.521 12.8135 12.5737 12.8518 12.6553C12.8597 12.7182 12.8709 12.7806 12.8854 12.8423C12.8854 12.8902 12.8854 12.9382 12.919 13.0245L12.9573 13.2115C12.9573 13.2595 12.9573 13.3122 12.9957 13.3938C13.0341 13.4753 12.9957 13.4945 13.0341 13.5856L13.0724 13.7726L13.1108 13.9596C13.1108 14.0124 13.1348 14.0603 13.1491 14.1419C13.1635 14.2234 13.1491 14.2474 13.1923 14.3337C13.2355 14.42 13.1923 14.4392 13.2307 14.5111C13.269 14.5831 13.2546 14.6262 13.2738 14.6933C13.3458 15.0194 13.4225 15.3407 13.504 15.6524" fill="#23935B"/>
<path d="M13.5136 15.6764L11.6625 16.156C11.581 15.8203 11.5043 15.4942 11.4276 15.1729C11.4276 15.101 11.3988 15.0434 11.3892 14.9907C11.3796 14.9379 11.3604 14.8612 11.346 14.8084C11.3317 14.7557 11.3173 14.6694 11.3077 14.6166C11.2981 14.5639 11.2789 14.4871 11.2645 14.4344C11.2501 14.3816 11.2357 14.3001 11.2262 14.2522L11.1878 14.0651L11.1494 13.8733C11.1494 13.787 11.1207 13.739 11.1111 13.6911C11.1015 13.6431 11.0871 13.552 11.0775 13.5041L11.0295 13.2931C11.0295 13.2067 11.0056 13.1588 10.996 13.1108C10.9864 13.0629 10.972 12.9766 10.9624 12.9238V12.8375L12.8135 12.3867V12.4682C12.8135 12.521 12.8135 12.5737 12.8518 12.6553C12.8597 12.7182 12.8709 12.7806 12.8854 12.8423C12.8854 12.8902 12.8854 12.9382 12.919 13.0245L12.9573 13.2115C12.9573 13.2595 12.9573 13.3122 12.9957 13.3938C13.0341 13.4753 12.9957 13.4945 13.0341 13.5856L13.0724 13.7726L13.1108 13.9596C13.1108 14.0124 13.1348 14.0603 13.1491 14.1419C13.1635 14.2234 13.1491 14.2474 13.1923 14.3337C13.2355 14.42 13.1923 14.4392 13.2307 14.5111C13.269 14.5831 13.2546 14.6262 13.2738 14.6933C13.3458 15.0194 13.4225 15.3407 13.504 15.6524" fill="#23935B"/>
<path d="M13.5136 15.6764L11.6625 16.156C11.581 15.8203 11.5043 15.4942 11.4276 15.1729C11.4276 15.101 11.3988 15.0434 11.3892 14.9907C11.3796 14.9379 11.3604 14.8612 11.346 14.8084C11.3317 14.7557 11.3173 14.6694 11.3077 14.6166C11.2981 14.5639 11.2789 14.4871 11.2645 14.4344C11.2501 14.3816 11.2357 14.3001 11.2262 14.2522L11.1878 14.0651L11.1494 13.8733C11.1494 13.787 11.1207 13.739 11.1111 13.6911C11.1015 13.6431 11.0871 13.552 11.0775 13.5041L11.0295 13.2931C11.0295 13.2067 11.0056 13.1588 10.996 13.1108C10.9864 13.0629 10.972 12.9766 10.9624 12.9238V12.8375L12.8135 12.3867V12.4682C12.8135 12.521 12.8135 12.5737 12.8518 12.6553C12.8597 12.7182 12.8709 12.7806 12.8854 12.8423C12.8854 12.8902 12.8854 12.9382 12.919 13.0245L12.9573 13.2115C12.9573 13.2595 12.9573 13.3122 12.9957 13.3938C13.0341 13.4753 12.9957 13.4945 13.0341 13.5856L13.0724 13.7726L13.1108 13.9596C13.1108 14.0124 13.1348 14.0603 13.1491 14.1419C13.1635 14.2234 13.1491 14.2474 13.1923 14.3337C13.2355 14.42 13.1923 14.4392 13.2307 14.5111C13.269 14.5831 13.2546 14.6262 13.2738 14.6933C13.3458 15.0194 13.4225 15.3407 13.504 15.6524" fill="#23935B"/>
<path d="M13.5136 15.6764L11.6625 16.156C11.581 15.8203 11.5043 15.4942 11.4276 15.1729C11.4276 15.101 11.3988 15.0434 11.3892 14.9907C11.3796 14.9379 11.3604 14.8612 11.346 14.8084C11.3317 14.7557 11.3173 14.6694 11.3077 14.6166C11.2981 14.5639 11.2789 14.4871 11.2645 14.4344C11.2501 14.3816 11.2357 14.3001 11.2262 14.2522L11.1878 14.0651L11.1494 13.8733C11.1494 13.787 11.1207 13.739 11.1111 13.6911C11.1015 13.6431 11.0871 13.552 11.0775 13.5041L11.0295 13.2931C11.0295 13.2067 11.0056 13.1588 10.996 13.1108C10.9864 13.0629 10.972 12.9766 10.9624 12.9238V12.8375L12.8135 12.3867V12.4682C12.8135 12.521 12.8135 12.5737 12.8518 12.6553C12.8597 12.7182 12.8709 12.7806 12.8854 12.8423C12.8854 12.8902 12.8854 12.9382 12.919 13.0245L12.9573 13.2115C12.9573 13.2595 12.9573 13.3122 12.9957 13.3938C13.0341 13.4753 12.9957 13.4945 13.0341 13.5856L13.0724 13.7726L13.1108 13.9596C13.1108 14.0124 13.1348 14.0603 13.1491 14.1419C13.1635 14.2234 13.1491 14.2474 13.1923 14.3337C13.2355 14.42 13.1923 14.4392 13.2307 14.5111C13.269 14.5831 13.2546 14.6262 13.2738 14.6933C13.3458 15.0194 13.4225 15.3407 13.504 15.6524" fill="#23935B"/>
<path d="M14.1658 18.098L12.3148 18.5488L12.2812 18.4433C12.2476 18.333 12.2381 18.2899 12.2285 18.2515C12.1949 18.1316 12.1805 18.0932 12.1709 18.0501C12.1374 17.935 12.123 17.8918 12.1134 17.8487C12.1038 17.8055 12.0702 17.6952 12.0558 17.6473C12.0414 17.5993 12.0175 17.4986 12.0031 17.4554L11.9551 17.2732C11.9216 17.1533 11.912 17.1054 11.8976 17.0574C11.8832 17.0095 11.8592 16.9088 11.8448 16.8608C11.8304 16.8129 11.8113 16.7169 11.7969 16.6642C11.7489 16.482 11.7058 16.3045 11.6626 16.1319L13.5137 15.6523C13.5568 15.8298 13.6048 16.0072 13.6479 16.1894L13.7007 16.3813C13.7007 16.4292 13.7247 16.482 13.7534 16.5827C13.7822 16.6834 13.7774 16.6738 13.811 16.7937C13.811 16.832 13.811 16.8752 13.8589 16.9759C13.9069 17.0766 13.8829 17.067 13.9117 17.1677C13.9405 17.2684 13.9117 17.2588 13.9644 17.3739C13.9644 17.4123 13.9884 17.4554 14.022 17.5705C14.0555 17.6856 14.046 17.6569 14.0795 17.7719L14.1371 17.9638C14.1371 17.9925 14.1371 18.0213 14.1658 18.0741" fill="#228F58"/>
<path d="M14.1658 18.098L12.3148 18.5488L12.2812 18.4433C12.2476 18.333 12.2381 18.2899 12.2285 18.2515C12.1949 18.1316 12.1805 18.0932 12.1709 18.0501C12.1374 17.935 12.123 17.8918 12.1134 17.8487C12.1038 17.8055 12.0702 17.6952 12.0558 17.6473C12.0414 17.5993 12.0175 17.4986 12.0031 17.4554L11.9551 17.2732C11.9216 17.1533 11.912 17.1054 11.8976 17.0574C11.8832 17.0095 11.8592 16.9088 11.8448 16.8608C11.8304 16.8129 11.8113 16.7169 11.7969 16.6642C11.7489 16.482 11.7058 16.3045 11.6626 16.1319L13.5137 15.6523C13.5568 15.8298 13.6048 16.0072 13.6479 16.1894L13.7007 16.3813C13.7007 16.4292 13.7247 16.482 13.7534 16.5827C13.7822 16.6834 13.7774 16.6738 13.811 16.7937C13.811 16.832 13.811 16.8752 13.8589 16.9759C13.9069 17.0766 13.8829 17.067 13.9117 17.1677C13.9405 17.2684 13.9117 17.2588 13.9644 17.3739C13.9644 17.4123 13.9884 17.4554 14.022 17.5705C14.0555 17.6856 14.046 17.6569 14.0795 17.7719L14.1371 17.9638C14.1371 17.9925 14.1371 18.0213 14.1658 18.0741" fill="#228F58"/>
<path d="M13.5136 15.6764L11.6625 16.156C11.581 15.8203 11.5043 15.4942 11.4276 15.1729C11.4276 15.101 11.3988 15.0434 11.3892 14.9907C11.3796 14.9379 11.3604 14.8612 11.346 14.8084C11.3317 14.7557 11.3173 14.6694 11.3077 14.6166C11.2981 14.5639 11.2789 14.4871 11.2645 14.4344C11.2501 14.3816 11.2357 14.3001 11.2262 14.2522L11.1878 14.0651L11.1494 13.8733C11.1494 13.787 11.1207 13.739 11.1111 13.6911C11.1015 13.6431 11.0871 13.552 11.0775 13.5041L11.0295 13.2931C11.0295 13.2067 11.0056 13.1588 10.996 13.1108C10.9864 13.0629 10.972 12.9766 10.9624 12.9238V12.8375L12.8135 12.3867V12.4682C12.8135 12.521 12.8135 12.5737 12.8518 12.6553C12.8597 12.7182 12.8709 12.7806 12.8854 12.8423C12.8854 12.8902 12.8854 12.9382 12.919 13.0245L12.9573 13.2115C12.9573 13.2595 12.9573 13.3122 12.9957 13.3938C13.0341 13.4753 12.9957 13.4945 13.0341 13.5856L13.0724 13.7726L13.1108 13.9596C13.1108 14.0124 13.1348 14.0603 13.1491 14.1419C13.1635 14.2234 13.1491 14.2474 13.1923 14.3337C13.2355 14.42 13.1923 14.4392 13.2307 14.5111C13.269 14.5831 13.2546 14.6262 13.2738 14.6933C13.3458 15.0194 13.4225 15.3407 13.504 15.6524" fill="#23935B"/>
<path d="M13.4416 17.2396L11.5906 17.6952L11.955 17.2732L13.8109 16.8176L13.4416 17.2396Z" fill="#104129"/>
<path d="M13.8013 16.784L13.4273 17.2635L13.3649 17.0238V16.9422C13.355 16.892 13.3422 16.8424 13.3266 16.7936L13.3026 16.6929C13.3026 16.6449 13.3026 16.597 13.2642 16.5538C13.2258 16.5106 13.2642 16.4819 13.2402 16.4483C13.2163 16.4147 13.2067 16.3188 13.1923 16.2565L13.1635 16.1462L13.1347 16.0263L13.106 15.9112L13.0772 15.7913C13.0772 15.729 13.0484 15.681 13.0388 15.6283L13.0053 15.4892L12.9477 15.3453C12.9425 15.308 12.9345 15.2712 12.9237 15.235C12.921 15.1951 12.921 15.1551 12.9237 15.1152L12.895 15.0049V14.9713C12.882 14.9355 12.8676 14.9003 12.8518 14.8658C12.8518 14.7987 12.8518 14.7651 12.823 14.7315C12.7943 14.698 12.823 14.65 12.823 14.6068L12.799 14.5157C12.7934 14.4722 12.7854 14.4289 12.7751 14.3862C12.7751 14.3383 12.7751 14.2903 12.7415 14.2424V14.204C12.7393 14.1753 12.7393 14.1464 12.7415 14.1177V14.0841V13.9786C12.7415 13.9403 12.7415 13.9019 12.7175 13.8587C12.6935 13.8156 12.7175 13.7868 12.6935 13.7532C12.6696 13.7197 12.6935 13.6813 12.6935 13.6429C12.6935 13.6046 12.6696 13.5135 12.6552 13.4511C12.6408 13.3888 12.6552 13.3792 12.6552 13.3456C12.6552 13.3121 12.6552 13.2689 12.6552 13.2305C12.6552 13.1922 12.6552 13.1586 12.6552 13.125C12.6552 13.0915 12.6552 13.0435 12.6552 13.0004V12.9428V12.9092V12.8661L12.6264 12.7126V12.6119C12.6264 12.5736 12.6264 12.5352 12.6024 12.4968V12.3961L12.5737 12.2427V12.1755C12.5737 12.094 12.5497 12.0413 12.5449 11.9837V11.8974C12.5449 11.8542 12.5449 11.8111 12.5209 11.7679V11.6816L12.4921 11.485V11.4322C12.4921 11.3747 12.4921 11.3219 12.4682 11.2692V11.1972C12.4682 11.1445 12.4682 11.0965 12.4682 11.0486V10.9815L12.4394 10.78V10.7225C12.4394 10.6697 12.4394 10.6218 12.4394 10.569V10.4971V10.3964V10.2957C12.4394 10.2286 12.4394 10.1566 12.4154 10.0895V10.0415C12.4154 9.98879 12.4154 9.93124 12.4154 9.87849V9.82574L12.3722 9.40853V9.36537V9.20233V9.16396C12.3722 9.02969 12.3483 8.89062 12.3387 8.75635C12.3291 8.62207 12.3387 8.59809 12.3387 8.54055C12.3387 8.3823 12.3387 8.24802 12.3099 8.11375C12.2811 7.97948 12.3099 7.98907 12.3099 7.94111C12.3099 7.89316 12.3099 7.84041 12.3099 7.79245C12.3099 7.7445 12.3099 7.68695 12.3099 7.639C12.3099 7.59104 12.3099 7.53829 12.3099 7.49034C12.3099 7.34168 12.3099 7.2074 12.3099 7.07793C12.3099 6.94845 12.3099 6.94845 12.3099 6.88611C12.3099 6.82377 12.3099 6.71347 12.3099 6.63674V6.15719C12.3099 6.07567 12.3099 5.99894 12.3099 5.92221C12.3099 5.84549 12.3099 5.8263 12.3099 5.78314C12.3074 5.73842 12.3074 5.69359 12.3099 5.64887C12.3073 5.60415 12.3073 5.55932 12.3099 5.5146C12.3099 5.46664 12.3099 5.42348 12.3099 5.38032C12.3099 5.33716 12.3099 5.28921 12.3099 5.25085C12.3099 5.21248 12.3099 5.15973 12.3099 5.12137C12.3099 5.083 12.3099 5.03505 12.3099 4.99668C12.3099 4.95832 12.3099 4.90557 12.3099 4.86721C12.3473 4.39746 12.4098 3.93003 12.4969 3.46692L12.8662 3.04492L12.8374 3.18399C12.8374 3.28949 12.8038 3.3854 12.7895 3.48611C12.7751 3.58681 12.7895 3.59161 12.7895 3.63956C12.7895 3.68752 12.7607 3.84577 12.7511 3.95127C12.7415 4.05677 12.7223 4.18145 12.7127 4.28695C12.7031 4.39245 12.7127 4.39725 12.7127 4.4452C12.7127 4.57468 12.7127 4.68498 12.6888 4.80007C12.6648 4.91516 12.6888 4.91996 12.6888 4.97271C12.6888 5.10219 12.6888 5.21728 12.6888 5.33237V5.36114C12.6888 5.41869 12.6888 5.47623 12.6888 5.52898V5.71601C12.6888 5.78794 12.6888 5.84069 12.6888 5.89824C12.6888 6.0469 12.6888 6.16678 12.6888 6.29147V6.48808C12.6888 6.63674 12.6888 6.76142 12.6888 6.8909C12.6888 7.02038 12.6888 7.04436 12.6888 7.11149C12.6888 7.17863 12.6888 7.24577 12.6888 7.3129C12.6888 7.38004 12.6888 7.45197 12.6888 7.51432C12.6888 7.67736 12.6888 7.81164 12.7127 7.94591C12.7367 8.08018 12.7127 8.09936 12.7127 8.16171C12.7127 8.31996 12.7367 8.45903 12.7463 8.60289C12.7559 8.74676 12.7751 8.9146 12.7895 9.08244C12.7895 9.14478 12.7895 9.19753 12.7895 9.24549C12.7895 9.29344 12.7895 9.37017 12.7895 9.41812V9.58597V9.59076C12.7895 9.63872 12.7895 9.67228 12.7895 9.71065V9.7634V9.88329V9.94083C12.7895 9.98559 12.7895 10.024 12.7895 10.0559V10.1183C12.7895 10.1614 12.7895 10.195 12.7895 10.2286V10.3005V10.4012V10.4827V10.5786V10.6602V10.7369C12.793 10.7704 12.793 10.8041 12.7895 10.8376V10.8999V11.0198V11.0965V11.202V11.2404C12.7895 11.298 12.7895 11.3411 12.8134 11.3843C12.8374 11.4274 12.8374 11.5473 12.847 11.6049V11.6528C12.847 11.7056 12.847 11.7583 12.871 11.8063V11.859L12.8998 12.0173V12.0652L12.9285 12.2523C12.9285 12.3338 12.9573 12.3865 12.9669 12.4393C12.9765 12.492 12.9669 12.5688 12.9957 12.6215L13.0292 12.7941L13.0676 12.9812C13.0676 13.0675 13.0916 13.1154 13.1012 13.1634L13.1395 13.3552V13.4032L13.1683 13.5374V13.5758C13.1683 13.6286 13.1683 13.6765 13.2019 13.7245L13.2402 13.9163C13.2402 14.0074 13.2738 14.0554 13.2834 14.1081C13.293 14.1609 13.3122 14.2424 13.3218 14.2951C13.3313 14.3479 13.3553 14.4342 13.3649 14.487C13.3745 14.5397 13.3937 14.6212 13.4081 14.6788C13.4992 15.0672 13.5807 15.4221 13.6718 15.7865L13.7198 15.9736C13.7198 16.0455 13.7486 16.0934 13.7629 16.1462V16.1798C13.7629 16.2613 13.7965 16.314 13.8109 16.3668C13.8253 16.4195 13.8445 16.5011 13.8588 16.549V16.597C13.8588 16.6449 13.8828 16.6929 13.8924 16.7408L13.8013 16.784Z" fill="#175D3A"/>
<path d="M22.7978 13.504C25.608 22.2989 26.054 30.7677 23.7905 32.427C23.5143 32.6312 23.1741 32.7299 22.8314 32.7051H22.6923L22.5389 32.6572C20.2035 32.0913 16.9473 26.8546 14.5976 19.5127C14.5976 19.4456 14.5592 19.3785 14.5352 19.3113L14.5064 19.2154L14.4729 19.1099C14.4639 19.0741 14.4527 19.0389 14.4393 19.0044L14.4105 18.9133C14.4022 18.8757 14.391 18.8388 14.377 18.803C14.3386 18.6735 14.329 18.6352 14.3194 18.6016C14.2763 18.4721 14.2667 18.4338 14.2571 18.3954C14.2187 18.2755 14.2091 18.2323 14.1947 18.1892C14.1804 18.146 14.1468 18.0309 14.1372 17.9878L14.0796 17.796C14.0461 17.6809 14.0365 17.6377 14.0221 17.5945C14.0077 17.5514 13.9789 17.4363 13.9646 17.3979C13.9358 17.2637 13.907 17.2637 13.907 17.1917C13.907 17.1198 13.8638 17.0479 13.8543 16.9999C13.8447 16.9519 13.8159 16.856 13.8063 16.8177C13.7727 16.6978 13.7583 16.6498 13.7488 16.6067C13.7392 16.5635 13.7056 16.4532 13.696 16.4053L13.6433 16.2134C13.509 15.6859 13.3891 15.1872 13.2788 14.6933C13.2788 14.6261 13.25 14.5686 13.2356 14.511C13.2213 14.4535 13.2069 14.3864 13.1973 14.3336C13.1877 14.2809 13.1637 14.1945 13.1541 14.1418C13.1445 14.089 13.1253 14.0123 13.1158 13.9596L13.0774 13.7725L13.039 13.5855C13.039 13.4944 13.0103 13.4464 13.0007 13.3937C12.9911 13.3409 12.9719 13.2594 12.9623 13.2115L12.9479 13.0244C12.9479 12.9381 12.9239 12.8902 12.9143 12.8422C12.8998 12.7805 12.8886 12.7181 12.8808 12.6552C12.8808 12.5737 12.852 12.5209 12.8424 12.4682C12.8328 12.4154 12.8424 12.3387 12.8136 12.2859C12.7561 11.9838 12.7081 11.6961 12.665 11.418C12.665 11.346 12.665 11.3029 12.641 11.2597C12.617 11.2165 12.641 11.1398 12.617 11.1015C12.593 11.0631 12.593 10.9624 12.5882 10.9336L12.5499 10.6651L12.5019 10.3054L12.4684 10.1232C12.4684 10.0273 12.4684 9.9889 12.4444 9.94574C12.4204 9.90258 12.4444 9.81147 12.4204 9.76831C12.3964 9.72515 12.4204 9.63404 12.4204 9.59567V9.40865C12.4204 9.33192 12.4204 9.28397 12.4204 9.23601C12.4204 9.18806 12.4204 9.10174 12.3964 9.04419C11.9648 4.7858 12.3677 1.54885 13.6768 0.589748C13.9531 0.385493 14.2933 0.286832 14.6359 0.31161H14.775C17.0385 0.671271 20.3953 5.98947 22.7978 13.504ZM22.7499 21.9728L23.1527 21.6755L22.021 18.1316L19.182 20.2081L19.5465 10.4301L18.7025 7.73023L14.0748 11.1206L14.1132 11.2453L15.2066 14.6645L18.0311 12.5976L17.6715 22.3756L18.5347 25.0707L22.7595 21.9728" fill="#29AC6A"/>
<path d="M22.0209 18.1316L21.6565 18.5536L18.8271 20.63L19.1916 20.208L22.0209 18.1316Z" fill="#155736"/>
<path d="M12.9287 1.30433L11.0776 1.7599L11.4421 1.3331L13.2979 0.882324L12.9287 1.30433Z" fill="#104129"/>
<path d="M12.8758 1.36654L11.0295 1.82211L11.0727 1.77416L12.9477 1.3042L12.9094 1.35215" fill="#0F3E27"/>
<path d="M12.7992 1.47229L10.9434 1.91827L12.7992 1.43872" fill="#104028"/>
<path d="M12.8087 1.43872L10.9529 1.91827L12.8039 1.43872" fill="#0F3E27"/>
<path d="M12.8137 1.43872L10.9626 1.91827L12.8137 1.43872Z" fill="#104028"/>
<path d="M12.8279 1.43872L10.9768 1.91827L12.8327 1.43872" fill="#0F3E27"/>
<path d="M12.8376 1.41943L10.9866 1.875V1.87021L12.8376 1.41943Z" fill="#104028"/>
<path d="M12.8376 1.43863L10.9866 1.91818L11.0297 1.82227L12.8808 1.3667L12.852 1.40506" fill="#0F3E27"/>
<path d="M12.2092 2.75732L10.3582 3.23687L12.2092 2.75732Z" fill="#11472C"/>
<path d="M12.2141 2.73816L10.363 3.21771C10.3726 3.19102 10.3806 3.1638 10.387 3.13619L10.4158 3.04507L10.4398 2.97314V2.94437C10.4398 2.94437 10.4398 2.90601 10.4398 2.89162V2.85805V2.8101V2.77653C10.4406 2.76055 10.4406 2.74455 10.4398 2.72857L12.2956 2.24902V2.29698V2.32575C12.2956 2.32575 12.2956 2.35932 12.2956 2.3785V2.40727C12.2943 2.42483 12.2943 2.44246 12.2956 2.46002V2.4888C12.2936 2.51273 12.2936 2.5368 12.2956 2.56073L12.2668 2.64705C12.2567 2.67353 12.2486 2.70079 12.2429 2.72857" fill="#11442B"/>
<path d="M12.3915 2.23457L10.55 2.69014V2.66137V2.61342V2.58464V2.54148V2.50792V2.46955V2.43598V2.39762V2.36405V2.32569V2.29691C10.55 2.29691 10.55 2.29691 10.55 2.25855L12.4011 1.80298L12.3771 1.84134V1.87012V1.90848V1.94205V1.98041V2.01398V2.05234V2.08591V2.12907V2.16264V2.2058V2.23457" fill="#10422A"/>
<path d="M12.5976 1.78865L10.7466 2.24423V2.20586V2.17709V2.14352V2.11475L10.7706 2.07638L10.8089 2.01404L10.8329 1.98047L12.6888 1.5249C12.6797 1.53699 12.6717 1.54983 12.6648 1.56327L12.6216 1.62081L12.5928 1.65918V1.68795C12.5928 1.68795 12.5928 1.68795 12.5928 1.72631V1.75509V1.78865" fill="#104028"/>
<path d="M12.0415 3.44788L10.1904 3.90345L10.5549 3.48145L12.4107 3.02588L12.0415 3.44788Z" fill="#10432A"/>
<path d="M12.0798 3.27993L10.224 3.7307V3.65397V3.6252V3.55807V3.52929C10.2218 3.50536 10.2218 3.48129 10.224 3.45736V3.4142V3.38543V3.35665C10.2218 3.33273 10.2218 3.30865 10.224 3.28472C10.2212 3.26243 10.2212 3.23988 10.224 3.21759L12.0751 2.73804C12.0772 2.76037 12.0772 2.78285 12.0751 2.80517C12.0772 2.8291 12.0772 2.85318 12.0751 2.87711V2.92506V2.96822V3.04015V3.07372V3.13606C12.0751 3.13606 12.0751 3.18881 12.0751 3.21279" fill="#11472C"/>
<path d="M12.8757 1.36669L12.9141 1.31873L13.2834 0.896729L13.245 0.939888L13.2306 0.95907C13.2328 0.970151 13.2328 0.981557 13.2306 0.992638V1.02621C13.22 1.03529 13.2118 1.04681 13.2066 1.05978L13.1587 1.1365C13.1563 1.14918 13.1563 1.16219 13.1587 1.17487C13.1587 1.17487 13.1587 1.17487 13.1587 1.21323C13.1525 1.22857 13.1445 1.24307 13.1347 1.25639C13.1107 1.29955 13.0867 1.3523 13.0628 1.40025V1.44341V1.46739L13.0388 1.51055V1.55851L12.7079 1.91817C12.7079 1.91817 12.7079 1.95653 12.7079 1.97092C12.7052 1.9884 12.7052 2.00619 12.7079 2.02367C12.6791 2.10999 12.6504 2.2011 12.6264 2.29222V2.39772C12.6243 2.41844 12.6243 2.43933 12.6264 2.46006C12.6285 2.48079 12.6285 2.50167 12.6264 2.5224L12.4681 2.77176C12.4709 2.79727 12.4709 2.82299 12.4681 2.84849V2.87726V2.9492V3.02592L12.0989 3.44793C12.0989 3.39038 12.1229 3.33284 12.1372 3.28009C12.1372 3.25611 12.1372 3.22733 12.1372 3.20336V3.14102V3.10745V3.03552V2.99236V2.9444C12.1394 2.92047 12.1394 2.8964 12.1372 2.87247C12.1394 2.85014 12.1394 2.82766 12.1372 2.80533C12.143 2.77755 12.151 2.75029 12.1612 2.72381L12.19 2.63749C12.1879 2.61356 12.1879 2.58949 12.19 2.56556V2.53679C12.1887 2.51922 12.1887 2.50159 12.19 2.48403V2.45526C12.19 2.45526 12.19 2.42169 12.19 2.40251V2.37374V2.32578V2.29222V2.24906V2.21549V2.17233V2.13876V2.1004V2.06683V2.02846V1.99489V1.95653V1.92776L12.214 1.88939V1.86062V1.82705V1.79828C12.214 1.79828 12.214 1.79828 12.214 1.75992V1.73114L12.2427 1.69278L12.2859 1.63523C12.2928 1.62179 12.3008 1.60896 12.3099 1.59687C12.3085 1.58733 12.3085 1.57764 12.3099 1.5681L12.8757 1.36669Z" fill="#165A38"/>
<path d="M12.0415 3.44791L10.1904 3.92746V3.85553L12.0415 3.37598V3.44791Z" fill="#12492E"/>
<path d="M12.0559 3.35684L10.2048 3.83639C10.2048 3.80282 10.2048 3.76926 10.2048 3.73569L12.0607 3.28491C12.0607 3.31369 12.0607 3.34725 12.0367 3.38082" fill="#11472C"/>
<path d="M16.8513 25.3633L15.0002 25.814C14.77 25.3345 14.5207 24.7974 14.3145 24.2603L16.1703 23.7808C16.3957 24.3179 16.6211 24.8406 16.8513 25.3393" fill="#1E7E4E"/>
<path d="M16.1703 23.8046L14.3144 24.2842C14.089 23.7327 13.8637 23.1668 13.6431 22.5818L15.4989 22.1262C15.7195 22.7113 15.9401 23.2819 16.1703 23.8286" fill="#1F8351"/>
<path d="M13.5136 15.6764L11.6625 16.156C11.581 15.8203 11.5043 15.4942 11.4276 15.1729C11.4276 15.101 11.3988 15.0434 11.3892 14.9907C11.3796 14.9379 11.3604 14.8612 11.346 14.8084C11.3317 14.7557 11.3173 14.6694 11.3077 14.6166C11.2981 14.5639 11.2789 14.4871 11.2645 14.4344C11.2501 14.3816 11.2357 14.3001 11.2262 14.2522L11.1878 14.0651L11.1494 13.8733C11.1494 13.787 11.1207 13.739 11.1111 13.6911C11.1015 13.6431 11.0871 13.552 11.0775 13.5041L11.0295 13.2931C11.0295 13.2067 11.0056 13.1588 10.996 13.1108C10.9864 13.0629 10.972 12.9766 10.9624 12.9238V12.8375L12.8135 12.3867V12.4682C12.8135 12.521 12.8135 12.5737 12.8518 12.6553C12.8597 12.7182 12.8709 12.7806 12.8854 12.8423C12.8854 12.8902 12.8854 12.9382 12.919 13.0245L12.9573 13.2115C12.9573 13.2595 12.9573 13.3122 12.9957 13.3938C13.0341 13.4753 12.9957 13.4945 13.0341 13.5856L13.0724 13.7726L13.1108 13.9596C13.1108 14.0124 13.1348 14.0603 13.1491 14.1419C13.1635 14.2234 13.1491 14.2474 13.1923 14.3337C13.2355 14.42 13.1923 14.4392 13.2307 14.5111C13.269 14.5831 13.2546 14.6262 13.2738 14.6933C13.3458 15.0194 13.4225 15.3407 13.504 15.6524" fill="#23935B"/>
<path d="M22.4093 33.1224L20.5534 33.6019H20.4575H20.4048H20.3472H20.2897H20.2369H20.1794H20.1218H20.0643H20.002H19.9444H19.8869L19.8245 33.5732L19.767 33.5396L19.7046 33.5108L19.6615 33.2614L19.5991 33.2231L19.5368 33.1847L19.4745 33.1464L19.3929 33.0888L19.3258 33.0457C19.0277 32.8319 18.7485 32.5928 18.4914 32.3311L18.4242 32.264L18.3619 32.1968C18.3383 32.1757 18.3159 32.1533 18.2948 32.1297L18.2228 32.0722L18.1605 32.0002L18.0934 31.9283L18.0262 31.8516L17.9591 31.7748L17.8919 31.6981C17.8689 31.6727 17.8481 31.6454 17.8296 31.6166L17.7769 31.5543L19.6279 31.0747L19.6807 31.137L19.7478 31.2186L19.8149 31.2953L19.8821 31.372L19.9444 31.4488L20.0116 31.5207L20.0787 31.5974C20.0998 31.621 20.1223 31.6434 20.1458 31.6645L20.2082 31.7365C20.2317 31.7576 20.2541 31.7801 20.2753 31.8036L20.3376 31.866C20.5955 32.1391 20.8781 32.3879 21.1817 32.6093L21.244 32.6524L21.3111 32.6956C21.3288 32.7106 21.3481 32.7234 21.3687 32.7339C21.3903 32.748 21.4127 32.7608 21.4358 32.7723L21.4982 32.8107L21.5605 32.8442L21.618 32.8778L21.6804 32.9066L21.7379 32.9354H21.8003H21.8578H21.9154H21.9729H22.0305H22.088H22.1455H22.2031H22.2558H22.3134H22.4093" fill="#0E3823"/>
<path d="M19.6328 31.0987L17.7818 31.5783L17.7146 31.4967C17.6811 31.4584 17.6667 31.4344 17.6475 31.4104L17.5804 31.3241L17.5132 31.2378L17.4413 31.1467L17.3742 31.0556L17.307 30.9644L17.2399 30.8733L17.1728 30.7774L17.1056 30.6767L17.0337 30.5808C17.0097 30.5376 16.9857 30.5089 16.9666 30.4801L16.8994 30.3794V30.3506L18.7025 29.8567V29.8807L18.7697 29.9814C18.7697 30.0101 18.808 30.0437 18.8368 30.0821L18.9039 30.1828L18.9759 30.2787L19.043 30.3746L19.1101 30.4657L19.1773 30.5568L19.2444 30.6479L19.3115 30.7391L19.3787 30.8254L19.4458 30.9117L19.513 30.998L19.5801 31.0795" fill="#0E3A24"/>
<path d="M18.7025 29.8566L16.8467 30.3073L16.7987 30.2354L16.7268 30.1251L16.6597 30.0196C16.6309 29.9812 16.6117 29.9477 16.5877 29.9093C16.4087 29.6312 16.2313 29.3387 16.0554 29.0317L17.9065 28.5762C18.0839 28.8831 18.2661 29.1756 18.4436 29.4585L18.5107 29.5688L18.5826 29.6743C18.5826 29.7031 18.6258 29.7367 18.6498 29.7798L18.7025 29.8566Z" fill="#0F3C26"/>
<path d="M17.9257 28.5763L16.0747 29.0319C15.8253 28.6099 15.5951 28.1591 15.3362 27.6843L17.192 27.2288C17.4366 27.7083 17.6716 28.1543 17.9257 28.5763Z" fill="#0F3E27"/>
<path d="M17.192 27.2287L15.3457 27.6842C15.2258 27.4445 15.1012 27.2047 14.9813 26.9553C14.9813 26.9074 14.9381 26.8594 14.9141 26.8163C14.8902 26.7731 14.871 26.7203 14.847 26.6772L14.7847 26.5381L14.7175 26.399L14.6504 26.2552L16.5014 25.7756C16.5014 25.814 16.535 25.8524 16.5638 25.9195L16.6309 26.0586L16.6981 26.1976L16.7844 26.3751C16.7844 26.423 16.8275 26.4662 16.8515 26.5141C16.9714 26.7635 17.0913 26.9937 17.216 27.2431" fill="#104028"/>
<path d="M16.4918 25.7996L14.6407 26.2792L14.5736 26.1353C14.5448 26.0682 14.5256 26.0298 14.5112 25.9915C14.4968 25.9531 14.4585 25.886 14.4441 25.8476L14.3866 25.675C14.353 25.603 14.3386 25.5647 14.3242 25.5263C14.3098 25.4879 14.2715 25.416 14.2571 25.3776L14.1899 25.229L14.1276 25.0803L14.0557 24.9365C14.0173 24.8549 14.0029 24.8214 13.9885 24.783V24.735V24.7015L15.8396 24.2219V24.2555V24.3082L15.9019 24.4617L15.9691 24.6104L16.0314 24.7638L16.0985 24.9125L16.1609 25.0611L16.228 25.2098C16.228 25.2434 16.2616 25.2817 16.2904 25.3537C16.3191 25.4256 16.3239 25.4304 16.3575 25.4975L16.4246 25.6462L16.487 25.7853" fill="#10422A"/>
<path d="M15.8252 24.2364L13.9741 24.716L13.907 24.6201L13.883 24.5721L13.859 24.457V24.4043L13.8159 24.3036L13.7919 24.246L13.7535 24.1453L13.7295 24.0878L13.672 23.9775L13.648 23.9199C13.6331 23.8872 13.6203 23.8535 13.6096 23.8192L13.5857 23.7617C13.5708 23.7289 13.558 23.6953 13.5473 23.661L13.5233 23.5986L13.4802 23.4979V23.4356L13.4274 23.3541V23.2965C13.4274 23.2581 13.3986 23.2246 13.3891 23.191L13.3603 23.1287L13.3267 23.0328L13.3027 22.9752L15.1298 22.5388V22.5964L15.1682 22.6923V22.7594L15.2065 22.8601L15.2305 22.9177C15.2305 22.9512 15.2305 22.9848 15.2689 23.0232L15.2929 23.0807L15.3312 23.1814V23.2438C15.3461 23.2765 15.3589 23.3101 15.3696 23.3445L15.3936 23.402L15.4367 23.5027V23.5603L15.4799 23.661V23.7185L15.5182 23.8192V23.8768C15.5331 23.9095 15.5459 23.9431 15.5566 23.9775L15.5806 24.0302L15.6238 24.1357V24.1885L15.6525 24.2556" fill="#11442B"/>
<path d="M15.1299 22.5388L13.2741 22.9944L13.2357 22.8937L13.2117 22.8265L13.1734 22.7258V22.6587L13.1398 22.5628L13.111 22.4908C13.111 22.4621 13.0871 22.4285 13.0775 22.3949V22.3278L13.0391 22.2271L12.948 22.1264C12.948 22.0928 12.924 22.064 12.9144 22.0305L12.8856 21.9585C12.8766 21.9243 12.8654 21.8907 12.8521 21.8578L12.8281 21.7859C12.8148 21.7531 12.8035 21.7195 12.7945 21.6852V21.6133L12.7562 21.5126L12.7322 21.4406C12.7322 21.4071 12.7082 21.3735 12.6986 21.3399V21.268C12.6986 21.2344 12.6746 21.2057 12.6651 21.1721L12.6123 21.1002L14.4682 20.6206V20.6925L14.4969 20.7884V20.8604C14.4969 20.8939 14.5209 20.9275 14.5353 20.9659L14.5593 21.033L14.5928 21.1385V21.2057L14.6312 21.3064L14.6552 21.3783C14.6552 21.4119 14.6792 21.4454 14.6888 21.479V21.5509C14.6888 21.5845 14.7127 21.6181 14.7223 21.6468L14.7511 21.7188C14.7511 21.7523 14.7751 21.7859 14.7847 21.8195V21.8866L14.823 21.9873L14.847 22.0593L14.8806 22.1552L14.9093 22.2223C14.9093 22.2559 14.9333 22.2894 14.9429 22.323L14.9669 22.3853L15.0053 22.486" fill="#11472C"/>
<path d="M14.4681 20.6444L12.6122 21.1C12.5989 21.0704 12.5877 21.04 12.5786 21.0089L12.5547 20.9274L12.5115 20.8075C12.4683 20.702 12.4683 20.6636 12.4683 20.6204V20.5629L12.4108 20.3855C12.3676 20.2512 12.3245 20.1217 12.2861 19.9922C12.2861 19.9395 12.2525 19.8867 12.2382 19.834C12.2238 19.7812 12.195 19.7045 12.1806 19.6566C12.1662 19.6086 12.1327 19.4935 12.1183 19.4408C12.0703 19.2969 12.0367 19.1818 12.0032 19.0619V18.9756L13.8542 18.52L13.883 18.6111L13.9933 18.9852C13.9933 19.0379 14.0269 19.0955 14.0604 19.201L14.1132 19.3832L14.1659 19.5415C14.2043 19.6709 14.2475 19.8004 14.2858 19.9299L14.3434 20.1073V20.1649C14.3434 20.2032 14.3673 20.2464 14.4009 20.3375C14.4345 20.4286 14.4249 20.419 14.4393 20.4574L14.4681 20.5389L14.4968 20.6348" fill="#12492E"/>
<path d="M13.8015 18.5249L11.9504 18.9805L11.9217 18.8845C11.8833 18.7503 11.8689 18.7071 11.8593 18.664L11.8306 18.5728V18.4961L11.797 18.381C11.7299 18.1508 11.6819 17.9638 11.6292 17.772V17.6953L13.4275 17.2637V17.3452C13.4754 17.5322 13.5282 17.7192 13.5953 17.9494L13.6241 18.0645L13.648 18.1412L13.672 18.2372L13.7392 18.4577L13.7631 18.5489" fill="#124B2F"/>
<path d="M13.4272 17.2636L11.5762 17.7191C11.5474 17.6232 11.5282 17.5513 11.509 17.4793V17.393C11.509 17.3451 11.4803 17.2971 11.4707 17.2492L11.4419 17.1485C11.4419 17.1005 11.4179 17.0526 11.4083 17.0046L11.3795 16.8991C11.3795 16.8368 11.346 16.7744 11.3316 16.7073C11.3213 16.6727 11.3133 16.6374 11.3076 16.6018V16.573L13.1635 16.1174V16.1462L13.1922 16.2565C13.1922 16.3188 13.221 16.3812 13.2402 16.4483C13.2594 16.5155 13.2402 16.5155 13.2642 16.5538C13.2882 16.5922 13.2882 16.6449 13.3025 16.6929L13.3265 16.7936C13.3421 16.8424 13.3549 16.892 13.3649 16.9423V17.0238L13.4272 17.2636Z" fill="#134E30"/>
<path d="M13.1492 16.0935L11.2934 16.5491L11.2694 16.458L11.2406 16.3429C11.2354 16.3024 11.2274 16.2623 11.2166 16.223C11.2166 16.1606 11.1879 16.1079 11.1735 16.0599C11.1591 16.012 11.1735 15.9592 11.1447 15.9209L11.1159 15.825C11.1057 15.7903 11.0977 15.7551 11.092 15.7195L11.0632 15.5996C11.0632 15.5612 11.0632 15.5276 11.0392 15.4893V15.4557L11.0104 15.3214C11.0104 15.2543 10.9865 15.2207 10.9817 15.1872L10.9529 15.0625V14.9666L10.9241 14.8419L10.8953 14.698V14.6597C10.8976 14.6309 10.8976 14.6021 10.8953 14.5733V14.535L10.8714 14.4343C10.8662 14.3938 10.8581 14.3537 10.8474 14.3144C10.8474 14.276 10.8474 14.2424 10.8474 14.2041C10.8474 14.1657 10.8474 14.1321 10.8234 14.0986C10.7994 14.065 10.8234 13.9691 10.7898 13.9068C10.7563 13.8444 10.7898 13.8348 10.7898 13.7965C10.7898 13.7581 10.7898 13.7197 10.7898 13.6862C10.7876 13.6494 10.7876 13.6126 10.7898 13.5759C10.7791 13.5365 10.7711 13.4965 10.7659 13.456V13.3984V13.3649L12.4683 12.8757V12.9189V12.9764C12.4683 13.0196 12.4683 13.058 12.4683 13.1011C12.4683 13.1443 12.4683 13.1683 12.4683 13.2066C12.4683 13.245 12.4683 13.2833 12.4683 13.3217C12.4683 13.3601 12.4683 13.3936 12.4683 13.4272C12.4683 13.4608 12.4683 13.5567 12.5066 13.619C12.545 13.6814 12.5066 13.691 12.5066 13.7293C12.5066 13.7677 12.5066 13.8013 12.5306 13.8348C12.5546 13.8684 12.5306 13.9164 12.5546 13.9547V14.0602V14.0938C12.5523 14.1225 12.5523 14.1514 12.5546 14.1801V14.2185C12.5546 14.2664 12.5786 14.3144 12.5882 14.3623C12.5985 14.405 12.6065 14.4483 12.6121 14.4918L12.6361 14.5829C12.6361 14.6261 12.6361 14.6692 12.6361 14.7076C12.6361 14.746 12.6361 14.7747 12.6649 14.8419C12.6783 14.886 12.6895 14.9309 12.6984 14.9762V15.0097L12.7272 15.12C12.7245 15.1599 12.7245 15.2 12.7272 15.2399C12.8061 15.2627 12.8806 15.2983 12.9478 15.3454L12.9766 15.4605L13.0102 15.5996C13.0102 15.6523 13.0102 15.7003 13.0485 15.7626L13.0773 15.8825L13.1061 15.9976L13.13 16.0887" fill="#135032"/>
<path d="M12.4682 12.8757L10.6172 13.3313V13.2977L12.4682 12.8469V12.8757Z" fill="#145233"/>
<path d="M12.4682 12.8469L10.6172 13.2976V13.2593L12.4682 12.8037V12.8421" fill="#135032"/>
<path d="M12.4681 12.8039L10.6123 13.2594C10.6123 13.2211 10.6123 13.1827 10.6123 13.1443C10.6123 13.106 10.6123 13.0772 10.6123 13.0436C10.6123 13.0101 10.5499 12.9477 10.5499 12.9477V12.8518C10.5499 12.7991 10.5499 12.7463 10.526 12.6936V12.6312C10.526 12.5497 10.526 12.4969 10.4972 12.4394V12.3531C10.4972 12.3099 10.4972 12.262 10.4972 12.2188V12.1373C10.4972 12.0701 10.4972 12.003 10.4636 11.9359V11.8831C10.4636 11.8304 10.4636 11.7776 10.4396 11.7249V11.6481C10.4396 11.6002 10.4396 11.5522 10.4157 11.4995V11.4371L10.3869 11.2357V11.1782C10.3869 11.1254 10.3869 11.0727 10.3869 11.0247V10.9528V10.8521V10.7514C10.3869 10.6795 10.3869 10.6123 10.3629 10.5404V10.4972C10.3629 10.4397 10.3629 10.3869 10.3629 10.3294V10.2814L10.3198 9.86422V9.82106V9.65802V9.59088C10.3198 9.45181 10.2958 9.31754 10.2814 9.17847C10.267 9.0394 10.2814 9.02501 10.2814 8.96267C10.2814 8.80922 10.2574 8.67015 10.2526 8.53587C10.2478 8.4016 10.2526 8.41599 10.2526 8.36803C10.2526 8.32008 10.2526 8.26253 10.2526 8.21457C10.2526 8.16662 10.2526 8.11387 10.2526 8.06591C10.2526 8.01796 10.2526 7.96521 10.2526 7.91726C10.2526 7.8693 10.2526 7.83573 10.2526 7.79257L12.1085 7.3418C12.1061 7.38172 12.1061 7.42176 12.1085 7.46168C12.1085 7.50964 12.1085 7.5528 12.1085 7.61034C12.1085 7.66789 12.1085 7.70625 12.1085 7.7638C12.1085 7.82135 12.1085 7.85491 12.1085 7.91246C12.1085 7.97001 12.1085 8.00837 12.1085 8.0851C12.1085 8.16183 12.1085 8.35364 12.1372 8.5119C12.1372 8.56944 12.1372 8.63178 12.1372 8.72769C12.1372 8.8236 12.1612 9.00103 12.1708 9.13531V9.17367V9.33672V9.37988L12.214 9.79709V9.84984C12.214 9.90259 12.214 9.96013 12.214 10.0129V10.0704C12.214 10.1376 12.214 10.2095 12.238 10.2766V10.3773V10.478V10.55C12.238 10.6027 12.238 10.6507 12.238 10.7034V10.761L12.2667 10.9624V11.0295C12.2667 11.0775 12.2667 11.1254 12.2667 11.1782V11.2501C12.2667 11.3029 12.2667 11.3556 12.2907 11.4132V11.4659L12.3195 11.6625V11.7488C12.3195 11.792 12.3195 11.8352 12.3435 11.8783V11.9646C12.3435 12.0222 12.3435 12.0749 12.3722 12.1565V12.2236L12.401 12.3771V12.4778C12.401 12.5161 12.401 12.5545 12.425 12.5929V12.6936C12.425 12.7319 12.425 12.7703 12.449 12.8087" fill="#145233"/>
<path d="M11.8161 7.3465L9.96021 7.79728C9.96021 7.69657 9.96021 7.60066 9.96021 7.50955C9.96021 7.41843 9.96021 7.38007 9.96021 7.31773V7.06836C9.96021 6.90532 9.96021 6.74706 9.96021 6.58881C9.96021 6.51209 9.96021 6.43536 9.96021 6.35863V6.23395C9.96021 6.1812 9.96021 6.13804 9.96021 6.09967C9.96021 6.06131 9.96021 6.00376 9.96021 5.9654C9.96021 5.92704 9.96021 5.87429 9.96021 5.83113V5.7544L11.8161 5.29883V5.34678C11.8161 5.38994 11.8161 5.4331 11.8161 5.48106C11.8135 5.52578 11.8135 5.57061 11.8161 5.61533C11.8136 5.66005 11.8136 5.70488 11.8161 5.7496C11.8161 5.79276 11.8161 5.83592 11.8161 5.88867C11.8161 5.94142 11.8161 6.04213 11.8161 6.12365V6.6032C11.8161 6.67993 11.8161 6.76145 11.8161 6.85257C11.8161 6.94368 11.8161 6.97725 11.8161 7.04438C11.8161 7.11152 11.8161 7.23141 11.8161 7.33691" fill="#135032"/>
<path d="M11.8257 5.3132L9.9698 5.75439C9.9698 5.72561 9.9698 5.69684 9.9698 5.67286C9.9698 5.64888 9.9698 5.58175 9.9698 5.54338C9.96724 5.50026 9.96724 5.45703 9.9698 5.41391C9.9671 5.37239 9.9671 5.33074 9.9698 5.28922C9.9698 5.05904 10.0082 4.83845 10.0369 4.62265L11.8928 4.17188C11.864 4.38288 11.84 4.60347 11.8209 4.83365C11.8209 4.87202 11.8209 4.91038 11.8209 4.96313C11.8209 5.01588 11.8209 5.03986 11.8209 5.08781C11.8209 5.13577 11.8209 5.16934 11.8209 5.21729C11.8183 5.24441 11.8183 5.2717 11.8209 5.29881" fill="#134E30"/>
<path d="M11.9264 4.18631L10.0706 4.63709C10.1041 4.37813 10.1425 4.13356 10.1904 3.90338L12.0415 3.42383C11.9983 3.65401 11.96 3.90338 11.9264 4.16233" fill="#124B2F"/>
</svg>
