<svg width="30" height="32" viewBox="0 0 30 32" fill="none" xmlns="http://www.w3.org/2000/svg">
<g clip-path="url(#clip0_73_926)">
<path d="M15 31.5C23.2843 31.5 30 24.5604 30 16C30 7.43959 23.2843 0.5 15 0.5C6.71573 0.5 0 7.43959 0 16C0 24.5604 6.71573 31.5 15 31.5Z" fill="#0F3E27"/>
<path d="M20.9284 15.5714H21.4641C21.7588 15.5714 21.9998 15.3304 21.9998 15.0357V12.3571C21.9998 12.0625 21.7588 11.8214 21.4641 11.8214H19.9373L18.8659 10.75H20.3927C20.6873 10.75 20.9284 10.5089 20.9284 10.2143C20.9284 9.91964 20.6873 9.67857 20.3927 9.67857H17.7945L15.2766 7.16071C15.0623 6.94643 14.7409 6.94643 14.5266 7.16071L12.0088 9.67857H8.60714C7.72321 9.67857 7 10.4018 7 11.2857V21.4643C7 21.7589 7.24107 22 7.53571 22H21.4643C21.7589 22 22 21.7589 22 21.4643V18.25C22 17.9554 21.7589 17.7143 21.4643 17.7143H20.9286C20.3393 17.7143 19.8571 17.2321 19.8571 16.6429C19.8571 16.0536 20.3391 15.5714 20.9284 15.5714ZM9.86577 11.8214H8.60684C8.31219 11.8214 8.07112 11.5804 8.07112 11.2857C8.07112 10.9911 8.31219 10.75 8.60684 10.75H10.9372L9.86577 11.8214ZM11.3658 11.8214L14.9015 8.28571L18.4372 11.8214H11.3658Z" fill="white"/>
</g>
<defs>
<clipPath id="clip0_73_926">
<rect width="30" height="31" fill="white" transform="translate(0 0.5)"/>
</clipPath>
</defs>
</svg>
