<svg width="455" height="267" viewBox="0 0 455 267" fill="none" xmlns="http://www.w3.org/2000/svg">
<g clip-path="url(#clip0_701_3425)">
<path d="M455 101.843V165.164C455.001 166.85 454.669 168.519 454.024 170.076C453.379 171.634 452.434 173.049 451.241 174.241C450.048 175.433 448.633 176.378 447.074 177.023C445.516 177.667 443.846 177.999 442.159 177.998H35.2752C31.8696 177.998 28.6036 176.646 26.1955 174.239C23.7874 171.832 22.4346 168.568 22.4346 165.164V101.843C22.4346 98.4383 23.7872 95.1733 26.1951 92.7654C28.603 90.3576 31.869 89.004 35.2752 89.0022H442.159C443.846 89.0022 445.516 89.3344 447.075 89.9798C448.633 90.6251 450.049 91.571 451.241 92.7635C452.434 93.9559 453.38 95.3715 454.024 96.9293C454.669 98.4871 455.001 100.157 455 101.843Z" fill="#6AC28F"/>
<path d="M64.0505 89.0022H39.3896V178.004H64.0505V89.0022Z" fill="#307752"/>
<path d="M98.299 89.0022H73.6382V178.004H98.299V89.0022Z" fill="#307752"/>
<path d="M132.547 89.0022H107.886V178.004H132.547V89.0022Z" fill="#307752"/>
<path d="M166.795 89.0022H142.134V178.004H166.795V89.0022Z" fill="#307752"/>
<path d="M201.044 89.0022H176.383V178.004H201.044V89.0022Z" fill="#307752"/>
<path d="M235.292 89.0022H210.631V178.004H235.292V89.0022Z" fill="#307752"/>
<path d="M269.547 89.0022H244.886V178.004H269.547V89.0022Z" fill="#307752"/>
<path d="M303.795 89.0022H279.134V178.004H303.795V89.0022Z" fill="#307752"/>
<path d="M338.043 89.0022H313.382V178.004H338.043V89.0022Z" fill="#307752"/>
<path d="M372.291 89.0022H347.63V178.004H372.291V89.0022Z" fill="#307752"/>
<path d="M406.54 89.0022H381.879V178.004H406.54V89.0022Z" fill="#307752"/>
<path d="M440.788 89.0022H416.127V178.004H440.788V89.0022Z" fill="#307752"/>
<path opacity="0.47" d="M455 156.774V165.164C455.001 166.85 454.669 168.519 454.024 170.076C453.379 171.634 452.434 173.049 451.241 174.241C450.048 175.433 448.633 176.378 447.074 177.023C445.516 177.667 443.846 177.999 442.159 177.998H35.2752C31.8696 177.998 28.6036 176.646 26.1955 174.239C23.7874 171.832 22.4346 168.568 22.4346 165.164V156.774H455Z" fill="#307752"/>
<path d="M432.572 12.8404V76.1552C432.572 79.5607 431.218 82.8267 428.809 85.2347C426.4 87.6428 423.132 88.9956 419.725 88.9956H12.8472C9.43993 88.9956 6.17219 87.6428 3.76287 85.2347C1.35354 82.8267 0 79.5607 0 76.1552L0 12.8404C0 9.43493 1.35354 6.16892 3.76287 3.76087C6.17219 1.35283 9.43993 0 12.8472 0L419.725 0C423.132 0 426.4 1.35283 428.809 3.76087C431.218 6.16892 432.572 9.43493 432.572 12.8404Z" fill="#6AC28F"/>
<path d="M41.6159 0H16.9551V89.0022H41.6159V0Z" fill="#307752"/>
<path d="M75.8645 0H51.2036V89.0022H75.8645V0Z" fill="#307752"/>
<path d="M110.113 0H85.4517V89.0022H110.113V0Z" fill="#307752"/>
<path d="M144.361 0H119.7V89.0022H144.361V0Z" fill="#307752"/>
<path d="M178.615 0H153.955V89.0022H178.615V0Z" fill="#307752"/>
<path d="M212.864 0H188.203V89.0022H212.864V0Z" fill="#307752"/>
<path d="M247.112 0H222.451V89.0022H247.112V0Z" fill="#307752"/>
<path d="M281.36 0H256.699V89.0022H281.36V0Z" fill="#307752"/>
<path d="M315.609 0H290.948V89.0022H315.609V0Z" fill="#307752"/>
<path d="M349.857 0H325.196V89.0022H349.857V0Z" fill="#307752"/>
<path d="M384.105 0H359.444V89.0022H384.105V0Z" fill="#307752"/>
<path d="M418.36 0H393.699V89.0022H418.36V0Z" fill="#307752"/>
<path opacity="0.47" d="M432.572 67.7781V76.1551C432.572 79.5606 431.218 82.8266 428.809 85.2347C426.4 87.6427 423.132 88.9956 419.725 88.9956H12.8472C9.43993 88.9956 6.17219 87.6427 3.76287 85.2347C1.35354 82.8266 0 79.5606 0 76.1551L0 67.7781H432.572Z" fill="#307752"/>
<path d="M432.572 190.838V254.16C432.572 257.565 431.218 260.831 428.809 263.239C426.4 265.647 423.132 267 419.725 267H12.8472C9.43993 267 6.17219 265.647 3.76287 263.239C1.35354 260.831 0 257.565 0 254.16L0 190.838C0.00175665 187.434 1.35608 184.17 3.76521 181.763C6.17434 179.356 9.44108 178.004 12.8472 178.004H419.725C421.412 178.004 423.082 178.335 424.641 178.979C426.199 179.624 427.616 180.569 428.809 181.761C430.002 182.953 430.948 184.368 431.594 185.925C432.24 187.483 432.572 189.152 432.572 190.838Z" fill="#6AC28F"/>
<path d="M41.6159 178.004H16.9551V267.007H41.6159V178.004Z" fill="#307752"/>
<path d="M75.8645 178.004H51.2036V267.007H75.8645V178.004Z" fill="#307752"/>
<path d="M110.113 178.004H85.4517V267.007H110.113V178.004Z" fill="#307752"/>
<path d="M144.361 178.004H119.7V267.007H144.361V178.004Z" fill="#307752"/>
<path d="M178.615 178.004H153.955V267.007H178.615V178.004Z" fill="#307752"/>
<path d="M212.864 178.004H188.203V267.007H212.864V178.004Z" fill="#307752"/>
<path d="M247.112 178.004H222.451V267.007H247.112V178.004Z" fill="#307752"/>
<path d="M281.36 178.004H256.699V267.007H281.36V178.004Z" fill="#307752"/>
<path d="M315.609 178.004H290.948V267.007H315.609V178.004Z" fill="#307752"/>
<path d="M349.857 178.004H325.196V267.007H349.857V178.004Z" fill="#307752"/>
<path d="M384.105 178.004H359.444V267.007H384.105V178.004Z" fill="#307752"/>
<path d="M418.36 178.004H393.699V267.007H418.36V178.004Z" fill="#307752"/>
<path opacity="0.47" d="M432.572 245.776V254.16C432.572 257.565 431.218 260.831 428.809 263.239C426.4 265.647 423.132 267 419.725 267H12.8472C9.43993 267 6.17219 265.647 3.76287 263.239C1.35354 260.831 0 257.565 0 254.16L0 245.776H432.572Z" fill="#307752"/>
</g>
<defs>
<clipPath id="clip0_701_3425">
<rect width="455" height="267" fill="white"/>
</clipPath>
</defs>
</svg>
