<svg width="57" height="41" viewBox="0 0 57 41" fill="none" xmlns="http://www.w3.org/2000/svg">
<path d="M54.0056 6.98775C55.663 7.32197 56.7208 8.91529 56.54 10.8048C56.4119 12.3818 55.675 13.8474 54.4849 14.8924C54.7146 15.0514 54.9539 15.1961 55.2015 15.3257C56.1122 15.8297 56.3531 17.0056 55.8066 17.9968C55.4522 18.6273 54.8702 19.026 54.2723 19.11C53.9336 19.1605 53.5878 19.0984 53.2881 18.9332C52.0026 18.2716 50.8917 17.3164 50.0459 16.1453C50.1283 17.892 50.0094 19.6424 49.6915 21.3621C49.0153 23.5254 48.2402 25.6622 47.3662 27.7724C46.6247 30.0713 46.1012 32.4162 45.5059 34.7443C45.1232 36.2563 43.3222 37.2077 41.4487 37.4711C39.3527 37.7647 37.1656 37.1971 36.7687 35.5887C36.5889 34.8407 36.3949 34.1024 36.1929 33.3066C30.5483 34.0325 27.0934 34.0918 21.1582 34.3287C20.485 36.5321 20.3123 39.1476 18.1463 40.2758C17.3658 40.5703 16.555 40.7778 15.7289 40.8947C14.9831 41.0006 14.228 41.0243 13.477 40.9655C11.0303 41.0804 11.8125 37.075 11.1136 35.5357C10.0762 33.9328 8.69646 32.5789 7.0732 31.5709C6.68464 31.1748 6.20979 30.8735 5.68557 30.6904C5.16135 30.5073 4.60189 30.4474 4.05067 30.5152C3.9736 30.5338 3.89565 30.5488 3.81946 30.5594C3.46633 30.6138 3.10504 30.5723 2.77351 30.4393C2.44198 30.3063 2.15243 30.0866 1.93526 29.8034C1.57429 29.2399 1.34007 28.6049 1.24872 27.9422C0.94842 25.8202 0.731386 23.6627 0.493092 21.5106C0.395648 20.1215 1.25758 18.7254 2.53055 18.217C2.89021 18.0746 3.27024 17.9676 3.62812 17.8067C5.33073 17.0375 6.14305 14.3425 7.09889 12.7403C6.51511 12.0727 5.93134 11.4467 5.39274 10.78C5.1804 10.5946 5.03195 10.3471 4.96841 10.0727C4.77264 9.25924 5.24657 8.33702 6.03144 8.01429C6.92811 7.55705 7.88796 7.23552 8.87945 7.06025C9.14078 7.01339 9.4021 6.97183 9.66343 6.93558C10.2454 6.85424 10.8283 6.79323 11.4103 6.7331C11.9923 6.67298 12.5673 6.61108 13.1457 6.52974C13.2638 6.51382 13.379 6.49702 13.4912 6.47934C14.0463 6.38964 14.5699 6.16222 15.014 5.81796C17.8762 3.5898 21.0759 2.01594 24.3854 1.22016C25.3964 0.893622 26.4338 0.654597 27.4859 0.505736C28.5369 0.357523 29.5994 0.306613 30.6599 0.353655C35.944 0.148523 40.9845 1.54113 45.2233 4.37938C46.62 5.35807 47.7803 6.63553 48.6196 8.11863C48.9338 8.69763 49.1873 9.30741 49.3762 9.9383C49.4435 9.78003 49.5188 9.62176 49.6003 9.46349C50.2833 8.0753 51.543 7.1416 52.8717 6.95769C53.2487 6.90394 53.632 6.9141 54.0056 6.98775ZM36.0228 9.3282C36.3036 8.30696 35.7899 7.33612 34.8757 7.16282C32.6202 6.70524 30.3026 6.63884 28.0245 6.96653C25.6314 7.3117 23.3078 8.03175 21.1396 9.10008C20.2299 9.54748 19.732 10.6713 20.0279 11.6094C20.1256 11.9554 20.3467 12.2537 20.6496 12.4482C20.9524 12.6427 21.3161 12.7199 21.672 12.6651C21.8595 12.6381 22.0413 12.5811 22.2106 12.4963C24.0393 11.5895 26.0009 10.9788 28.0218 10.6872C29.963 10.4073 31.9384 10.4702 33.8578 10.8729C34.0253 10.9042 34.1968 10.9078 34.3654 10.8835C35.1069 10.7792 35.7943 10.1646 36.0228 9.3282ZM12.9544 17.7952C14.3301 17.5919 15.4525 16.2558 15.4968 14.7704C15.5154 13.2797 14.4116 12.2142 13.0306 12.3831L12.9978 12.3875C11.6291 12.5794 10.5076 13.9216 10.4864 15.4026C10.4651 16.8836 11.5707 17.9668 12.9544 17.7899" fill="#2CB470"/>
</svg>
