<svg width="50" height="30" viewBox="0 0 50 30" fill="none" xmlns="http://www.w3.org/2000/svg">
<g clip-path="url(#clip0_334_31476)">
<path d="M47.4316 0.406738H2.56844C1.48024 0.406738 0.598083 1.29237 0.598083 2.38485V27.6152C0.598083 28.7077 1.48024 29.5933 2.56844 29.5933H47.4316C48.5198 29.5933 49.4019 28.7077 49.4019 27.6152V2.38485C49.4019 1.29237 48.5198 0.406738 47.4316 0.406738Z" fill="#293375"/>
<path d="M5.88487 4.57789C5.99136 4.57589 6.09705 4.59684 6.19479 4.63932C6.29254 4.6818 6.38008 4.74483 6.45151 4.82415C6.59886 4.98934 6.68033 5.20329 6.68033 5.42504C6.68033 5.64678 6.59886 5.86073 6.45151 6.02592C6.38008 6.10525 6.29254 6.16827 6.19479 6.21075C6.09705 6.25324 5.99136 6.27418 5.88487 6.27219H5.2287V4.57789H5.88487ZM5.88487 5.94896C5.9501 5.95129 6.01507 5.93953 6.07538 5.91446C6.13568 5.88939 6.18992 5.85161 6.23442 5.80367C6.32654 5.69882 6.37467 5.56225 6.36872 5.42258C6.375 5.28359 6.32679 5.14767 6.23442 5.04394C6.19037 4.99531 6.13626 4.95694 6.07587 4.93152C6.01549 4.9061 5.9503 4.89425 5.88487 4.8968H5.55433V5.94773L5.88487 5.94896Z" fill="white"/>
<path d="M7.15428 5.79189C7.19475 5.94396 7.30575 6.01845 7.48727 6.01845C7.538 6.02122 7.58863 6.01144 7.63472 5.98997C7.6808 5.9685 7.72093 5.936 7.75158 5.89532L7.99688 6.04061C7.94072 6.12467 7.86377 6.19264 7.77358 6.23786C7.68338 6.28308 7.58303 6.304 7.48236 6.29858C7.35664 6.29859 7.23365 6.26172 7.12852 6.19251C7.02339 6.1233 6.94069 6.02475 6.89059 5.90899C6.84049 5.79322 6.82518 5.66529 6.84653 5.5409C6.86788 5.41652 6.92497 5.30111 7.01078 5.20886C7.06817 5.1479 7.13782 5.0999 7.21511 5.06806C7.29241 5.03621 7.37556 5.02125 7.45906 5.02416C7.53971 5.02157 7.61995 5.03677 7.69411 5.06868C7.76828 5.10059 7.83458 5.14844 7.88833 5.20886C8.002 5.33191 8.063 5.49485 8.0582 5.6626C8.05774 5.70553 8.05385 5.74835 8.04655 5.79066L7.15428 5.79189ZM7.75158 5.55055C7.74151 5.48057 7.70611 5.41678 7.65215 5.37135C7.59819 5.32592 7.52945 5.30205 7.45906 5.30429C7.38675 5.30039 7.31555 5.32334 7.259 5.36875C7.20246 5.41417 7.16453 5.47887 7.15244 5.55055H7.75158Z" fill="white"/>
<path d="M9.36071 5.21263C9.47015 5.33777 9.5305 5.49861 9.5305 5.66514C9.5305 5.83167 9.47015 5.99251 9.36071 6.11765C9.31054 6.17629 9.24821 6.2232 9.17808 6.25511C9.10796 6.28701 9.03173 6.30314 8.95474 6.30235C8.88109 6.30664 8.80751 6.29272 8.74047 6.2618C8.67343 6.23089 8.61498 6.18392 8.57023 6.12503V6.26725H8.26361V4.57788H8.57023V5.20278C8.61484 5.14366 8.67324 5.09646 8.74029 5.06533C8.80734 5.03419 8.88098 5.02008 8.95474 5.02423C9.03199 5.02407 9.10834 5.04084 9.17846 5.07338C9.24859 5.10592 9.31078 5.15344 9.36071 5.21263ZM8.89832 6.00437C8.94164 6.00574 8.98476 5.99808 9.02498 5.98186C9.0652 5.96565 9.10162 5.94124 9.13197 5.91017C9.16344 5.87764 9.18803 5.83905 9.20426 5.79673C9.22049 5.75441 9.22802 5.70923 9.2264 5.66391C9.22861 5.61852 9.22135 5.57317 9.20509 5.53076C9.18883 5.48835 9.16392 5.44982 9.13197 5.41764C9.06983 5.35576 8.98585 5.32103 8.89832 5.32103C8.81079 5.32103 8.72681 5.35576 8.66467 5.41764C8.63355 5.45031 8.60935 5.48898 8.59354 5.53131C8.57773 5.57364 8.57064 5.61875 8.57269 5.66391C8.56966 5.75498 8.60274 5.84355 8.66467 5.91017C8.69501 5.94124 8.73144 5.96565 8.77166 5.98186C8.81187 5.99808 8.855 6.00574 8.89832 6.00437Z" fill="white"/>
<path d="M9.71027 4.72496C9.71076 4.68765 9.72228 4.65133 9.74335 4.6206C9.76443 4.58987 9.79413 4.56612 9.82867 4.55235C9.86321 4.53859 9.90105 4.53543 9.93738 4.54328C9.97371 4.55113 10.0069 4.56963 10.0327 4.59644C10.0586 4.62325 10.0759 4.65717 10.0826 4.69388C10.0892 4.73059 10.0848 4.76845 10.07 4.80266C10.0551 4.83687 10.0305 4.86589 9.99922 4.88603C9.96793 4.90617 9.9314 4.91654 9.89424 4.91581C9.84489 4.91421 9.7981 4.8934 9.76376 4.85778C9.72943 4.82216 9.71024 4.77453 9.71027 4.72496ZM9.74522 6.26411V5.06049H10.0518V6.26719L9.74522 6.26411Z" fill="white"/>
<path d="M11.0036 5.35976H10.7368V5.86214C10.7368 5.99205 10.8288 5.99451 11.0036 5.98527V6.26786C10.5854 6.3165 10.4321 6.19337 10.4321 5.86276V5.35976H10.226V5.06055H10.4315V4.81429L10.7381 4.72009V5.05809H11.0048L11.0036 5.35976Z" fill="white"/>
<path d="M45.3649 7.72572C45.1429 7.72572 44.932 7.72572 44.721 7.72572C44.7032 7.72572 44.6762 7.68878 44.6707 7.66416C44.6462 7.56565 44.6278 7.4653 44.6094 7.36556C44.6091 7.35411 44.6064 7.34286 44.6014 7.33255C44.5964 7.32224 44.5893 7.31311 44.5806 7.30577C44.5718 7.29843 44.5616 7.29305 44.5506 7.28998C44.5396 7.28692 44.5281 7.28624 44.5168 7.28799C44.2404 7.29045 43.9639 7.29045 43.6871 7.28799C43.6644 7.2858 43.6417 7.29234 43.6236 7.30628C43.6055 7.32022 43.5934 7.34052 43.5896 7.3631C43.5546 7.46838 43.5178 7.57304 43.4755 7.67524C43.4685 7.68863 43.4584 7.7002 43.4462 7.70906C43.434 7.71793 43.4199 7.72384 43.405 7.72634C43.172 7.73003 42.9383 7.72634 42.6881 7.72634C42.7022 7.68755 42.712 7.65739 42.7237 7.62845L43.7864 5.08577C43.8735 4.8783 43.9575 4.82166 44.1789 4.82166C44.3384 4.82166 44.4984 4.82166 44.6585 4.82166C44.7345 4.82166 44.7701 4.83766 44.7866 4.92078C44.9326 5.64171 45.0834 6.36142 45.2331 7.08174C45.2772 7.2923 45.3208 7.50286 45.3649 7.72572ZM43.8318 6.69511H44.4665C44.3905 6.33249 44.3169 5.9791 44.2433 5.62509H44.2175L43.8318 6.69511Z" fill="white"/>
<path d="M38.0336 6.77446C38.0453 6.7486 38.0575 6.72274 38.068 6.69565C38.2998 6.10893 38.534 5.5259 38.7609 4.93425C38.7695 4.89642 38.7922 4.86334 38.8244 4.8419C38.8566 4.82046 38.8958 4.8123 38.9339 4.81912C39.1448 4.82589 39.3564 4.81912 39.579 4.81912C39.5643 4.86099 39.5557 4.88992 39.5446 4.91763C39.1648 5.82634 38.7854 6.73526 38.4065 7.64439C38.3993 7.67046 38.3828 7.69299 38.3602 7.70773C38.3376 7.72247 38.3105 7.72841 38.2838 7.72442C38.0794 7.71991 37.8764 7.71991 37.6749 7.72442C37.6618 7.72698 37.6484 7.72674 37.6355 7.72371C37.6226 7.72068 37.6104 7.71493 37.5999 7.70684C37.5893 7.69875 37.5806 7.68851 37.5743 7.67679C37.568 7.66507 37.5642 7.65214 37.5633 7.63885C37.3793 6.90005 37.1812 6.16742 36.9972 5.43047C36.9549 5.26178 36.8746 5.14665 36.7078 5.09247C36.5238 5.03091 36.3398 4.96934 36.1559 4.90778C36.126 4.89368 36.0976 4.87656 36.0712 4.85668C36.1021 4.83885 36.1357 4.82616 36.1706 4.81912C36.5549 4.81666 36.9392 4.81666 37.3235 4.81912C37.5344 4.81912 37.6595 4.92009 37.6988 5.12695C37.776 5.52898 37.8496 5.93162 37.9251 6.33426C37.9527 6.48017 37.9815 6.6267 38.0097 6.77261L38.0336 6.77446Z" fill="white"/>
<path d="M40.5779 7.61308C40.6225 7.40581 40.6656 7.2049 40.7073 7.01035C40.868 7.05837 41.0207 7.11378 41.1777 7.14826C41.3426 7.18963 41.5154 7.18751 41.6793 7.1421C41.7291 7.12816 41.7768 7.10745 41.821 7.08053C41.9614 6.98634 41.9786 6.82442 41.8523 6.71114C41.7731 6.64822 41.6885 6.59239 41.5996 6.54429C41.4812 6.47349 41.3543 6.41377 41.2415 6.3362C40.6853 5.96065 40.8576 5.34499 41.2022 5.06425C41.4163 4.89576 41.6759 4.79599 41.9473 4.77797C42.2231 4.74897 42.5019 4.77876 42.7654 4.86539C42.8144 4.88201 42.8482 4.89863 42.8341 4.96082C42.7936 5.13443 42.7568 5.30866 42.7169 5.48905C42.6225 5.46073 42.533 5.42749 42.4422 5.40779C42.2588 5.35328 42.0642 5.34903 41.8786 5.39547C41.8347 5.40918 41.7933 5.42998 41.756 5.45704C41.6278 5.54631 41.618 5.68052 41.7357 5.78272C41.8004 5.83459 41.8696 5.88054 41.9424 5.92001C42.0718 5.99636 42.2061 6.06469 42.3337 6.14473C42.8997 6.49997 42.7451 7.1698 42.4115 7.45609C42.2294 7.60984 42.0081 7.70942 41.7725 7.7436C41.3952 7.80587 41.0083 7.77415 40.646 7.65125C40.6225 7.64008 40.5997 7.62733 40.5779 7.61308Z" fill="white"/>
<path d="M40.045 7.7233H39.3091C39.3386 7.57801 39.3656 7.43825 39.3956 7.29911C39.5661 6.50122 39.7364 5.70373 39.9064 4.90666C39.9199 4.84509 39.9445 4.82108 40.0095 4.82231C40.1965 4.82662 40.3842 4.82231 40.5718 4.82231C40.5982 4.82231 40.6246 4.826 40.6595 4.82908C40.4541 5.79875 40.2499 6.75795 40.045 7.7233Z" fill="white"/>
<path opacity="0.4" d="M43.1333 16.8135H5.07538V18.3643H43.1333V16.8135Z" fill="#151D3F"/>
<path opacity="0.4" d="M14.5899 21.0726H5.07538V22.6235H14.5899V21.0726Z" fill="#151D3F"/>
<path opacity="0.4" d="M14.5899 9.61023H5.07538V11.1611H14.5899V9.61023Z" fill="#151D3F"/>
<path opacity="0.4" d="M26.377 21.0726H17.7689V22.6235H26.377V21.0726Z" fill="#151D3F"/>
<path d="M38.4414 24.9678L38.7774 25.445H38.4401L38.0354 24.8693L38.4401 24.2937H38.7774L38.4414 24.7708L38.3721 24.8693L38.4414 24.9678Z" fill="white"/>
<path d="M41.3512 24.9678L41.6873 25.445H41.35L40.9453 24.8693L41.35 24.2937H41.6873L41.3512 24.7708L41.2819 24.8693L41.3512 24.9678Z" fill="white"/>
<path d="M39.1779 25.4431L38.794 24.2943H39.1006L39.3196 25.0196L39.5581 24.4655H39.7317L39.977 25.0196L40.1947 24.2943H40.5013L40.1131 25.4437H39.9003L39.6427 24.825L39.3907 25.4437L39.1779 25.4431Z" fill="white"/>
<path d="M37.738 25.4431V24.2943H38.0354V25.4437L37.738 25.4431Z" fill="white"/>
<path d="M40.5571 25.4431V24.2943H40.8539V25.4437L40.5571 25.4431Z" fill="white"/>
<path d="M41.8891 24.9678L42.2251 25.445H41.8878L41.4831 24.8693L41.8878 24.2937H42.2251L41.8891 24.7708L41.8198 24.8693L41.8891 24.9678Z" fill="white"/>
<path d="M42.8506 25.4641C42.7382 25.4667 42.6269 25.4404 42.5274 25.3877C42.4375 25.3397 42.3627 25.2674 42.3116 25.179C42.2592 25.0862 42.2327 24.9809 42.2349 24.8743C42.2324 24.7647 42.2582 24.6563 42.3097 24.5597C42.3576 24.4707 42.4289 24.3966 42.5158 24.3454C42.6074 24.2917 42.712 24.2645 42.8181 24.2666C42.9141 24.2651 43.0086 24.2903 43.0911 24.3396C43.1736 24.3888 43.2409 24.4601 43.2854 24.5455C43.3311 24.6363 43.3523 24.7376 43.3467 24.8392V24.9327H42.5213C42.534 25.0111 42.5764 25.0814 42.6396 25.1291C42.7093 25.1788 42.7934 25.204 42.8788 25.2006C42.9273 25.2012 42.9755 25.193 43.0211 25.1765C43.0706 25.1569 43.1166 25.1293 43.1572 25.0947L43.3007 25.2954C43.1753 25.4033 43.0158 25.4631 42.8506 25.4641ZM42.8199 24.5239C42.6564 24.5239 42.5581 24.5978 42.525 24.7456H43.0671V24.737C43.0657 24.7074 43.0582 24.6786 43.0449 24.6521C43.0317 24.6257 43.0132 24.6024 42.9904 24.5837C42.9422 24.5433 42.8808 24.5222 42.8181 24.5246L42.8199 24.5239Z" fill="white"/>
<path d="M44.0593 25.464C43.9469 25.4666 43.8357 25.4404 43.7362 25.3877C43.6462 25.3397 43.5715 25.2674 43.5203 25.179C43.4682 25.0861 43.4418 24.9809 43.4436 24.8742C43.4412 24.7647 43.4669 24.6563 43.5185 24.5596C43.5664 24.4707 43.6376 24.3966 43.7245 24.3454C43.8162 24.2918 43.9208 24.2645 44.0268 24.2666C44.1228 24.2651 44.2173 24.2903 44.2998 24.3396C44.3824 24.3888 44.4496 24.4601 44.4941 24.5455C44.5399 24.6363 44.561 24.7376 44.5555 24.8392V24.9327H43.7319C43.7446 25.0111 43.787 25.0814 43.8502 25.1291C43.9201 25.1788 44.0044 25.204 44.09 25.2005C44.1383 25.2012 44.1863 25.193 44.2317 25.1765C44.282 25.1561 44.3287 25.1274 44.3696 25.0916L44.5125 25.2923C44.4498 25.3475 44.3774 25.3907 44.2991 25.4197C44.2224 25.4486 44.1413 25.4636 44.0593 25.464ZM44.0287 24.5239C43.8652 24.5239 43.767 24.5978 43.7343 24.7456H44.2764V24.737C44.2749 24.7074 44.2672 24.6785 44.2539 24.6521C44.2406 24.6257 44.222 24.6024 44.1992 24.5837C44.1514 24.5437 44.0908 24.5227 44.0287 24.5246V24.5239Z" fill="white"/>
</g>
<defs>
<clipPath id="clip0_334_31476">
<rect width="48.8038" height="29.1866" fill="white" transform="translate(0.598083 0.406738)"/>
</clipPath>
</defs>
</svg>
