<svg xmlns="http://www.w3.org/2000/svg" xmlns:xlink="http://www.w3.org/1999/xlink" viewBox="0 0 2443.62 1099.43"><defs><style>.cls-1{fill:none;}.cls-2{clip-path:url(#clip-path);}.cls-3{fill:#fff;opacity:0.4;}</style><clipPath id="clip-path"><rect class="cls-1" width="2443.62" height="1099.43"/></clipPath></defs><g id="Layer_2" data-name="Layer 2"><g id="Layer_1-2" data-name="Layer 1"><g class="cls-2"><path class="cls-3" d="M5043,440C4720.66,122.9,4313.11-90.54,3823.59-41.33c-659,66.26-1223.54,466.22-1802.14,723.49-292.62,130-609.52,243.53-940.45,246.94C644.36,933.6,286,721.27,0,440V425.11c286,281.3,644.36,493.59,1081,489.1,330.93-3.42,647.83-116.81,940.45-247C2600.05,410,3164.62,9.88,3823.59-56.23,4313.11-105.59,4720.66,108,5043,425.07Z"/><path class="cls-3" d="M5043,397.85C4720.66,80.78,4313.11-132.7,3823.59-83.3,3164.62-17.19,2600.05,382.77,2021.45,640,1728.83,770,1411.93,883.53,1081,887,644.36,891.44,286,679.15,0,397.85V383c286,281.3,644.36,493.6,1081,489.1,330.93-3.41,647.83-116.8,940.45-246.91C2600.05,367.91,3164.62-32.2,3823.59-98.31,4313.11-147.55,4720.66,65.93,5043,383Z"/><path class="cls-3" d="M5043,355.7C4720.66,38.63,4313.11-174.81,3823.59-125.6c-659,66.25-1223.54,466.22-1802.14,723.49-292.62,130-609.52,243.52-940.45,246.94C644.36,849.33,286,637,0,355.7V340.84C286,622.14,644.36,834.47,1081,830c330.93-3.42,647.83-116.81,940.45-247,578.6-257.27,1143.17-657.38,1802.14-723.49C4313.11-189.67,4720.66,23.77,5043,340.84Z"/><path class="cls-3" d="M5043,313.58C4720.66-3.49,4313.11-217,3823.59-167.76c-659,66.3-1223.54,466.26-1802.14,723.49-292.62,130-609.52,243.53-940.45,246.95C644.36,807.17,286,594.88,0,313.58V298.72C286,580,644.36,792.32,1081,787.82c330.93-3.42,647.83-116.81,940.45-246.91,578.6-257.27,1143.17-657.38,1802.14-723.52C4313.11-231.86,4720.66-18.42,5043,298.65Z"/><path class="cls-3" d="M5043,271.42C4720.66-45.64,4313.11-259.12,3823.59-209.87c-659,66.25-1223.54,466.22-1802.14,723.48-292.62,130-609.52,243.53-940.45,246.91C644.36,765,286,552.72,0,271.42V256.57C286,537.87,644.36,750.2,1081,745.7c330.93-3.41,647.83-116.84,940.45-246.94,578.6-257.27,1143.17-657.38,1802.14-723.49C4313.11-273.94,4720.66-60.5,5043,256.57Z"/></g></g></g></svg>